  0
SECTION
  2
BLOCKS
  0
ENDSEC
  0
SECTION
  2
ENTITIES
  0
LINE
  8
0
 10
54.8188
 20
4.57764e-05
 11
54.922
 21
0.000274658
  0
LINE
  8
0
 10
54.922
 20
0.000274658
 11
54.9908
 21
0.000534058
  0
LINE
  8
0
 10
54.9908
 20
0.000534058
 11
55.094
 21
0.00108337
  0
LINE
  8
0
 10
55.094
 20
0.00108337
 11
55.1628
 21
0.0015564
  0
LINE
  8
0
 10
55.1628
 20
0.0015564
 11
55.2316
 21
0.00212097
  0
LINE
  8
0
 10
55.2316
 20
0.00212097
 11
55.3348
 21
0.00312805
  0
LINE
  8
0
 10
55.3348
 20
0.00312805
 11
55.4036
 21
0.00390625
  0
LINE
  8
0
 10
55.4036
 20
0.00390625
 11
55.5068
 21
0.00523376
  0
LINE
  8
0
 10
55.5068
 20
0.00523376
 11
55.5756
 21
0.00622559
  0
LINE
  8
0
 10
55.5756
 20
0.00622559
 11
55.6444
 21
0.00730896
  0
LINE
  8
0
 10
55.6444
 20
0.00730896
 11
55.7475
 21
0.00909424
  0
LINE
  8
0
 10
55.7475
 20
0.00909424
 11
55.8163
 21
0.0103912
  0
LINE
  8
0
 10
55.8163
 20
0.0103912
 11
55.9195
 21
0.0124969
  0
LINE
  8
0
 10
55.9195
 20
0.0124969
 11
55.9883
 21
0.0140076
  0
LINE
  8
0
 10
55.9883
 20
0.0140076
 11
56.0571
 21
0.0156097
  0
LINE
  8
0
 10
56.0571
 20
0.0156097
 11
56.1602
 21
0.0181732
  0
LINE
  8
0
 10
56.1602
 20
0.0181732
 11
56.229
 21
0.019989
  0
LINE
  8
0
 10
56.229
 20
0.019989
 11
56.3322
 21
0.0228729
  0
LINE
  8
0
 10
56.3322
 20
0.0228729
 11
56.401
 21
0.0249023
  0
LINE
  8
0
 10
56.401
 20
0.0249023
 11
56.4697
 21
0.0270233
  0
LINE
  8
0
 10
56.4697
 20
0.0270233
 11
56.5385
 21
0.0292206
  0
LINE
  8
0
 10
56.5385
 20
0.0292206
 11
56.6416
 21
0.0326996
  0
LINE
  8
0
 10
56.6416
 20
0.0326996
 11
56.7104
 21
0.0351105
  0
LINE
  8
0
 10
56.7104
 20
0.0351105
 11
56.8135
 21
0.0389099
  0
LINE
  8
0
 10
56.8135
 20
0.0389099
 11
56.9167
 21
0.0428925
  0
LINE
  8
0
 10
56.9167
 20
0.0428925
 11
56.9854
 21
0.0456543
  0
LINE
  8
0
 10
56.9854
 20
0.0456543
 11
57.0541
 21
0.0485077
  0
LINE
  8
0
 10
57.0541
 20
0.0485077
 11
57.1572
 21
0.052948
  0
LINE
  8
0
 10
57.1572
 20
0.052948
 11
57.2603
 21
0.0575867
  0
LINE
  8
0
 10
57.2603
 20
0.0575867
 11
57.3634
 21
0.0624237
  0
LINE
  8
0
 10
57.3634
 20
0.0624237
 11
57.4665
 21
0.0674438
  0
LINE
  8
0
 10
57.4665
 20
0.0674438
 11
57.5352
 21
0.0708923
  0
LINE
  8
0
 10
57.5352
 20
0.0708923
 11
57.6383
 21
0.0762482
  0
LINE
  8
0
 10
57.6383
 20
0.0762482
 11
57.6726
 21
0.078064
  0
LINE
  8
0
 10
57.6726
 20
0.078064
 11
57.7757
 21
0.0836792
  0
LINE
  8
0
 10
57.7757
 20
0.0836792
 11
57.8787
 21
0.0894775
  0
LINE
  8
0
 10
57.8787
 20
0.0894775
 11
57.9818
 21
0.0954742
  0
LINE
  8
0
 10
57.9818
 20
0.0954742
 11
58.0848
 21
0.101654
  0
LINE
  8
0
 10
58.0848
 20
0.101654
 11
58.1878
 21
0.108047
  0
LINE
  8
0
 10
58.1878
 20
0.108047
 11
58.2908
 21
0.114624
  0
LINE
  8
0
 10
58.2908
 20
0.114624
 11
58.3594
 21
0.11911
  0
LINE
  8
0
 10
58.3594
 20
0.11911
 11
58.4624
 21
0.126007
  0
LINE
  8
0
 10
58.4624
 20
0.126007
 11
58.5654
 21
0.133102
  0
LINE
  8
0
 10
58.5654
 20
0.133102
 11
58.634
 21
0.137939
  0
LINE
  8
0
 10
58.634
 20
0.137939
 11
58.7026
 21
0.142868
  0
LINE
  8
0
 10
58.7026
 20
0.142868
 11
58.8055
 21
0.150421
  0
LINE
  8
0
 10
58.8055
 20
0.150421
 11
58.9084
 21
0.158157
  0
LINE
  8
0
 10
58.9084
 20
0.158157
 11
58.977
 21
0.163422
  0
LINE
  8
0
 10
58.977
 20
0.163422
 11
59.0456
 21
0.168777
  0
LINE
  8
0
 10
59.0456
 20
0.168777
 11
59.1485
 21
0.176971
  0
LINE
  8
0
 10
59.1485
 20
0.176971
 11
59.2171
 21
0.182541
  0
LINE
  8
0
 10
59.2171
 20
0.182541
 11
59.2856
 21
0.188202
  0
LINE
  8
0
 10
59.2856
 20
0.188202
 11
59.3885
 21
0.196854
  0
LINE
  8
0
 10
59.3885
 20
0.196854
 11
59.4913
 21
0.205688
  0
LINE
  8
0
 10
59.4913
 20
0.205688
 11
59.5598
 21
0.211685
  0
LINE
  8
0
 10
59.5598
 20
0.211685
 11
59.6284
 21
0.217773
  0
LINE
  8
0
 10
59.6284
 20
0.217773
 11
59.7312
 21
0.227066
  0
LINE
  8
0
 10
59.7312
 20
0.227066
 11
59.7997
 21
0.233368
  0
LINE
  8
0
 10
59.7997
 20
0.233368
 11
59.8682
 21
0.239761
  0
LINE
  8
0
 10
59.8682
 20
0.239761
 11
59.9367
 21
0.246231
  0
LINE
  8
0
 10
59.9367
 20
0.246231
 11
60.0052
 21
0.252792
  0
LINE
  8
0
 10
60.0052
 20
0.252792
 11
60.1079
 21
0.262802
  0
LINE
  8
0
 10
60.1079
 20
0.262802
 11
60.2106
 21
0.272995
  0
LINE
  8
0
 10
60.2106
 20
0.272995
 11
60.3132
 21
0.283386
  0
LINE
  8
0
 10
60.3132
 20
0.283386
 11
60.3817
 21
0.290421
  0
LINE
  8
0
 10
60.3817
 20
0.290421
 11
60.4843
 21
0.301132
  0
LINE
  8
0
 10
60.4843
 20
0.301132
 11
60.5527
 21
0.30838
  0
LINE
  8
0
 10
60.5527
 20
0.30838
 11
60.6553
 21
0.319412
  0
LINE
  8
0
 10
60.6553
 20
0.319412
 11
60.7238
 21
0.326874
  0
LINE
  8
0
 10
60.7238
 20
0.326874
 11
60.7921
 21
0.334427
  0
LINE
  8
0
 10
60.7921
 20
0.334427
 11
60.8947
 21
0.345917
  0
LINE
  8
0
 10
60.8947
 20
0.345917
 11
60.9972
 21
0.35759
  0
LINE
  8
0
 10
60.9972
 20
0.35759
 11
61.0997
 21
0.369461
  0
LINE
  8
0
 10
61.0997
 20
0.369461
 11
61.1681
 21
0.377487
  0
LINE
  8
0
 10
61.1681
 20
0.377487
 11
61.2706
 21
0.389679
  0
LINE
  8
0
 10
61.2706
 20
0.389679
 11
61.373
 21
0.402069
  0
LINE
  8
0
 10
61.373
 20
0.402069
 11
61.4413
 21
0.410431
  0
LINE
  8
0
 10
61.4413
 20
0.410431
 11
61.5437
 21
0.423141
  0
LINE
  8
0
 10
61.5437
 20
0.423141
 11
61.6461
 21
0.43605
  0
LINE
  8
0
 10
61.6461
 20
0.43605
 11
61.7485
 21
0.449142
  0
LINE
  8
0
 10
61.7485
 20
0.449142
 11
61.8167
 21
0.457977
  0
LINE
  8
0
 10
61.8167
 20
0.457977
 11
61.8849
 21
0.466904
  0
LINE
  8
0
 10
61.8849
 20
0.466904
 11
61.9872
 21
0.480453
  0
LINE
  8
0
 10
61.9872
 20
0.480453
 11
62.0895
 21
0.494186
  0
LINE
  8
0
 10
62.0895
 20
0.494186
 11
62.1577
 21
0.503448
  0
LINE
  8
0
 10
62.1577
 20
0.503448
 11
62.2259
 21
0.512802
  0
LINE
  8
0
 10
62.2259
 20
0.512802
 11
62.3281
 21
0.526993
  0
LINE
  8
0
 10
62.3281
 20
0.526993
 11
62.3962
 21
0.53656
  0
LINE
  8
0
 10
62.3962
 20
0.53656
 11
62.4984
 21
0.551071
  0
LINE
  8
0
 10
62.4984
 20
0.551071
 11
62.6005
 21
0.565765
  0
LINE
  8
0
 10
62.6005
 20
0.565765
 11
62.7027
 21
0.580673
  0
LINE
  8
0
 10
62.7027
 20
0.580673
 11
62.7707
 21
0.590698
  0
LINE
  8
0
 10
62.7707
 20
0.590698
 11
62.8728
 21
0.605911
  0
LINE
  8
0
 10
62.8728
 20
0.605911
 11
62.9748
 21
0.621323
  0
LINE
  8
0
 10
62.9748
 20
0.621323
 11
63.0429
 21
0.631699
  0
LINE
  8
0
 10
63.0429
 20
0.631699
 11
63.1449
 21
0.64743
  0
LINE
  8
0
 10
63.1449
 20
0.64743
 11
63.2468
 21
0.663345
  0
LINE
  8
0
 10
63.2468
 20
0.663345
 11
63.3488
 21
0.679459
  0
LINE
  8
0
 10
63.3488
 20
0.679459
 11
63.4167
 21
0.690308
  0
LINE
  8
0
 10
63.4167
 20
0.690308
 11
63.5186
 21
0.706741
  0
LINE
  8
0
 10
63.5186
 20
0.706741
 11
63.5865
 21
0.717804
  0
LINE
  8
0
 10
63.5865
 20
0.717804
 11
63.6883
 21
0.734558
  0
LINE
  8
0
 10
63.6883
 20
0.734558
 11
63.7901
 21
0.751495
  0
LINE
  8
0
 10
63.7901
 20
0.751495
 11
63.8241
 21
0.757187
  0
LINE
  8
0
 10
63.8241
 20
0.757187
 11
63.8919
 21
0.768631
  0
LINE
  8
0
 10
63.8919
 20
0.768631
 11
63.9936
 21
0.785965
  0
LINE
  8
0
 10
63.9936
 20
0.785965
 11
64.0614
 21
0.797623
  0
LINE
  8
0
 10
64.0614
 20
0.797623
 11
64.1631
 21
0.815277
  0
LINE
  8
0
 10
64.1631
 20
0.815277
 11
64.2648
 21
0.833115
  0
LINE
  8
0
 10
64.2648
 20
0.833115
 11
64.3664
 21
0.851135
  0
LINE
  8
0
 10
64.3664
 20
0.851135
 11
64.4341
 21
0.863266
  0
LINE
  8
0
 10
64.4341
 20
0.863266
 11
64.5018
 21
0.875473
  0
LINE
  8
0
 10
64.5018
 20
0.875473
 11
64.5695
 21
0.887772
  0
LINE
  8
0
 10
64.5695
 20
0.887772
 11
64.671
 21
0.906387
  0
LINE
  8
0
 10
64.671
 20
0.906387
 11
64.7387
 21
0.9189
  0
LINE
  8
0
 10
64.7387
 20
0.9189
 11
64.8063
 21
0.931488
  0
LINE
  8
0
 10
64.8063
 20
0.931488
 11
64.9077
 21
0.950531
  0
LINE
  8
0
 10
64.9077
 20
0.950531
 11
65.0091
 21
0.969788
  0
LINE
  8
0
 10
65.0091
 20
0.969788
 11
65.0767
 21
0.982712
  0
LINE
  8
0
 10
65.0767
 20
0.982712
 11
65.1443
 21
0.995728
  0
LINE
  8
0
 10
65.1443
 20
0.995728
 11
65.2118
 21
1.00883
  0
LINE
  8
0
 10
65.2118
 20
1.00883
 11
65.3131
 21
1.02866
  0
LINE
  8
0
 10
65.3131
 20
1.02866
 11
65.4143
 21
1.04866
  0
LINE
  8
0
 10
65.4143
 20
1.04866
 11
65.4818
 21
1.0621
  0
LINE
  8
0
 10
65.4818
 20
1.0621
 11
65.583
 21
1.08243
  0
LINE
  8
0
 10
65.583
 20
1.08243
 11
65.6504
 21
1.09608
  0
LINE
  8
0
 10
65.6504
 20
1.09608
 11
65.7178
 21
1.10982
  0
LINE
  8
0
 10
65.7178
 20
1.10982
 11
65.7852
 21
1.12364
  0
LINE
  8
0
 10
65.7852
 20
1.12364
 11
65.8526
 21
1.13756
  0
LINE
  8
0
 10
65.8526
 20
1.13756
 11
65.92
 21
1.15155
  0
LINE
  8
0
 10
65.92
 20
1.15155
 11
66.021
 21
1.1727
  0
LINE
  8
0
 10
66.021
 20
1.1727
 11
66.0883
 21
1.1869
  0
LINE
  8
0
 10
66.0883
 20
1.1869
 11
66.1892
 21
1.20837
  0
LINE
  8
0
 10
66.1892
 20
1.20837
 11
66.2901
 21
1.23003
  0
LINE
  8
0
 10
66.2901
 20
1.23003
 11
66.3238
 21
1.23729
  0
LINE
  8
0
 10
66.3238
 20
1.23729
 11
66.4246
 21
1.2592
  0
LINE
  8
0
 10
66.4246
 20
1.2592
 11
66.5254
 21
1.28131
  0
LINE
  8
0
 10
66.5254
 20
1.28131
 11
66.5926
 21
1.29614
  0
LINE
  8
0
 10
66.5926
 20
1.29614
 11
66.6598
 21
1.31107
  0
LINE
  8
0
 10
66.6598
 20
1.31107
 11
66.7605
 21
1.33362
  0
LINE
  8
0
 10
66.7605
 20
1.33362
 11
66.8276
 21
1.34875
  0
LINE
  8
0
 10
66.8276
 20
1.34875
 11
66.8947
 21
1.36397
  0
LINE
  8
0
 10
66.8947
 20
1.36397
 11
66.9618
 21
1.37927
  0
LINE
  8
0
 10
66.9618
 20
1.37927
 11
67.0623
 21
1.40239
  0
LINE
  8
0
 10
67.0623
 20
1.40239
 11
67.1629
 21
1.42569
  0
LINE
  8
0
 10
67.1629
 20
1.42569
 11
67.2299
 21
1.44133
  0
LINE
  8
0
 10
67.2299
 20
1.44133
 11
67.3303
 21
1.46495
  0
LINE
  8
0
 10
67.3303
 20
1.46495
 11
67.4308
 21
1.48875
  0
LINE
  8
0
 10
67.4308
 20
1.48875
 11
67.4977
 21
1.50473
  0
LINE
  8
0
 10
67.4977
 20
1.50473
 11
67.598
 21
1.52885
  0
LINE
  8
0
 10
67.598
 20
1.52885
 11
67.6649
 21
1.54504
  0
LINE
  8
0
 10
67.6649
 20
1.54504
 11
67.7317
 21
1.56131
  0
LINE
  8
0
 10
67.7317
 20
1.56131
 11
67.7986
 21
1.57767
  0
LINE
  8
0
 10
67.7986
 20
1.57767
 11
67.8988
 21
1.60236
  0
LINE
  8
0
 10
67.8988
 20
1.60236
 11
67.9989
 21
1.62724
  0
LINE
  8
0
 10
67.9989
 20
1.62724
 11
68.0657
 21
1.64394
  0
LINE
  8
0
 10
68.0657
 20
1.64394
 11
68.1324
 21
1.66071
  0
LINE
  8
0
 10
68.1324
 20
1.66071
 11
68.2324
 21
1.68602
  0
LINE
  8
0
 10
68.2324
 20
1.68602
 11
68.3324
 21
1.71153
  0
LINE
  8
0
 10
68.3324
 20
1.71153
 11
68.3991
 21
1.72864
  0
LINE
  8
0
 10
68.3991
 20
1.72864
 11
68.4657
 21
1.74583
  0
LINE
  8
0
 10
68.4657
 20
1.74583
 11
68.5656
 21
1.77179
  0
LINE
  8
0
 10
68.5656
 20
1.77179
 11
68.6321
 21
1.78918
  0
LINE
  8
0
 10
68.6321
 20
1.78918
 11
68.7319
 21
1.81544
  0
LINE
  8
0
 10
68.7319
 20
1.81544
 11
68.8317
 21
1.8419
  0
LINE
  8
0
 10
68.8317
 20
1.8419
 11
68.9314
 21
1.86853
  0
LINE
  8
0
 10
68.9314
 20
1.86853
 11
68.9978
 21
1.8864
  0
LINE
  8
0
 10
68.9978
 20
1.8864
 11
69.0975
 21
1.91335
  0
LINE
  8
0
 10
69.0975
 20
1.91335
 11
69.197
 21
1.94049
  0
LINE
  8
0
 10
69.197
 20
1.94049
 11
69.2634
 21
1.95868
  0
LINE
  8
0
 10
69.2634
 20
1.95868
 11
69.3297
 21
1.97696
  0
LINE
  8
0
 10
69.3297
 20
1.97696
 11
69.4292
 21
2.00455
  0
LINE
  8
0
 10
69.4292
 20
2.00455
 11
69.4954
 21
2.02303
  0
LINE
  8
0
 10
69.4954
 20
2.02303
 11
69.5617
 21
2.0416
  0
LINE
  8
0
 10
69.5617
 20
2.0416
 11
69.661
 21
2.06961
  0
LINE
  8
0
 10
69.661
 20
2.06961
 11
69.7603
 21
2.09781
  0
LINE
  8
0
 10
69.7603
 20
2.09781
 11
69.8264
 21
2.11671
  0
LINE
  8
0
 10
69.8264
 20
2.11671
 11
69.9256
 21
2.14523
  0
LINE
  8
0
 10
69.9256
 20
2.14523
 11
69.9917
 21
2.16434
  0
LINE
  8
0
 10
69.9917
 20
2.16434
 11
70.0578
 21
2.18353
  0
LINE
  8
0
 10
70.0578
 20
2.18353
 11
70.1568
 21
2.21248
  0
LINE
  8
0
 10
70.1568
 20
2.21248
 11
70.2229
 21
2.23189
  0
LINE
  8
0
 10
70.2229
 20
2.23189
 11
70.3218
 21
2.26114
  0
LINE
  8
0
 10
70.3218
 20
2.26114
 11
70.4207
 21
2.29059
  0
LINE
  8
0
 10
70.4207
 20
2.29059
 11
70.4866
 21
2.31032
  0
LINE
  8
0
 10
70.4866
 20
2.31032
 11
70.5525
 21
2.33014
  0
LINE
  8
0
 10
70.5525
 20
2.33014
 11
70.6184
 21
2.35004
  0
LINE
  8
0
 10
70.6184
 20
2.35004
 11
70.7171
 21
2.38005
  0
LINE
  8
0
 10
70.7171
 20
2.38005
 11
70.7829
 21
2.40015
  0
LINE
  8
0
 10
70.7829
 20
2.40015
 11
70.8487
 21
2.42033
  0
LINE
  8
0
 10
70.8487
 20
2.42033
 11
70.9473
 21
2.45078
  0
LINE
  8
0
 10
70.9473
 20
2.45078
 11
71.0459
 21
2.4814
  0
LINE
  8
0
 10
71.0459
 20
2.4814
 11
71.1444
 21
2.51221
  0
LINE
  8
0
 10
71.1444
 20
2.51221
 11
71.21
 21
2.53285
  0
LINE
  8
0
 10
71.21
 20
2.53285
 11
71.2756
 21
2.55357
  0
LINE
  8
0
 10
71.2756
 20
2.55357
 11
71.3412
 21
2.57439
  0
LINE
  8
0
 10
71.3412
 20
2.57439
 11
71.4067
 21
2.59528
  0
LINE
  8
0
 10
71.4067
 20
2.59528
 11
71.505
 21
2.62677
  0
LINE
  8
0
 10
71.505
 20
2.62677
 11
71.5705
 21
2.64786
  0
LINE
  8
0
 10
71.5705
 20
2.64786
 11
71.636
 21
2.66904
  0
LINE
  8
0
 10
71.636
 20
2.66904
 11
71.7341
 21
2.70096
  0
LINE
  8
0
 10
71.7341
 20
2.70096
 11
71.8322
 21
2.73308
  0
LINE
  8
0
 10
71.8322
 20
2.73308
 11
71.8975
 21
2.75458
  0
LINE
  8
0
 10
71.8975
 20
2.75458
 11
71.9955
 21
2.78699
  0
LINE
  8
0
 10
71.9955
 20
2.78699
 11
72.0608
 21
2.8087
  0
LINE
  8
0
 10
72.0608
 20
2.8087
 11
72.1587
 21
2.84143
  0
LINE
  8
0
 10
72.1587
 20
2.84143
 11
72.2565
 21
2.87433
  0
LINE
  8
0
 10
72.2565
 20
2.87433
 11
72.3542
 21
2.90742
  0
LINE
  8
0
 10
72.3542
 20
2.90742
 11
72.4519
 21
2.9407
  0
LINE
  8
0
 10
72.4519
 20
2.9407
 11
72.517
 21
2.96298
  0
LINE
  8
0
 10
72.517
 20
2.96298
 11
72.5821
 21
2.98535
  0
LINE
  8
0
 10
72.5821
 20
2.98535
 11
72.6471
 21
3.0078
  0
LINE
  8
0
 10
72.6471
 20
3.0078
 11
72.7446
 21
3.04163
  0
LINE
  8
0
 10
72.7446
 20
3.04163
 11
72.842
 21
3.07564
  0
LINE
  8
0
 10
72.842
 20
3.07564
 11
72.9394
 21
3.10983
  0
LINE
  8
0
 10
72.9394
 20
3.10983
 11
73.0367
 21
3.14421
  0
LINE
  8
0
 10
73.0367
 20
3.14421
 11
73.134
 21
3.17877
  0
LINE
  8
0
 10
73.134
 20
3.17877
 11
73.2311
 21
3.21352
  0
LINE
  8
0
 10
73.2311
 20
3.21352
 11
73.3283
 21
3.24844
  0
LINE
  8
0
 10
73.3283
 20
3.24844
 11
73.4253
 21
3.28355
  0
LINE
  8
0
 10
73.4253
 20
3.28355
 11
73.5223
 21
3.31885
  0
LINE
  8
0
 10
73.5223
 20
3.31885
 11
73.6192
 21
3.35432
  0
LINE
  8
0
 10
73.6192
 20
3.35432
 11
73.716
 21
3.38998
  0
LINE
  8
0
 10
73.716
 20
3.38998
 11
73.8128
 21
3.42583
  0
LINE
  8
0
 10
73.8128
 20
3.42583
 11
73.9095
 21
3.46185
  0
LINE
  8
0
 10
73.9095
 20
3.46185
 11
74.0062
 21
3.49806
  0
LINE
  8
0
 10
74.0062
 20
3.49806
 11
74.0706
 21
3.52229
  0
LINE
  8
0
 10
74.0706
 20
3.52229
 11
74.1349
 21
3.54662
  0
LINE
  8
0
 10
74.1349
 20
3.54662
 11
74.1992
 21
3.57101
  0
LINE
  8
0
 10
74.1992
 20
3.57101
 11
74.2957
 21
3.60777
  0
LINE
  8
0
 10
74.2957
 20
3.60777
 11
74.3599
 21
3.63237
  0
LINE
  8
0
 10
74.3599
 20
3.63237
 11
74.4563
 21
3.66942
  0
LINE
  8
0
 10
74.4563
 20
3.66942
 11
74.5204
 21
3.69423
  0
LINE
  8
0
 10
74.5204
 20
3.69423
 11
74.6166
 21
3.73158
  0
LINE
  8
0
 10
74.6166
 20
3.73158
 11
74.7128
 21
3.76912
  0
LINE
  8
0
 10
74.7128
 20
3.76912
 11
74.8088
 21
3.80684
  0
LINE
  8
0
 10
74.8088
 20
3.80684
 11
74.9048
 21
3.84474
  0
LINE
  8
0
 10
74.9048
 20
3.84474
 11
75.0007
 21
3.88283
  0
LINE
  8
0
 10
75.0007
 20
3.88283
 11
75.0646
 21
3.90831
  0
LINE
  8
0
 10
75.0646
 20
3.90831
 11
75.1285
 21
3.93388
  0
LINE
  8
0
 10
75.1285
 20
3.93388
 11
75.2243
 21
3.97238
  0
LINE
  8
0
 10
75.2243
 20
3.97238
 11
75.3199
 21
4.01106
  0
LINE
  8
0
 10
75.3199
 20
4.01106
 11
75.4155
 21
4.04993
  0
LINE
  8
0
 10
75.4155
 20
4.04993
 11
75.5111
 21
4.08897
  0
LINE
  8
0
 10
75.5111
 20
4.08897
 11
75.6383
 21
4.14131
  0
LINE
  8
0
 10
75.6383
 20
4.14131
 11
75.7337
 21
4.18077
  0
LINE
  8
0
 10
75.7337
 20
4.18077
 11
75.7972
 21
4.20718
  0
LINE
  8
0
 10
75.7972
 20
4.20718
 11
75.8925
 21
4.24695
  0
LINE
  8
0
 10
75.8925
 20
4.24695
 11
75.9559
 21
4.27356
  0
LINE
  8
0
 10
75.9559
 20
4.27356
 11
76.051
 21
4.31361
  0
LINE
  8
0
 10
76.051
 20
4.31361
 11
76.1144
 21
4.34042
  0
LINE
  8
0
 10
76.1144
 20
4.34042
 11
76.1777
 21
4.36731
  0
LINE
  8
0
 10
76.1777
 20
4.36731
 11
76.2726
 21
4.40779
  0
LINE
  8
0
 10
76.2726
 20
4.40779
 11
76.3359
 21
4.43488
  0
LINE
  8
0
 10
76.3359
 20
4.43488
 11
76.4307
 21
4.47566
  0
LINE
  8
0
 10
76.4307
 20
4.47566
 11
76.5254
 21
4.51662
  0
LINE
  8
0
 10
76.5254
 20
4.51662
 11
76.5885
 21
4.54402
  0
LINE
  8
0
 10
76.5885
 20
4.54402
 11
76.6831
 21
4.58527
  0
LINE
  8
0
 10
76.6831
 20
4.58527
 11
76.7461
 21
4.61287
  0
LINE
  8
0
 10
76.7461
 20
4.61287
 11
76.8406
 21
4.65442
  0
LINE
  8
0
 10
76.8406
 20
4.65442
 11
76.9035
 21
4.68222
  0
LINE
  8
0
 10
76.9035
 20
4.68222
 11
76.9664
 21
4.7101
  0
LINE
  8
0
 10
76.9664
 20
4.7101
 11
77.0293
 21
4.73805
  0
LINE
  8
0
 10
77.0293
 20
4.73805
 11
77.1235
 21
4.78014
  0
LINE
  8
0
 10
77.1235
 20
4.78014
 11
77.2177
 21
4.8224
  0
LINE
  8
0
 10
77.2177
 20
4.8224
 11
77.3118
 21
4.86484
  0
LINE
  8
0
 10
77.3118
 20
4.86484
 11
77.4057
 21
4.90746
  0
LINE
  8
0
 10
77.4057
 20
4.90746
 11
77.4996
 21
4.95026
  0
LINE
  8
0
 10
77.4996
 20
4.95026
 11
77.5935
 21
4.99323
  0
LINE
  8
0
 10
77.5935
 20
4.99323
 11
77.656
 21
5.02197
  0
LINE
  8
0
 10
77.656
 20
5.02197
 11
77.7497
 21
5.06523
  0
LINE
  8
0
 10
77.7497
 20
5.06523
 11
77.8433
 21
5.10867
  0
LINE
  8
0
 10
77.8433
 20
5.10867
 11
77.9368
 21
5.1523
  0
LINE
  8
0
 10
77.9368
 20
5.1523
 11
78.0303
 21
5.19609
  0
LINE
  8
0
 10
78.0303
 20
5.19609
 11
78.0925
 21
5.22539
  0
LINE
  8
0
 10
78.0925
 20
5.22539
 11
78.1858
 21
5.26947
  0
LINE
  8
0
 10
78.1858
 20
5.26947
 11
78.2791
 21
5.31374
  0
LINE
  8
0
 10
78.2791
 20
5.31374
 11
78.3412
 21
5.34334
  0
LINE
  8
0
 10
78.3412
 20
5.34334
 11
78.4343
 21
5.38789
  0
LINE
  8
0
 10
78.4343
 20
5.38789
 11
78.4963
 21
5.41769
  0
LINE
  8
0
 10
78.4963
 20
5.41769
 11
78.5892
 21
5.46254
  0
LINE
  8
0
 10
78.5892
 20
5.46254
 11
78.6511
 21
5.49254
  0
LINE
  8
0
 10
78.6511
 20
5.49254
 11
78.713
 21
5.52261
  0
LINE
  8
0
 10
78.713
 20
5.52261
 11
78.8058
 21
5.56787
  0
LINE
  8
0
 10
78.8058
 20
5.56787
 11
78.8676
 21
5.59814
  0
LINE
  8
0
 10
78.8676
 20
5.59814
 11
78.9602
 21
5.64369
  0
LINE
  8
0
 10
78.9602
 20
5.64369
 11
79.0219
 21
5.67415
  0
LINE
  8
0
 10
79.0219
 20
5.67415
 11
79.1143
 21
5.71999
  0
LINE
  8
0
 10
79.1143
 20
5.71999
 11
79.1759
 21
5.75064
  0
LINE
  8
0
 10
79.1759
 20
5.75064
 11
79.2375
 21
5.78137
  0
LINE
  8
0
 10
79.2375
 20
5.78137
 11
79.3297
 21
5.82762
  0
LINE
  8
0
 10
79.3297
 20
5.82762
 11
79.4219
 21
5.87404
  0
LINE
  8
0
 10
79.4219
 20
5.87404
 11
79.514
 21
5.92064
  0
LINE
  8
0
 10
79.514
 20
5.92064
 11
79.5753
 21
5.9518
  0
LINE
  8
0
 10
79.5753
 20
5.9518
 11
79.6673
 21
5.99867
  0
LINE
  8
0
 10
79.6673
 20
5.99867
 11
79.7591
 21
6.04573
  0
LINE
  8
0
 10
79.7591
 20
6.04573
 11
79.8509
 21
6.09296
  0
LINE
  8
0
 10
79.8509
 20
6.09296
 11
79.8814
 21
6.10873
  0
LINE
  8
0
 10
79.8814
 20
6.10873
 11
79.9425
 21
6.14035
  0
LINE
  8
0
 10
79.9425
 20
6.14035
 11
80.0341
 21
6.18793
  0
LINE
  8
0
 10
80.0341
 20
6.18793
 11
80.1256
 21
6.23567
  0
LINE
  8
0
 10
80.1256
 20
6.23567
 11
80.217
 21
6.2836
  0
LINE
  8
0
 10
80.217
 20
6.2836
 11
80.2779
 21
6.31563
  0
LINE
  8
0
 10
80.2779
 20
6.31563
 11
80.3387
 21
6.34775
  0
LINE
  8
0
 10
80.3387
 20
6.34775
 11
80.3996
 21
6.37994
  0
LINE
  8
0
 10
80.3996
 20
6.37994
 11
80.4907
 21
6.42838
  0
LINE
  8
0
 10
80.4907
 20
6.42838
 11
80.5817
 21
6.47699
  0
LINE
  8
0
 10
80.5817
 20
6.47699
 11
80.6727
 21
6.52576
  0
LINE
  8
0
 10
80.6727
 20
6.52576
 11
80.7635
 21
6.57471
  0
LINE
  8
0
 10
80.7635
 20
6.57471
 11
80.8543
 21
6.62383
  0
LINE
  8
0
 10
80.8543
 20
6.62383
 11
80.9449
 21
6.67313
  0
LINE
  8
0
 10
80.9449
 20
6.67313
 11
81.0355
 21
6.72258
  0
LINE
  8
0
 10
81.0355
 20
6.72258
 11
81.126
 21
6.77222
  0
LINE
  8
0
 10
81.126
 20
6.77222
 11
81.2164
 21
6.82202
  0
LINE
  8
0
 10
81.2164
 20
6.82202
 11
81.3067
 21
6.87199
  0
LINE
  8
0
 10
81.3067
 20
6.87199
 11
81.3668
 21
6.9054
  0
LINE
  8
0
 10
81.3668
 20
6.9054
 11
81.457
 21
6.95566
  0
LINE
  8
0
 10
81.457
 20
6.95566
 11
81.517
 21
6.98926
  0
LINE
  8
0
 10
81.517
 20
6.98926
 11
81.607
 21
7.03979
  0
LINE
  8
0
 10
81.607
 20
7.03979
 11
81.6669
 21
7.07358
  0
LINE
  8
0
 10
81.6669
 20
7.07358
 11
81.7567
 21
7.1244
  0
LINE
  8
0
 10
81.7567
 20
7.1244
 11
81.8465
 21
7.1754
  0
LINE
  8
0
 10
81.8465
 20
7.1754
 11
81.9062
 21
7.20949
  0
LINE
  8
0
 10
81.9062
 20
7.20949
 11
81.966
 21
7.24365
  0
LINE
  8
0
 10
81.966
 20
7.24365
 11
82.0555
 21
7.29503
  0
LINE
  8
0
 10
82.0555
 20
7.29503
 11
82.1449
 21
7.34659
  0
LINE
  8
0
 10
82.1449
 20
7.34659
 11
82.2342
 21
7.39832
  0
LINE
  8
0
 10
82.2342
 20
7.39832
 11
82.3234
 21
7.4502
  0
LINE
  8
0
 10
82.3234
 20
7.4502
 11
82.4125
 21
7.50226
  0
LINE
  8
0
 10
82.4125
 20
7.50226
 11
82.5015
 21
7.55449
  0
LINE
  8
0
 10
82.5015
 20
7.55449
 11
82.5311
 21
7.57193
  0
LINE
  8
0
 10
82.5311
 20
7.57193
 11
82.5904
 21
7.60687
  0
LINE
  8
0
 10
82.5904
 20
7.60687
 11
82.62
 21
7.62437
  0
LINE
  8
0
 10
82.62
 20
7.62437
 11
82.6792
 21
7.65944
  0
LINE
  8
0
 10
82.6792
 20
7.65944
 11
82.7679
 21
7.71217
  0
LINE
  8
0
 10
82.7679
 20
7.71217
 11
82.8565
 21
7.76506
  0
LINE
  8
0
 10
82.8565
 20
7.76506
 11
82.9451
 21
7.81813
  0
LINE
  8
0
 10
82.9451
 20
7.81813
 11
83.0335
 21
7.87135
  0
LINE
  8
0
 10
83.0335
 20
7.87135
 11
83.1218
 21
7.92476
  0
LINE
  8
0
 10
83.1218
 20
7.92476
 11
83.21
 21
7.97832
  0
LINE
  8
0
 10
83.21
 20
7.97832
 11
83.2981
 21
8.03204
  0
LINE
  8
0
 10
83.2981
 20
8.03204
 11
83.3861
 21
8.08594
  0
LINE
  8
0
 10
83.3861
 20
8.08594
 11
83.474
 21
8.14
  0
LINE
  8
0
 10
83.474
 20
8.14
 11
83.5326
 21
8.17613
  0
LINE
  8
0
 10
83.5326
 20
8.17613
 11
83.6203
 21
8.23047
  0
LINE
  8
0
 10
83.6203
 20
8.23047
 11
83.7079
 21
8.28497
  0
LINE
  8
0
 10
83.7079
 20
8.28497
 11
83.7663
 21
8.3214
  0
LINE
  8
0
 10
83.7663
 20
8.3214
 11
83.8246
 21
8.35789
  0
LINE
  8
0
 10
83.8246
 20
8.35789
 11
83.912
 21
8.41278
  0
LINE
  8
0
 10
83.912
 20
8.41278
 11
83.9993
 21
8.46783
  0
LINE
  8
0
 10
83.9993
 20
8.46783
 11
84.0575
 21
8.50462
  0
LINE
  8
0
 10
84.0575
 20
8.50462
 11
84.1156
 21
8.54149
  0
LINE
  8
0
 10
84.1156
 20
8.54149
 11
84.1736
 21
8.57843
  0
LINE
  8
0
 10
84.1736
 20
8.57843
 11
84.2606
 21
8.63397
  0
LINE
  8
0
 10
84.2606
 20
8.63397
 11
84.3474
 21
8.68968
  0
LINE
  8
0
 10
84.3474
 20
8.68968
 11
84.4053
 21
8.72691
  0
LINE
  8
0
 10
84.4053
 20
8.72691
 11
84.492
 21
8.7829
  0
LINE
  8
0
 10
84.492
 20
8.7829
 11
84.5786
 21
8.83904
  0
LINE
  8
0
 10
84.5786
 20
8.83904
 11
84.6651
 21
8.89534
  0
LINE
  8
0
 10
84.6651
 20
8.89534
 11
84.7515
 21
8.95181
  0
LINE
  8
0
 10
84.7515
 20
8.95181
 11
84.809
 21
8.98955
  0
LINE
  8
0
 10
84.809
 20
8.98955
 11
84.8665
 21
9.02736
  0
LINE
  8
0
 10
84.8665
 20
9.02736
 11
84.9526
 21
9.08421
  0
LINE
  8
0
 10
84.9526
 20
9.08421
 11
84.9813
 21
9.1032
  0
LINE
  8
0
 10
84.9813
 20
9.1032
 11
85.0386
 21
9.14122
  0
LINE
  8
0
 10
85.0386
 20
9.14122
 11
85.1245
 21
9.19839
  0
LINE
  8
0
 10
85.1245
 20
9.19839
 11
85.1818
 21
9.2366
  0
LINE
  8
0
 10
85.1818
 20
9.2366
 11
85.2675
 21
9.29405
  0
LINE
  8
0
 10
85.2675
 20
9.29405
 11
85.3246
 21
9.33243
  0
LINE
  8
0
 10
85.3246
 20
9.33243
 11
85.4102
 21
9.39015
  0
LINE
  8
0
 10
85.4102
 20
9.39015
 11
85.4956
 21
9.44801
  0
LINE
  8
0
 10
85.4956
 20
9.44801
 11
85.5809
 21
9.50606
  0
LINE
  8
0
 10
85.5809
 20
9.50606
 11
85.6378
 21
9.54483
  0
LINE
  8
0
 10
85.6378
 20
9.54483
 11
85.6945
 21
9.58368
  0
LINE
  8
0
 10
85.6945
 20
9.58368
 11
85.7796
 21
9.64209
  0
LINE
  8
0
 10
85.7796
 20
9.64209
 11
85.8646
 21
9.70067
  0
LINE
  8
0
 10
85.8646
 20
9.70067
 11
85.9212
 21
9.73979
  0
LINE
  8
0
 10
85.9212
 20
9.73979
 11
85.9495
 21
9.75938
  0
LINE
  8
0
 10
85.9495
 20
9.75938
 11
86.006
 21
9.79863
  0
LINE
  8
0
 10
86.006
 20
9.79863
 11
86.0907
 21
9.85764
  0
LINE
  8
0
 10
86.0907
 20
9.85764
 11
86.1752
 21
9.91678
  0
LINE
  8
0
 10
86.1752
 20
9.91678
 11
86.2597
 21
9.9761
  0
LINE
  8
0
 10
86.2597
 20
9.9761
 11
86.344
 21
10.0356
  0
LINE
  8
0
 10
86.344
 20
10.0356
 11
86.4282
 21
10.0952
  0
LINE
  8
0
 10
86.4282
 20
10.0952
 11
86.5124
 21
10.155
  0
LINE
  8
0
 10
86.5124
 20
10.155
 11
86.5684
 21
10.1949
  0
LINE
  8
0
 10
86.5684
 20
10.1949
 11
86.6523
 21
10.255
  0
LINE
  8
0
 10
86.6523
 20
10.255
 11
86.7082
 21
10.2951
  0
LINE
  8
0
 10
86.7082
 20
10.2951
 11
86.7919
 21
10.3554
  0
LINE
  8
0
 10
86.7919
 20
10.3554
 11
86.8755
 21
10.4159
  0
LINE
  8
0
 10
86.8755
 20
10.4159
 11
86.9869
 21
10.4968
  0
LINE
  8
0
 10
86.9869
 20
10.4968
 11
87.0702
 21
10.5576
  0
LINE
  8
0
 10
87.0702
 20
10.5576
 11
87.1812
 21
10.639
  0
LINE
  8
0
 10
87.1812
 20
10.639
 11
87.2643
 21
10.7002
  0
LINE
  8
0
 10
87.2643
 20
10.7002
 11
87.3196
 21
10.7411
  0
LINE
  8
0
 10
87.3196
 20
10.7411
 11
87.3749
 21
10.7821
  0
LINE
  8
0
 10
87.3749
 20
10.7821
 11
87.4577
 21
10.8437
  0
LINE
  8
0
 10
87.4577
 20
10.8437
 11
87.5129
 21
10.8848
  0
LINE
  8
0
 10
87.5129
 20
10.8848
 11
87.5955
 21
10.9466
  0
LINE
  8
0
 10
87.5955
 20
10.9466
 11
87.6505
 21
10.9879
  0
LINE
  8
0
 10
87.6505
 20
10.9879
 11
87.7055
 21
11.0293
  0
LINE
  8
0
 10
87.7055
 20
11.0293
 11
87.7604
 21
11.0708
  0
LINE
  8
0
 10
87.7604
 20
11.0708
 11
87.8427
 21
11.1331
  0
LINE
  8
0
 10
87.8427
 20
11.1331
 11
87.9248
 21
11.1955
  0
LINE
  8
0
 10
87.9248
 20
11.1955
 11
88.0069
 21
11.2581
  0
LINE
  8
0
 10
88.0069
 20
11.2581
 11
88.0888
 21
11.3209
  0
LINE
  8
0
 10
88.0888
 20
11.3209
 11
88.1433
 21
11.3628
  0
LINE
  8
0
 10
88.1433
 20
11.3628
 11
88.2251
 21
11.4258
  0
LINE
  8
0
 10
88.2251
 20
11.4258
 11
88.3067
 21
11.489
  0
LINE
  8
0
 10
88.3067
 20
11.489
 11
88.361
 21
11.5312
  0
LINE
  8
0
 10
88.361
 20
11.5312
 11
88.4424
 21
11.5947
  0
LINE
  8
0
 10
88.4424
 20
11.5947
 11
88.5237
 21
11.6582
  0
LINE
  8
0
 10
88.5237
 20
11.6582
 11
88.5778
 21
11.7007
  0
LINE
  8
0
 10
88.5778
 20
11.7007
 11
88.6319
 21
11.7433
  0
LINE
  8
0
 10
88.6319
 20
11.7433
 11
88.6859
 21
11.7859
  0
LINE
  8
0
 10
88.6859
 20
11.7859
 11
88.7668
 21
11.8499
  0
LINE
  8
0
 10
88.7668
 20
11.8499
 11
88.8476
 21
11.9141
  0
LINE
  8
0
 10
88.8476
 20
11.9141
 11
88.9014
 21
11.957
  0
LINE
  8
0
 10
88.9014
 20
11.957
 11
88.982
 21
12.0214
  0
LINE
  8
0
 10
88.982
 20
12.0214
 11
89.0089
 21
12.043
  0
LINE
  8
0
 10
89.0089
 20
12.043
 11
89.0893
 21
12.1076
  0
LINE
  8
0
 10
89.0893
 20
12.1076
 11
89.1696
 21
12.1724
  0
LINE
  8
0
 10
89.1696
 20
12.1724
 11
89.2498
 21
12.2374
  0
LINE
  8
0
 10
89.2498
 20
12.2374
 11
89.3299
 21
12.3025
  0
LINE
  8
0
 10
89.3299
 20
12.3025
 11
89.3832
 21
12.346
  0
LINE
  8
0
 10
89.3832
 20
12.346
 11
89.4631
 21
12.4113
  0
LINE
  8
0
 10
89.4631
 20
12.4113
 11
89.5163
 21
12.455
  0
LINE
  8
0
 10
89.5163
 20
12.455
 11
89.5959
 21
12.5206
  0
LINE
  8
0
 10
89.5959
 20
12.5206
 11
89.649
 21
12.5644
  0
LINE
  8
0
 10
89.649
 20
12.5644
 11
89.7019
 21
12.6083
  0
LINE
  8
0
 10
89.7019
 20
12.6083
 11
89.7813
 21
12.6743
  0
LINE
  8
0
 10
89.7813
 20
12.6743
 11
89.8606
 21
12.7404
  0
LINE
  8
0
 10
89.8606
 20
12.7404
 11
89.9397
 21
12.8066
  0
LINE
  8
0
 10
89.9397
 20
12.8066
 11
90.0187
 21
12.873
  0
LINE
  8
0
 10
90.0187
 20
12.873
 11
90.0976
 21
12.9396
  0
LINE
  8
0
 10
90.0976
 20
12.9396
 11
90.1501
 21
12.984
  0
LINE
  8
0
 10
90.1501
 20
12.984
 11
90.2287
 21
13.0508
  0
LINE
  8
0
 10
90.2287
 20
13.0508
 11
90.2811
 21
13.0954
  0
LINE
  8
0
 10
90.2811
 20
13.0954
 11
90.3596
 21
13.1625
  0
LINE
  8
0
 10
90.3596
 20
13.1625
 11
90.4379
 21
13.2297
  0
LINE
  8
0
 10
90.4379
 20
13.2297
 11
90.49
 21
13.2746
  0
LINE
  8
0
 10
90.49
 20
13.2746
 11
90.5681
 21
13.342
  0
LINE
  8
0
 10
90.5681
 20
13.342
 11
90.6202
 21
13.3871
  0
LINE
  8
0
 10
90.6202
 20
13.3871
 11
90.6721
 21
13.4322
  0
LINE
  8
0
 10
90.6721
 20
13.4322
 11
90.7499
 21
13.5
  0
LINE
  8
0
 10
90.7499
 20
13.5
 11
90.8017
 21
13.5452
  0
LINE
  8
0
 10
90.8017
 20
13.5452
 11
90.8793
 21
13.6133
  0
LINE
  8
0
 10
90.8793
 20
13.6133
 11
90.9052
 21
13.636
  0
LINE
  8
0
 10
90.9052
 20
13.636
 11
90.9826
 21
13.7042
  0
LINE
  8
0
 10
90.9826
 20
13.7042
 11
91.0342
 21
13.7497
  0
LINE
  8
0
 10
91.0342
 20
13.7497
 11
91.1114
 21
13.8182
  0
LINE
  8
0
 10
91.1114
 20
13.8182
 11
91.1628
 21
13.8639
  0
LINE
  8
0
 10
91.1628
 20
13.8639
 11
91.2398
 21
13.9326
  0
LINE
  8
0
 10
91.2398
 20
13.9326
 11
91.2911
 21
13.9785
  0
LINE
  8
0
 10
91.2911
 20
13.9785
 11
91.3678
 21
14.0475
  0
LINE
  8
0
 10
91.3678
 20
14.0475
 11
91.3934
 21
14.0705
  0
LINE
  8
0
 10
91.3934
 20
14.0705
 11
91.4445
 21
14.1166
  0
LINE
  8
0
 10
91.4445
 20
14.1166
 11
91.4955
 21
14.1627
  0
LINE
  8
0
 10
91.4955
 20
14.1627
 11
91.572
 21
14.2321
  0
LINE
  8
0
 10
91.572
 20
14.2321
 11
91.6483
 21
14.3015
  0
LINE
  8
0
 10
91.6483
 20
14.3015
 11
91.7245
 21
14.3712
  0
LINE
  8
0
 10
91.7245
 20
14.3712
 11
91.7752
 21
14.4177
  0
LINE
  8
0
 10
91.7752
 20
14.4177
 11
91.8258
 21
14.4642
  0
LINE
  8
0
 10
91.8258
 20
14.4642
 11
91.8511
 21
14.4875
  0
LINE
  8
0
 10
91.8511
 20
14.4875
 11
91.927
 21
14.5575
  0
LINE
  8
0
 10
91.927
 20
14.5575
 11
92.0027
 21
14.6277
  0
LINE
  8
0
 10
92.0027
 20
14.6277
 11
92.053
 21
14.6745
  0
LINE
  8
0
 10
92.053
 20
14.6745
 11
92.1285
 21
14.7449
  0
LINE
  8
0
 10
92.1285
 20
14.7449
 11
92.2039
 21
14.8154
  0
LINE
  8
0
 10
92.2039
 20
14.8154
 11
92.2791
 21
14.8861
  0
LINE
  8
0
 10
92.2791
 20
14.8861
 11
92.3291
 21
14.9333
  0
LINE
  8
0
 10
92.3291
 20
14.9333
 11
92.4041
 21
15.0042
  0
LINE
  8
0
 10
92.4041
 20
15.0042
 11
92.454
 21
15.0515
  0
LINE
  8
0
 10
92.454
 20
15.0515
 11
92.5288
 21
15.1227
  0
LINE
  8
0
 10
92.5288
 20
15.1227
 11
92.5786
 21
15.1702
  0
LINE
  8
0
 10
92.5786
 20
15.1702
 11
92.6283
 21
15.2178
  0
LINE
  8
0
 10
92.6283
 20
15.2178
 11
92.7027
 21
15.2892
  0
LINE
  8
0
 10
92.7027
 20
15.2892
 11
92.777
 21
15.3608
  0
LINE
  8
0
 10
92.777
 20
15.3608
 11
92.8512
 21
15.4326
  0
LINE
  8
0
 10
92.8512
 20
15.4326
 11
92.9006
 21
15.4805
  0
LINE
  8
0
 10
92.9006
 20
15.4805
 11
92.9499
 21
15.5285
  0
LINE
  8
0
 10
92.9499
 20
15.5285
 11
92.9992
 21
15.5765
  0
LINE
  8
0
 10
92.9992
 20
15.5765
 11
93.0484
 21
15.6246
  0
LINE
  8
0
 10
93.0484
 20
15.6246
 11
93.0975
 21
15.6728
  0
LINE
  8
0
 10
93.0975
 20
15.6728
 11
93.1466
 21
15.721
  0
LINE
  8
0
 10
93.1466
 20
15.721
 11
93.2201
 21
15.7934
  0
LINE
  8
0
 10
93.2201
 20
15.7934
 11
93.269
 21
15.8418
  0
LINE
  8
0
 10
93.269
 20
15.8418
 11
93.3423
 21
15.9145
  0
LINE
  8
0
 10
93.3423
 20
15.9145
 11
93.4154
 21
15.9873
  0
LINE
  8
0
 10
93.4154
 20
15.9873
 11
93.4641
 21
16.0359
  0
LINE
  8
0
 10
93.4641
 20
16.0359
 11
93.537
 21
16.1089
  0
LINE
  8
0
 10
93.537
 20
16.1089
 11
93.5855
 21
16.1577
  0
LINE
  8
0
 10
93.5855
 20
16.1577
 11
93.6582
 21
16.231
  0
LINE
  8
0
 10
93.6582
 20
16.231
 11
93.7066
 21
16.2799
  0
LINE
  8
0
 10
93.7066
 20
16.2799
 11
93.779
 21
16.3534
  0
LINE
  8
0
 10
93.779
 20
16.3534
 11
93.8272
 21
16.4025
  0
LINE
  8
0
 10
93.8272
 20
16.4025
 11
93.8754
 21
16.4516
  0
LINE
  8
0
 10
93.8754
 20
16.4516
 11
93.9235
 21
16.5008
  0
LINE
  8
0
 10
93.9235
 20
16.5008
 11
93.9955
 21
16.5747
  0
LINE
  8
0
 10
93.9955
 20
16.5747
 11
94.0674
 21
16.6488
  0
LINE
  8
0
 10
94.0674
 20
16.6488
 11
94.1392
 21
16.723
  0
LINE
  8
0
 10
94.1392
 20
16.723
 11
94.2108
 21
16.7973
  0
LINE
  8
0
 10
94.2108
 20
16.7973
 11
94.2822
 21
16.8717
  0
LINE
  8
0
 10
94.2822
 20
16.8717
 11
94.3536
 21
16.9463
  0
LINE
  8
0
 10
94.3536
 20
16.9463
 11
94.4485
 21
17.046
  0
LINE
  8
0
 10
94.4485
 20
17.046
 11
94.5195
 21
17.1209
  0
LINE
  8
0
 10
94.5195
 20
17.1209
 11
94.5667
 21
17.1709
  0
LINE
  8
0
 10
94.5667
 20
17.1709
 11
94.6375
 21
17.246
  0
LINE
  8
0
 10
94.6375
 20
17.246
 11
94.6846
 21
17.2961
  0
LINE
  8
0
 10
94.6846
 20
17.2961
 11
94.7551
 21
17.3715
  0
LINE
  8
0
 10
94.7551
 20
17.3715
 11
94.8255
 21
17.447
  0
LINE
  8
0
 10
94.8255
 20
17.447
 11
94.8723
 21
17.4973
  0
LINE
  8
0
 10
94.8723
 20
17.4973
 11
94.9425
 21
17.573
  0
LINE
  8
0
 10
94.9425
 20
17.573
 11
95.0125
 21
17.6489
  0
LINE
  8
0
 10
95.0125
 20
17.6489
 11
95.0823
 21
17.7248
  0
LINE
  8
0
 10
95.0823
 20
17.7248
 11
95.1521
 21
17.8009
  0
LINE
  8
0
 10
95.1521
 20
17.8009
 11
95.2216
 21
17.8771
  0
LINE
  8
0
 10
95.2216
 20
17.8771
 11
95.2679
 21
17.928
  0
LINE
  8
0
 10
95.2679
 20
17.928
 11
95.3373
 21
18.0045
  0
LINE
  8
0
 10
95.3373
 20
18.0045
 11
95.3834
 21
18.0555
  0
LINE
  8
0
 10
95.3834
 20
18.0555
 11
95.4295
 21
18.1066
  0
LINE
  8
0
 10
95.4295
 20
18.1066
 11
95.4755
 21
18.1577
  0
LINE
  8
0
 10
95.4755
 20
18.1577
 11
95.5215
 21
18.2089
  0
LINE
  8
0
 10
95.5215
 20
18.2089
 11
95.5903
 21
18.2859
  0
LINE
  8
0
 10
95.5903
 20
18.2859
 11
95.6589
 21
18.3629
  0
LINE
  8
0
 10
95.6589
 20
18.3629
 11
95.7274
 21
18.4401
  0
LINE
  8
0
 10
95.7274
 20
18.4401
 11
95.7503
 21
18.4658
  0
LINE
  8
0
 10
95.7503
 20
18.4658
 11
95.7958
 21
18.5174
  0
LINE
  8
0
 10
95.7958
 20
18.5174
 11
95.864
 21
18.5948
  0
LINE
  8
0
 10
95.864
 20
18.5948
 11
95.9321
 21
18.6724
  0
LINE
  8
0
 10
95.9321
 20
18.6724
 11
96
 21
18.7501
  0
LINE
  8
0
 10
96
 20
18.7501
 11
96.0678
 21
18.8279
  0
LINE
  8
0
 10
96.0678
 20
18.8279
 11
96.1129
 21
18.8798
  0
LINE
  8
0
 10
96.1129
 20
18.8798
 11
96.1805
 21
18.9579
  0
LINE
  8
0
 10
96.1805
 20
18.9579
 11
96.2254
 21
19.01
  0
LINE
  8
0
 10
96.2254
 20
19.01
 11
96.2927
 21
19.0882
  0
LINE
  8
0
 10
96.2927
 20
19.0882
 11
96.3375
 21
19.1404
  0
LINE
  8
0
 10
96.3375
 20
19.1404
 11
96.4046
 21
19.2189
  0
LINE
  8
0
 10
96.4046
 20
19.2189
 11
96.4715
 21
19.2975
  0
LINE
  8
0
 10
96.4715
 20
19.2975
 11
96.516
 21
19.3499
  0
LINE
  8
0
 10
96.516
 20
19.3499
 11
96.5604
 21
19.4024
  0
LINE
  8
0
 10
96.5604
 20
19.4024
 11
96.627
 21
19.4813
  0
LINE
  8
0
 10
96.627
 20
19.4813
 11
96.6934
 21
19.5603
  0
LINE
  8
0
 10
96.6934
 20
19.5603
 11
96.7596
 21
19.6394
  0
LINE
  8
0
 10
96.7596
 20
19.6394
 11
96.8257
 21
19.7187
  0
LINE
  8
0
 10
96.8257
 20
19.7187
 11
96.8917
 21
19.7981
  0
LINE
  8
0
 10
96.8917
 20
19.7981
 11
96.9356
 21
19.851
  0
LINE
  8
0
 10
96.9356
 20
19.851
 11
96.9794
 21
19.9041
  0
LINE
  8
0
 10
96.9794
 20
19.9041
 11
97.045
 21
19.9837
  0
LINE
  8
0
 10
97.045
 20
19.9837
 11
97.0887
 21
20.0369
  0
LINE
  8
0
 10
97.0887
 20
20.0369
 11
97.154
 21
20.1168
  0
LINE
  8
0
 10
97.154
 20
20.1168
 11
97.1975
 21
20.1701
  0
LINE
  8
0
 10
97.1975
 20
20.1701
 11
97.2626
 21
20.2502
  0
LINE
  8
0
 10
97.2626
 20
20.2502
 11
97.3276
 21
20.3304
  0
LINE
  8
0
 10
97.3276
 20
20.3304
 11
97.3924
 21
20.4107
  0
LINE
  8
0
 10
97.3924
 20
20.4107
 11
97.457
 21
20.4911
  0
LINE
  8
0
 10
97.457
 20
20.4911
 11
97.5215
 21
20.5717
  0
LINE
  8
0
 10
97.5215
 20
20.5717
 11
97.543
 21
20.5986
  0
LINE
  8
0
 10
97.543
 20
20.5986
 11
97.5859
 21
20.6524
  0
LINE
  8
0
 10
97.5859
 20
20.6524
 11
97.6287
 21
20.7062
  0
LINE
  8
0
 10
97.6287
 20
20.7062
 11
97.6928
 21
20.7871
  0
LINE
  8
0
 10
97.6928
 20
20.7871
 11
97.7567
 21
20.8681
  0
LINE
  8
0
 10
97.7567
 20
20.8681
 11
97.7993
 21
20.9222
  0
LINE
  8
0
 10
97.7993
 20
20.9222
 11
97.8418
 21
20.9763
  0
LINE
  8
0
 10
97.8418
 20
20.9763
 11
97.9053
 21
21.0576
  0
LINE
  8
0
 10
97.9053
 20
21.0576
 11
97.9688
 21
21.139
  0
LINE
  8
0
 10
97.9688
 20
21.139
 11
98.011
 21
21.1933
  0
LINE
  8
0
 10
98.011
 20
21.1933
 11
98.0742
 21
21.2749
  0
LINE
  8
0
 10
98.0742
 20
21.2749
 11
98.1372
 21
21.3567
  0
LINE
  8
0
 10
98.1372
 20
21.3567
 11
98.1791
 21
21.4112
  0
LINE
  8
0
 10
98.1791
 20
21.4112
 11
98.221
 21
21.4658
  0
LINE
  8
0
 10
98.221
 20
21.4658
 11
98.2836
 21
21.5478
  0
LINE
  8
0
 10
98.2836
 20
21.5478
 11
98.3253
 21
21.6026
  0
LINE
  8
0
 10
98.3253
 20
21.6026
 11
98.3669
 21
21.6573
  0
LINE
  8
0
 10
98.3669
 20
21.6573
 11
98.4292
 21
21.7396
  0
LINE
  8
0
 10
98.4292
 20
21.7396
 11
98.4707
 21
21.7945
  0
LINE
  8
0
 10
98.4707
 20
21.7945
 11
98.5327
 21
21.877
  0
LINE
  8
0
 10
98.5327
 20
21.877
 11
98.5946
 21
21.9596
  0
LINE
  8
0
 10
98.5946
 20
21.9596
 11
98.6358
 21
22.0147
  0
LINE
  8
0
 10
98.6358
 20
22.0147
 11
98.6974
 21
22.0975
  0
LINE
  8
0
 10
98.6974
 20
22.0975
 11
98.7589
 21
22.1804
  0
LINE
  8
0
 10
98.7589
 20
22.1804
 11
98.7998
 21
22.2357
  0
LINE
  8
0
 10
98.7998
 20
22.2357
 11
98.8406
 21
22.2911
  0
LINE
  8
0
 10
98.8406
 20
22.2911
 11
98.9017
 21
22.3743
  0
LINE
  8
0
 10
98.9017
 20
22.3743
 11
98.9424
 21
22.4298
  0
LINE
  8
0
 10
98.9424
 20
22.4298
 11
99.0032
 21
22.5131
  0
LINE
  8
0
 10
99.0032
 20
22.5131
 11
99.0639
 21
22.5966
  0
LINE
  8
0
 10
99.0639
 20
22.5966
 11
99.1244
 21
22.6802
  0
LINE
  8
0
 10
99.1244
 20
22.6802
 11
99.1446
 21
22.7081
  0
LINE
  8
0
 10
99.1446
 20
22.7081
 11
99.2049
 21
22.7918
  0
LINE
  8
0
 10
99.2049
 20
22.7918
 11
99.265
 21
22.8757
  0
LINE
  8
0
 10
99.265
 20
22.8757
 11
99.325
 21
22.9596
  0
LINE
  8
0
 10
99.325
 20
22.9596
 11
99.3849
 21
23.0437
  0
LINE
  8
0
 10
99.3849
 20
23.0437
 11
99.4446
 21
23.1279
  0
LINE
  8
0
 10
99.4446
 20
23.1279
 11
99.5041
 21
23.2122
  0
LINE
  8
0
 10
99.5041
 20
23.2122
 11
99.5635
 21
23.2966
  0
LINE
  8
0
 10
99.5635
 20
23.2966
 11
99.6227
 21
23.3811
  0
LINE
  8
0
 10
99.6227
 20
23.3811
 11
99.6817
 21
23.4658
  0
LINE
  8
0
 10
99.6817
 20
23.4658
 11
99.7014
 21
23.494
  0
LINE
  8
0
 10
99.7014
 20
23.494
 11
99.7406
 21
23.5505
  0
LINE
  8
0
 10
99.7406
 20
23.5505
 11
99.7798
 21
23.6071
  0
LINE
  8
0
 10
99.7798
 20
23.6071
 11
99.8384
 21
23.692
  0
LINE
  8
0
 10
99.8384
 20
23.692
 11
99.8969
 21
23.7771
  0
LINE
  8
0
 10
99.8969
 20
23.7771
 11
99.9552
 21
23.8622
  0
LINE
  8
0
 10
99.9552
 20
23.8622
 11
100.013
 21
23.9475
  0
LINE
  8
0
 10
100.013
 20
23.9475
 11
100.052
 21
24.0044
  0
LINE
  8
0
 10
100.052
 20
24.0044
 11
100.11
 21
24.0898
  0
LINE
  8
0
 10
100.11
 20
24.0898
 11
100.168
 21
24.1754
  0
LINE
  8
0
 10
100.168
 20
24.1754
 11
100.225
 21
24.2611
  0
LINE
  8
0
 10
100.225
 20
24.2611
 11
100.263
 21
24.3182
  0
LINE
  8
0
 10
100.263
 20
24.3182
 11
100.302
 21
24.3755
  0
LINE
  8
0
 10
100.302
 20
24.3755
 11
100.359
 21
24.4614
  0
LINE
  8
0
 10
100.359
 20
24.4614
 11
100.397
 21
24.5187
  0
LINE
  8
0
 10
100.397
 20
24.5187
 11
100.454
 21
24.6048
  0
LINE
  8
0
 10
100.454
 20
24.6048
 11
100.51
 21
24.691
  0
LINE
  8
0
 10
100.51
 20
24.691
 11
100.548
 21
24.7485
  0
LINE
  8
0
 10
100.548
 20
24.7485
 11
100.605
 21
24.8349
  0
LINE
  8
0
 10
100.605
 20
24.8349
 11
100.661
 21
24.9214
  0
LINE
  8
0
 10
100.661
 20
24.9214
 11
100.717
 21
25.008
  0
LINE
  8
0
 10
100.717
 20
25.008
 11
100.773
 21
25.0947
  0
LINE
  8
0
 10
100.773
 20
25.0947
 11
100.81
 21
25.1526
  0
LINE
  8
0
 10
100.81
 20
25.1526
 11
100.866
 21
25.2394
  0
LINE
  8
0
 10
100.866
 20
25.2394
 11
100.922
 21
25.3264
  0
LINE
  8
0
 10
100.922
 20
25.3264
 11
100.959
 21
25.3844
  0
LINE
  8
0
 10
100.959
 20
25.3844
 11
100.995
 21
25.4425
  0
LINE
  8
0
 10
100.995
 20
25.4425
 11
101.032
 21
25.5007
  0
LINE
  8
0
 10
101.032
 20
25.5007
 11
101.087
 21
25.588
  0
LINE
  8
0
 10
101.087
 20
25.588
 11
101.142
 21
25.6754
  0
LINE
  8
0
 10
101.142
 20
25.6754
 11
101.179
 21
25.7337
  0
LINE
  8
0
 10
101.179
 20
25.7337
 11
101.233
 21
25.8213
  0
LINE
  8
0
 10
101.233
 20
25.8213
 11
101.27
 21
25.8797
  0
LINE
  8
0
 10
101.27
 20
25.8797
 11
101.324
 21
25.9674
  0
LINE
  8
0
 10
101.324
 20
25.9674
 11
101.36
 21
26.026
  0
LINE
  8
0
 10
101.36
 20
26.026
 11
101.396
 21
26.0846
  0
LINE
  8
0
 10
101.396
 20
26.0846
 11
101.45
 21
26.1725
  0
LINE
  8
0
 10
101.45
 20
26.1725
 11
101.486
 21
26.2313
  0
LINE
  8
0
 10
101.486
 20
26.2313
 11
101.522
 21
26.29
  0
LINE
  8
0
 10
101.522
 20
26.29
 11
101.575
 21
26.3782
  0
LINE
  8
0
 10
101.575
 20
26.3782
 11
101.629
 21
26.4665
  0
LINE
  8
0
 10
101.629
 20
26.4665
 11
101.682
 21
26.5549
  0
LINE
  8
0
 10
101.682
 20
26.5549
 11
101.735
 21
26.6435
  0
LINE
  8
0
 10
101.735
 20
26.6435
 11
101.788
 21
26.7321
  0
LINE
  8
0
 10
101.788
 20
26.7321
 11
101.841
 21
26.8208
  0
LINE
  8
0
 10
101.841
 20
26.8208
 11
101.876
 21
26.88
  0
LINE
  8
0
 10
101.876
 20
26.88
 11
101.893
 21
26.9096
  0
LINE
  8
0
 10
101.893
 20
26.9096
 11
101.928
 21
26.9689
  0
LINE
  8
0
 10
101.928
 20
26.9689
 11
101.98
 21
27.0578
  0
LINE
  8
0
 10
101.98
 20
27.0578
 11
102.032
 21
27.1469
  0
LINE
  8
0
 10
102.032
 20
27.1469
 11
102.084
 21
27.2361
  0
LINE
  8
0
 10
102.084
 20
27.2361
 11
102.136
 21
27.3254
  0
LINE
  8
0
 10
102.136
 20
27.3254
 11
102.188
 21
27.4147
  0
LINE
  8
0
 10
102.188
 20
27.4147
 11
102.205
 21
27.4445
  0
LINE
  8
0
 10
102.205
 20
27.4445
 11
102.256
 21
27.534
  0
LINE
  8
0
 10
102.256
 20
27.534
 11
102.308
 21
27.6236
  0
LINE
  8
0
 10
102.308
 20
27.6236
 11
102.359
 21
27.7133
  0
LINE
  8
0
 10
102.359
 20
27.7133
 11
102.41
 21
27.8031
  0
LINE
  8
0
 10
102.41
 20
27.8031
 11
102.426
 21
27.8331
  0
LINE
  8
0
 10
102.426
 20
27.8331
 11
102.46
 21
27.893
  0
LINE
  8
0
 10
102.46
 20
27.893
 11
102.511
 21
27.983
  0
LINE
  8
0
 10
102.511
 20
27.983
 11
102.561
 21
28.0731
  0
LINE
  8
0
 10
102.561
 20
28.0731
 11
102.595
 21
28.1332
  0
LINE
  8
0
 10
102.595
 20
28.1332
 11
102.645
 21
28.2234
  0
LINE
  8
0
 10
102.645
 20
28.2234
 11
102.678
 21
28.2836
  0
LINE
  8
0
 10
102.678
 20
28.2836
 11
102.728
 21
28.374
  0
LINE
  8
0
 10
102.728
 20
28.374
 11
102.777
 21
28.4645
  0
LINE
  8
0
 10
102.777
 20
28.4645
 11
102.827
 21
28.5551
  0
LINE
  8
0
 10
102.827
 20
28.5551
 11
102.876
 21
28.6457
  0
LINE
  8
0
 10
102.876
 20
28.6457
 11
102.925
 21
28.7365
  0
LINE
  8
0
 10
102.925
 20
28.7365
 11
102.974
 21
28.8273
  0
LINE
  8
0
 10
102.974
 20
28.8273
 11
103.007
 21
28.888
  0
LINE
  8
0
 10
103.007
 20
28.888
 11
103.055
 21
28.979
  0
LINE
  8
0
 10
103.055
 20
28.979
 11
103.088
 21
29.0397
  0
LINE
  8
0
 10
103.088
 20
29.0397
 11
103.12
 21
29.1004
  0
LINE
  8
0
 10
103.12
 20
29.1004
 11
103.152
 21
29.1613
  0
LINE
  8
0
 10
103.152
 20
29.1613
 11
103.184
 21
29.2221
  0
LINE
  8
0
 10
103.184
 20
29.2221
 11
103.232
 21
29.3134
  0
LINE
  8
0
 10
103.232
 20
29.3134
 11
103.264
 21
29.3744
  0
LINE
  8
0
 10
103.264
 20
29.3744
 11
103.312
 21
29.4659
  0
LINE
  8
0
 10
103.312
 20
29.4659
 11
103.36
 21
29.5575
  0
LINE
  8
0
 10
103.36
 20
29.5575
 11
103.391
 21
29.6186
  0
LINE
  8
0
 10
103.391
 20
29.6186
 11
103.439
 21
29.7103
  0
LINE
  8
0
 10
103.439
 20
29.7103
 11
103.486
 21
29.8021
  0
LINE
  8
0
 10
103.486
 20
29.8021
 11
103.533
 21
29.894
  0
LINE
  8
0
 10
103.533
 20
29.894
 11
103.564
 21
29.9554
  0
LINE
  8
0
 10
103.564
 20
29.9554
 11
103.61
 21
30.0474
  0
LINE
  8
0
 10
103.61
 20
30.0474
 11
103.657
 21
30.1395
  0
LINE
  8
0
 10
103.657
 20
30.1395
 11
103.703
 21
30.2318
  0
LINE
  8
0
 10
103.703
 20
30.2318
 11
103.719
 21
30.2625
  0
LINE
  8
0
 10
103.719
 20
30.2625
 11
103.749
 21
30.3241
  0
LINE
  8
0
 10
103.749
 20
30.3241
 11
103.78
 21
30.3857
  0
LINE
  8
0
 10
103.78
 20
30.3857
 11
103.826
 21
30.4781
  0
LINE
  8
0
 10
103.826
 20
30.4781
 11
103.856
 21
30.5398
  0
LINE
  8
0
 10
103.856
 20
30.5398
 11
103.902
 21
30.6324
  0
LINE
  8
0
 10
103.902
 20
30.6324
 11
103.932
 21
30.6942
  0
LINE
  8
0
 10
103.932
 20
30.6942
 11
103.977
 21
30.787
  0
LINE
  8
0
 10
103.977
 20
30.787
 11
104.007
 21
30.8489
  0
LINE
  8
0
 10
104.007
 20
30.8489
 11
104.037
 21
30.9108
  0
LINE
  8
0
 10
104.037
 20
30.9108
 11
104.082
 21
31.0037
  0
LINE
  8
0
 10
104.082
 20
31.0037
 11
104.112
 21
31.0657
  0
LINE
  8
0
 10
104.112
 20
31.0657
 11
104.157
 21
31.1588
  0
LINE
  8
0
 10
104.157
 20
31.1588
 11
104.186
 21
31.2209
  0
LINE
  8
0
 10
104.186
 20
31.2209
 11
104.231
 21
31.3142
  0
LINE
  8
0
 10
104.231
 20
31.3142
 11
104.275
 21
31.4075
  0
LINE
  8
0
 10
104.275
 20
31.4075
 11
104.304
 21
31.4697
  0
LINE
  8
0
 10
104.304
 20
31.4697
 11
104.333
 21
31.532
  0
LINE
  8
0
 10
104.333
 20
31.532
 11
104.377
 21
31.6255
  0
LINE
  8
0
 10
104.377
 20
31.6255
 11
104.406
 21
31.6879
  0
LINE
  8
0
 10
104.406
 20
31.6879
 11
104.435
 21
31.7503
  0
LINE
  8
0
 10
104.435
 20
31.7503
 11
104.478
 21
31.844
  0
LINE
  8
0
 10
104.478
 20
31.844
 11
104.507
 21
31.9065
  0
LINE
  8
0
 10
104.507
 20
31.9065
 11
104.535
 21
31.9691
  0
LINE
  8
0
 10
104.535
 20
31.9691
 11
104.578
 21
32.0629
  0
LINE
  8
0
 10
104.578
 20
32.0629
 11
104.621
 21
32.1569
  0
LINE
  8
0
 10
104.621
 20
32.1569
 11
104.649
 21
32.2196
  0
LINE
  8
0
 10
104.649
 20
32.2196
 11
104.678
 21
32.2823
  0
LINE
  8
0
 10
104.678
 20
32.2823
 11
104.72
 21
32.3765
  0
LINE
  8
0
 10
104.72
 20
32.3765
 11
104.762
 21
32.4707
  0
LINE
  8
0
 10
104.762
 20
32.4707
 11
104.79
 21
32.5336
  0
LINE
  8
0
 10
104.79
 20
32.5336
 11
104.818
 21
32.5965
  0
LINE
  8
0
 10
104.818
 20
32.5965
 11
104.846
 21
32.6594
  0
LINE
  8
0
 10
104.846
 20
32.6594
 11
104.887
 21
32.7539
  0
LINE
  8
0
 10
104.887
 20
32.7539
 11
104.915
 21
32.8169
  0
LINE
  8
0
 10
104.915
 20
32.8169
 11
104.956
 21
32.9115
  0
LINE
  8
0
 10
104.956
 20
32.9115
 11
104.983
 21
32.9746
  0
LINE
  8
0
 10
104.983
 20
32.9746
 11
105.011
 21
33.0377
  0
LINE
  8
0
 10
105.011
 20
33.0377
 11
105.052
 21
33.1325
  0
LINE
  8
0
 10
105.052
 20
33.1325
 11
105.079
 21
33.1957
  0
LINE
  8
0
 10
105.079
 20
33.1957
 11
105.119
 21
33.2906
  0
LINE
  8
0
 10
105.119
 20
33.2906
 11
105.16
 21
33.3856
  0
LINE
  8
0
 10
105.16
 20
33.3856
 11
105.186
 21
33.449
  0
LINE
  8
0
 10
105.186
 20
33.449
 11
105.226
 21
33.5441
  0
LINE
  8
0
 10
105.226
 20
33.5441
 11
105.253
 21
33.6075
  0
LINE
  8
0
 10
105.253
 20
33.6075
 11
105.293
 21
33.7028
  0
LINE
  8
0
 10
105.293
 20
33.7028
 11
105.319
 21
33.7663
  0
LINE
  8
0
 10
105.319
 20
33.7663
 11
105.359
 21
33.8617
  0
LINE
  8
0
 10
105.359
 20
33.8617
 11
105.411
 21
33.9889
  0
LINE
  8
0
 10
105.411
 20
33.9889
 11
105.45
 21
34.0845
  0
LINE
  8
0
 10
105.45
 20
34.0845
 11
105.489
 21
34.1801
  0
LINE
  8
0
 10
105.489
 20
34.1801
 11
105.528
 21
34.2757
  0
LINE
  8
0
 10
105.528
 20
34.2757
 11
105.566
 21
34.3715
  0
LINE
  8
0
 10
105.566
 20
34.3715
 11
105.592
 21
34.4354
  0
LINE
  8
0
 10
105.592
 20
34.4354
 11
105.617
 21
34.4993
  0
LINE
  8
0
 10
105.617
 20
34.4993
 11
105.655
 21
34.5952
  0
LINE
  8
0
 10
105.655
 20
34.5952
 11
105.693
 21
34.6912
  0
LINE
  8
0
 10
105.693
 20
34.6912
 11
105.731
 21
34.7872
  0
LINE
  8
0
 10
105.731
 20
34.7872
 11
105.768
 21
34.8834
  0
LINE
  8
0
 10
105.768
 20
34.8834
 11
105.806
 21
34.9796
  0
LINE
  8
0
 10
105.806
 20
34.9796
 11
105.831
 21
35.0437
  0
LINE
  8
0
 10
105.831
 20
35.0437
 11
105.868
 21
35.1401
  0
LINE
  8
0
 10
105.868
 20
35.1401
 11
105.904
 21
35.2365
  0
LINE
  8
0
 10
105.904
 20
35.2365
 11
105.929
 21
35.3008
  0
LINE
  8
0
 10
105.929
 20
35.3008
 11
105.953
 21
35.3651
  0
LINE
  8
0
 10
105.953
 20
35.3651
 11
105.978
 21
35.4294
  0
LINE
  8
0
 10
105.978
 20
35.4294
 11
106.002
 21
35.4938
  0
LINE
  8
0
 10
106.002
 20
35.4938
 11
106.038
 21
35.5905
  0
LINE
  8
0
 10
106.038
 20
35.5905
 11
106.074
 21
35.6872
  0
LINE
  8
0
 10
106.074
 20
35.6872
 11
106.11
 21
35.784
  0
LINE
  8
0
 10
106.11
 20
35.784
 11
106.146
 21
35.8808
  0
LINE
  8
0
 10
106.146
 20
35.8808
 11
106.181
 21
35.9777
  0
LINE
  8
0
 10
106.181
 20
35.9777
 11
106.216
 21
36.0747
  0
LINE
  8
0
 10
106.216
 20
36.0747
 11
106.252
 21
36.1717
  0
LINE
  8
0
 10
106.252
 20
36.1717
 11
106.286
 21
36.2689
  0
LINE
  8
0
 10
106.286
 20
36.2689
 11
106.321
 21
36.366
  0
LINE
  8
0
 10
106.321
 20
36.366
 11
106.356
 21
36.4633
  0
LINE
  8
0
 10
106.356
 20
36.4633
 11
106.39
 21
36.5606
  0
LINE
  8
0
 10
106.39
 20
36.5606
 11
106.424
 21
36.658
  0
LINE
  8
0
 10
106.424
 20
36.658
 11
106.458
 21
36.7554
  0
LINE
  8
0
 10
106.458
 20
36.7554
 11
106.492
 21
36.8529
  0
LINE
  8
0
 10
106.492
 20
36.8529
 11
106.515
 21
36.9179
  0
LINE
  8
0
 10
106.515
 20
36.9179
 11
106.537
 21
36.983
  0
LINE
  8
0
 10
106.537
 20
36.983
 11
106.57
 21
37.0806
  0
LINE
  8
0
 10
106.57
 20
37.0806
 11
106.593
 21
37.1458
  0
LINE
  8
0
 10
106.593
 20
37.1458
 11
106.626
 21
37.2435
  0
LINE
  8
0
 10
106.626
 20
37.2435
 11
106.648
 21
37.3087
  0
LINE
  8
0
 10
106.648
 20
37.3087
 11
106.68
 21
37.4066
  0
LINE
  8
0
 10
106.68
 20
37.4066
 11
106.702
 21
37.4718
  0
LINE
  8
0
 10
106.702
 20
37.4718
 11
106.735
 21
37.5698
  0
LINE
  8
0
 10
106.735
 20
37.5698
 11
106.756
 21
37.6351
  0
LINE
  8
0
 10
106.756
 20
37.6351
 11
106.788
 21
37.7332
  0
LINE
  8
0
 10
106.788
 20
37.7332
 11
106.799
 21
37.7659
  0
LINE
  8
0
 10
106.799
 20
37.7659
 11
106.831
 21
37.864
  0
LINE
  8
0
 10
106.831
 20
37.864
 11
106.852
 21
37.9295
  0
LINE
  8
0
 10
106.852
 20
37.9295
 11
106.884
 21
38.0277
  0
LINE
  8
0
 10
106.884
 20
38.0277
 11
106.905
 21
38.0933
  0
LINE
  8
0
 10
106.905
 20
38.0933
 11
106.926
 21
38.1588
  0
LINE
  8
0
 10
106.926
 20
38.1588
 11
106.946
 21
38.2244
  0
LINE
  8
0
 10
106.946
 20
38.2244
 11
106.967
 21
38.29
  0
LINE
  8
0
 10
106.967
 20
38.29
 11
106.988
 21
38.3556
  0
LINE
  8
0
 10
106.988
 20
38.3556
 11
107.019
 21
38.4541
  0
LINE
  8
0
 10
107.019
 20
38.4541
 11
107.049
 21
38.5527
  0
LINE
  8
0
 10
107.049
 20
38.5527
 11
107.08
 21
38.6513
  0
LINE
  8
0
 10
107.08
 20
38.6513
 11
107.1
 21
38.7171
  0
LINE
  8
0
 10
107.1
 20
38.7171
 11
107.13
 21
38.8158
  0
LINE
  8
0
 10
107.13
 20
38.8158
 11
107.15
 21
38.8816
  0
LINE
  8
0
 10
107.15
 20
38.8816
 11
107.18
 21
38.9804
  0
LINE
  8
0
 10
107.18
 20
38.9804
 11
107.209
 21
39.0793
  0
LINE
  8
0
 10
107.209
 20
39.0793
 11
107.239
 21
39.1782
  0
LINE
  8
0
 10
107.239
 20
39.1782
 11
107.268
 21
39.2771
  0
LINE
  8
0
 10
107.268
 20
39.2771
 11
107.288
 21
39.3432
  0
LINE
  8
0
 10
107.288
 20
39.3432
 11
107.316
 21
39.4422
  0
LINE
  8
0
 10
107.316
 20
39.4422
 11
107.345
 21
39.5413
  0
LINE
  8
0
 10
107.345
 20
39.5413
 11
107.374
 21
39.6405
  0
LINE
  8
0
 10
107.374
 20
39.6405
 11
107.402
 21
39.7397
  0
LINE
  8
0
 10
107.402
 20
39.7397
 11
107.43
 21
39.839
  0
LINE
  8
0
 10
107.43
 20
39.839
 11
107.458
 21
39.9383
  0
LINE
  8
0
 10
107.458
 20
39.9383
 11
107.477
 21
40.0046
  0
LINE
  8
0
 10
107.477
 20
40.0046
 11
107.505
 21
40.104
  0
LINE
  8
0
 10
107.505
 20
40.104
 11
107.523
 21
40.1703
  0
LINE
  8
0
 10
107.523
 20
40.1703
 11
107.55
 21
40.2698
  0
LINE
  8
0
 10
107.55
 20
40.2698
 11
107.578
 21
40.3693
  0
LINE
  8
0
 10
107.578
 20
40.3693
 11
107.596
 21
40.4357
  0
LINE
  8
0
 10
107.596
 20
40.4357
 11
107.623
 21
40.5354
  0
LINE
  8
0
 10
107.623
 20
40.5354
 11
107.649
 21
40.6351
  0
LINE
  8
0
 10
107.649
 20
40.6351
 11
107.676
 21
40.7348
  0
LINE
  8
0
 10
107.676
 20
40.7348
 11
107.693
 21
40.8013
  0
LINE
  8
0
 10
107.693
 20
40.8013
 11
107.72
 21
40.9011
  0
LINE
  8
0
 10
107.72
 20
40.9011
 11
107.746
 21
41.001
  0
LINE
  8
0
 10
107.746
 20
41.001
 11
107.771
 21
41.1009
  0
LINE
  8
0
 10
107.771
 20
41.1009
 11
107.788
 21
41.1676
  0
LINE
  8
0
 10
107.788
 20
41.1676
 11
107.814
 21
41.2676
  0
LINE
  8
0
 10
107.814
 20
41.2676
 11
107.839
 21
41.3676
  0
LINE
  8
0
 10
107.839
 20
41.3676
 11
107.864
 21
41.4677
  0
LINE
  8
0
 10
107.864
 20
41.4677
 11
107.881
 21
41.5345
  0
LINE
  8
0
 10
107.881
 20
41.5345
 11
107.898
 21
41.6012
  0
LINE
  8
0
 10
107.898
 20
41.6012
 11
107.922
 21
41.7014
  0
LINE
  8
0
 10
107.922
 20
41.7014
 11
107.939
 21
41.7683
  0
LINE
  8
0
 10
107.939
 20
41.7683
 11
107.963
 21
41.8685
  0
LINE
  8
0
 10
107.963
 20
41.8685
 11
107.987
 21
41.9689
  0
LINE
  8
0
 10
107.987
 20
41.9689
 11
108.011
 21
42.0692
  0
LINE
  8
0
 10
108.011
 20
42.0692
 11
108.035
 21
42.1697
  0
LINE
  8
0
 10
108.035
 20
42.1697
 11
108.059
 21
42.2701
  0
LINE
  8
0
 10
108.059
 20
42.2701
 11
108.074
 21
42.3371
  0
LINE
  8
0
 10
108.074
 20
42.3371
 11
108.098
 21
42.4377
  0
LINE
  8
0
 10
108.098
 20
42.4377
 11
108.121
 21
42.5382
  0
LINE
  8
0
 10
108.121
 20
42.5382
 11
108.136
 21
42.6053
  0
LINE
  8
0
 10
108.136
 20
42.6053
 11
108.159
 21
42.706
  0
LINE
  8
0
 10
108.159
 20
42.706
 11
108.181
 21
42.8067
  0
LINE
  8
0
 10
108.181
 20
42.8067
 11
108.189
 21
42.8402
  0
LINE
  8
0
 10
108.189
 20
42.8402
 11
108.211
 21
42.941
  0
LINE
  8
0
 10
108.211
 20
42.941
 11
108.233
 21
43.0418
  0
LINE
  8
0
 10
108.233
 20
43.0418
 11
108.248
 21
43.109
  0
LINE
  8
0
 10
108.248
 20
43.109
 11
108.263
 21
43.1762
  0
LINE
  8
0
 10
108.263
 20
43.1762
 11
108.284
 21
43.2771
  0
LINE
  8
0
 10
108.284
 20
43.2771
 11
108.306
 21
43.3781
  0
LINE
  8
0
 10
108.306
 20
43.3781
 11
108.327
 21
43.479
  0
LINE
  8
0
 10
108.327
 20
43.479
 11
108.348
 21
43.58
  0
LINE
  8
0
 10
108.348
 20
43.58
 11
108.362
 21
43.6474
  0
LINE
  8
0
 10
108.362
 20
43.6474
 11
108.376
 21
43.7148
  0
LINE
  8
0
 10
108.376
 20
43.7148
 11
108.39
 21
43.7822
  0
LINE
  8
0
 10
108.39
 20
43.7822
 11
108.404
 21
43.8496
  0
LINE
  8
0
 10
108.404
 20
43.8496
 11
108.418
 21
43.917
  0
LINE
  8
0
 10
108.418
 20
43.917
 11
108.438
 21
44.0182
  0
LINE
  8
0
 10
108.438
 20
44.0182
 11
108.451
 21
44.0857
  0
LINE
  8
0
 10
108.451
 20
44.0857
 11
108.471
 21
44.1869
  0
LINE
  8
0
 10
108.471
 20
44.1869
 11
108.491
 21
44.2882
  0
LINE
  8
0
 10
108.491
 20
44.2882
 11
108.504
 21
44.3557
  0
LINE
  8
0
 10
108.504
 20
44.3557
 11
108.517
 21
44.4233
  0
LINE
  8
0
 10
108.517
 20
44.4233
 11
108.537
 21
44.5247
  0
LINE
  8
0
 10
108.537
 20
44.5247
 11
108.549
 21
44.5923
  0
LINE
  8
0
 10
108.549
 20
44.5923
 11
108.569
 21
44.6937
  0
LINE
  8
0
 10
108.569
 20
44.6937
 11
108.587
 21
44.7952
  0
LINE
  8
0
 10
108.587
 20
44.7952
 11
108.606
 21
44.8967
  0
LINE
  8
0
 10
108.606
 20
44.8967
 11
108.625
 21
44.9982
  0
LINE
  8
0
 10
108.625
 20
44.9982
 11
108.643
 21
45.0998
  0
LINE
  8
0
 10
108.643
 20
45.0998
 11
108.661
 21
45.2014
  0
LINE
  8
0
 10
108.661
 20
45.2014
 11
108.679
 21
45.303
  0
LINE
  8
0
 10
108.679
 20
45.303
 11
108.697
 21
45.4047
  0
LINE
  8
0
 10
108.697
 20
45.4047
 11
108.708
 21
45.4725
  0
LINE
  8
0
 10
108.708
 20
45.4725
 11
108.72
 21
45.5403
  0
LINE
  8
0
 10
108.72
 20
45.5403
 11
108.731
 21
45.6081
  0
LINE
  8
0
 10
108.731
 20
45.6081
 11
108.743
 21
45.6759
  0
LINE
  8
0
 10
108.743
 20
45.6759
 11
108.76
 21
45.7777
  0
LINE
  8
0
 10
108.76
 20
45.7777
 11
108.777
 21
45.8796
  0
LINE
  8
0
 10
108.777
 20
45.8796
 11
108.793
 21
45.9814
  0
LINE
  8
0
 10
108.793
 20
45.9814
 11
108.81
 21
46.0833
  0
LINE
  8
0
 10
108.81
 20
46.0833
 11
108.821
 21
46.1512
  0
LINE
  8
0
 10
108.821
 20
46.1512
 11
108.837
 21
46.2532
  0
LINE
  8
0
 10
108.837
 20
46.2532
 11
108.847
 21
46.3212
  0
LINE
  8
0
 10
108.847
 20
46.3212
 11
108.863
 21
46.4231
  0
LINE
  8
0
 10
108.863
 20
46.4231
 11
108.868
 21
46.4571
  0
LINE
  8
0
 10
108.868
 20
46.4571
 11
108.884
 21
46.5592
  0
LINE
  8
0
 10
108.884
 20
46.5592
 11
108.894
 21
46.6272
  0
LINE
  8
0
 10
108.894
 20
46.6272
 11
108.909
 21
46.7293
  0
LINE
  8
0
 10
108.909
 20
46.7293
 11
108.924
 21
46.8314
  0
LINE
  8
0
 10
108.924
 20
46.8314
 11
108.934
 21
46.8995
  0
LINE
  8
0
 10
108.934
 20
46.8995
 11
108.949
 21
47.0016
  0
LINE
  8
0
 10
108.949
 20
47.0016
 11
108.963
 21
47.1038
  0
LINE
  8
0
 10
108.963
 20
47.1038
 11
108.973
 21
47.1719
  0
LINE
  8
0
 10
108.973
 20
47.1719
 11
108.987
 21
47.2741
  0
LINE
  8
0
 10
108.987
 20
47.2741
 11
108.997
 21
47.3423
  0
LINE
  8
0
 10
108.997
 20
47.3423
 11
109.006
 21
47.4105
  0
LINE
  8
0
 10
109.006
 20
47.4105
 11
109.02
 21
47.5128
  0
LINE
  8
0
 10
109.02
 20
47.5128
 11
109.033
 21
47.6151
  0
LINE
  8
0
 10
109.033
 20
47.6151
 11
109.042
 21
47.6833
  0
LINE
  8
0
 10
109.042
 20
47.6833
 11
109.051
 21
47.7515
  0
LINE
  8
0
 10
109.051
 20
47.7515
 11
109.064
 21
47.8539
  0
LINE
  8
0
 10
109.064
 20
47.8539
 11
109.077
 21
47.9563
  0
LINE
  8
0
 10
109.077
 20
47.9563
 11
109.09
 21
48.0587
  0
LINE
  8
0
 10
109.09
 20
48.0587
 11
109.102
 21
48.1611
  0
LINE
  8
0
 10
109.102
 20
48.1611
 11
109.11
 21
48.2294
  0
LINE
  8
0
 10
109.11
 20
48.2294
 11
109.123
 21
48.3319
  0
LINE
  8
0
 10
109.123
 20
48.3319
 11
109.131
 21
48.4003
  0
LINE
  8
0
 10
109.131
 20
48.4003
 11
109.142
 21
48.5028
  0
LINE
  8
0
 10
109.142
 20
48.5028
 11
109.154
 21
48.6053
  0
LINE
  8
0
 10
109.154
 20
48.6053
 11
109.166
 21
48.7079
  0
LINE
  8
0
 10
109.166
 20
48.7079
 11
109.173
 21
48.7762
  0
LINE
  8
0
 10
109.173
 20
48.7762
 11
109.181
 21
48.8447
  0
LINE
  8
0
 10
109.181
 20
48.8447
 11
109.192
 21
48.9473
  0
LINE
  8
0
 10
109.192
 20
48.9473
 11
109.199
 21
49.0157
  0
LINE
  8
0
 10
109.199
 20
49.0157
 11
109.21
 21
49.1183
  0
LINE
  8
0
 10
109.21
 20
49.1183
 11
109.217
 21
49.1868
  0
LINE
  8
0
 10
109.217
 20
49.1868
 11
109.227
 21
49.2894
  0
LINE
  8
0
 10
109.227
 20
49.2894
 11
109.234
 21
49.3579
  0
LINE
  8
0
 10
109.234
 20
49.3579
 11
109.241
 21
49.4264
  0
LINE
  8
0
 10
109.241
 20
49.4264
 11
109.247
 21
49.4948
  0
LINE
  8
0
 10
109.247
 20
49.4948
 11
109.254
 21
49.5633
  0
LINE
  8
0
 10
109.254
 20
49.5633
 11
109.263
 21
49.6661
  0
LINE
  8
0
 10
109.263
 20
49.6661
 11
109.273
 21
49.7688
  0
LINE
  8
0
 10
109.273
 20
49.7688
 11
109.282
 21
49.8716
  0
LINE
  8
0
 10
109.282
 20
49.8716
 11
109.288
 21
49.9402
  0
LINE
  8
0
 10
109.288
 20
49.9402
 11
109.294
 21
50.0087
  0
LINE
  8
0
 10
109.294
 20
50.0087
 11
109.303
 21
50.1115
  0
LINE
  8
0
 10
109.303
 20
50.1115
 11
109.312
 21
50.2144
  0
LINE
  8
0
 10
109.312
 20
50.2144
 11
109.317
 21
50.2829
  0
LINE
  8
0
 10
109.317
 20
50.2829
 11
109.323
 21
50.3515
  0
LINE
  8
0
 10
109.323
 20
50.3515
 11
109.331
 21
50.4544
  0
LINE
  8
0
 10
109.331
 20
50.4544
 11
109.337
 21
50.523
  0
LINE
  8
0
 10
109.337
 20
50.523
 11
109.342
 21
50.5916
  0
LINE
  8
0
 10
109.342
 20
50.5916
 11
109.35
 21
50.6945
  0
LINE
  8
0
 10
109.35
 20
50.6945
 11
109.357
 21
50.7974
  0
LINE
  8
0
 10
109.357
 20
50.7974
 11
109.362
 21
50.866
  0
LINE
  8
0
 10
109.362
 20
50.866
 11
109.367
 21
50.9346
  0
LINE
  8
0
 10
109.367
 20
50.9346
 11
109.374
 21
51.0376
  0
LINE
  8
0
 10
109.374
 20
51.0376
 11
109.381
 21
51.1406
  0
LINE
  8
0
 10
109.381
 20
51.1406
 11
109.388
 21
51.2436
  0
LINE
  8
0
 10
109.388
 20
51.2436
 11
109.394
 21
51.3466
  0
LINE
  8
0
 10
109.394
 20
51.3466
 11
109.398
 21
51.4152
  0
LINE
  8
0
 10
109.398
 20
51.4152
 11
109.405
 21
51.5182
  0
LINE
  8
0
 10
109.405
 20
51.5182
 11
109.411
 21
51.6213
  0
LINE
  8
0
 10
109.411
 20
51.6213
 11
109.414
 21
51.69
  0
LINE
  8
0
 10
109.414
 20
51.69
 11
109.418
 21
51.7587
  0
LINE
  8
0
 10
109.418
 20
51.7587
 11
109.422
 21
51.8274
  0
LINE
  8
0
 10
109.422
 20
51.8274
 11
109.427
 21
51.9304
  0
LINE
  8
0
 10
109.427
 20
51.9304
 11
109.431
 21
51.9991
  0
LINE
  8
0
 10
109.431
 20
51.9991
 11
109.436
 21
52.1022
  0
LINE
  8
0
 10
109.436
 20
52.1022
 11
109.441
 21
52.2053
  0
LINE
  8
0
 10
109.441
 20
52.2053
 11
109.446
 21
52.3084
  0
LINE
  8
0
 10
109.446
 20
52.3084
 11
109.45
 21
52.4115
  0
LINE
  8
0
 10
109.45
 20
52.4115
 11
109.454
 21
52.5146
  0
LINE
  8
0
 10
109.454
 20
52.5146
 11
109.457
 21
52.5833
  0
LINE
  8
0
 10
109.457
 20
52.5833
 11
109.461
 21
52.6865
  0
LINE
  8
0
 10
109.461
 20
52.6865
 11
109.465
 21
52.7896
  0
LINE
  8
0
 10
109.465
 20
52.7896
 11
109.468
 21
52.8927
  0
LINE
  8
0
 10
109.468
 20
52.8927
 11
109.471
 21
52.9615
  0
LINE
  8
0
 10
109.471
 20
52.9615
 11
109.474
 21
53.0647
  0
LINE
  8
0
 10
109.474
 20
53.0647
 11
109.477
 21
53.1678
  0
LINE
  8
0
 10
109.477
 20
53.1678
 11
109.48
 21
53.271
  0
LINE
  8
0
 10
109.48
 20
53.271
 11
109.482
 21
53.3398
  0
LINE
  8
0
 10
109.482
 20
53.3398
 11
109.484
 21
53.4429
  0
LINE
  8
0
 10
109.484
 20
53.4429
 11
109.486
 21
53.5117
  0
LINE
  8
0
 10
109.486
 20
53.5117
 11
109.488
 21
53.5805
  0
LINE
  8
0
 10
109.488
 20
53.5805
 11
109.49
 21
53.6837
  0
LINE
  8
0
 10
109.49
 20
53.6837
 11
109.491
 21
53.7525
  0
LINE
  8
0
 10
109.491
 20
53.7525
 11
109.493
 21
53.8556
  0
LINE
  8
0
 10
109.493
 20
53.8556
 11
109.494
 21
53.9244
  0
LINE
  8
0
 10
109.494
 20
53.9244
 11
109.495
 21
53.9932
  0
LINE
  8
0
 10
109.495
 20
53.9932
 11
109.496
 21
54.0964
  0
LINE
  8
0
 10
109.496
 20
54.0964
 11
109.497
 21
54.1652
  0
LINE
  8
0
 10
109.497
 20
54.1652
 11
109.498
 21
54.2684
  0
LINE
  8
0
 10
109.498
 20
54.2684
 11
109.498
 21
54.3372
  0
LINE
  8
0
 10
109.498
 20
54.3372
 11
109.499
 21
54.406
  0
LINE
  8
0
 10
109.499
 20
54.406
 11
109.499
 21
54.5092
  0
LINE
  8
0
 10
109.499
 20
54.5092
 11
109.5
 21
54.578
  0
LINE
  8
0
 10
109.5
 20
54.578
 11
109.5
 21
54.6812
  0
LINE
  8
0
 10
109.5
 20
54.6812
 11
109.5
 21
54.75
  0
LINE
  8
0
 10
109.5
 20
54.75
 11
109.5
 21
54.8188
  0
LINE
  8
0
 10
109.5
 20
54.8188
 11
109.5
 21
54.922
  0
LINE
  8
0
 10
109.5
 20
54.922
 11
109.499
 21
54.9908
  0
LINE
  8
0
 10
109.499
 20
54.9908
 11
109.499
 21
55.094
  0
LINE
  8
0
 10
109.499
 20
55.094
 11
109.498
 21
55.1628
  0
LINE
  8
0
 10
109.498
 20
55.1628
 11
109.498
 21
55.2316
  0
LINE
  8
0
 10
109.498
 20
55.2316
 11
109.497
 21
55.3348
  0
LINE
  8
0
 10
109.497
 20
55.3348
 11
109.496
 21
55.4036
  0
LINE
  8
0
 10
109.496
 20
55.4036
 11
109.495
 21
55.5068
  0
LINE
  8
0
 10
109.495
 20
55.5068
 11
109.494
 21
55.5756
  0
LINE
  8
0
 10
109.494
 20
55.5756
 11
109.493
 21
55.6444
  0
LINE
  8
0
 10
109.493
 20
55.6444
 11
109.491
 21
55.7475
  0
LINE
  8
0
 10
109.491
 20
55.7475
 11
109.49
 21
55.8163
  0
LINE
  8
0
 10
109.49
 20
55.8163
 11
109.488
 21
55.9195
  0
LINE
  8
0
 10
109.488
 20
55.9195
 11
109.486
 21
55.9883
  0
LINE
  8
0
 10
109.486
 20
55.9883
 11
109.484
 21
56.0571
  0
LINE
  8
0
 10
109.484
 20
56.0571
 11
109.482
 21
56.1602
  0
LINE
  8
0
 10
109.482
 20
56.1602
 11
109.48
 21
56.229
  0
LINE
  8
0
 10
109.48
 20
56.229
 11
109.477
 21
56.3322
  0
LINE
  8
0
 10
109.477
 20
56.3322
 11
109.475
 21
56.401
  0
LINE
  8
0
 10
109.475
 20
56.401
 11
109.473
 21
56.4697
  0
LINE
  8
0
 10
109.473
 20
56.4697
 11
109.471
 21
56.5385
  0
LINE
  8
0
 10
109.471
 20
56.5385
 11
109.467
 21
56.6416
  0
LINE
  8
0
 10
109.467
 20
56.6416
 11
109.465
 21
56.7104
  0
LINE
  8
0
 10
109.465
 20
56.7104
 11
109.461
 21
56.8135
  0
LINE
  8
0
 10
109.461
 20
56.8135
 11
109.457
 21
56.9167
  0
LINE
  8
0
 10
109.457
 20
56.9167
 11
109.454
 21
56.9854
  0
LINE
  8
0
 10
109.454
 20
56.9854
 11
109.451
 21
57.0541
  0
LINE
  8
0
 10
109.451
 20
57.0541
 11
109.447
 21
57.1572
  0
LINE
  8
0
 10
109.447
 20
57.1572
 11
109.442
 21
57.2603
  0
LINE
  8
0
 10
109.442
 20
57.2603
 11
109.438
 21
57.3634
  0
LINE
  8
0
 10
109.438
 20
57.3634
 11
109.433
 21
57.4665
  0
LINE
  8
0
 10
109.433
 20
57.4665
 11
109.429
 21
57.5352
  0
LINE
  8
0
 10
109.429
 20
57.5352
 11
109.424
 21
57.6383
  0
LINE
  8
0
 10
109.424
 20
57.6383
 11
109.422
 21
57.6726
  0
LINE
  8
0
 10
109.422
 20
57.6726
 11
109.416
 21
57.7757
  0
LINE
  8
0
 10
109.416
 20
57.7757
 11
109.411
 21
57.8787
  0
LINE
  8
0
 10
109.411
 20
57.8787
 11
109.405
 21
57.9818
  0
LINE
  8
0
 10
109.405
 20
57.9818
 11
109.398
 21
58.0848
  0
LINE
  8
0
 10
109.398
 20
58.0848
 11
109.392
 21
58.1878
  0
LINE
  8
0
 10
109.392
 20
58.1878
 11
109.385
 21
58.2908
  0
LINE
  8
0
 10
109.385
 20
58.2908
 11
109.381
 21
58.3594
  0
LINE
  8
0
 10
109.381
 20
58.3594
 11
109.374
 21
58.4624
  0
LINE
  8
0
 10
109.374
 20
58.4624
 11
109.367
 21
58.5654
  0
LINE
  8
0
 10
109.367
 20
58.5654
 11
109.362
 21
58.634
  0
LINE
  8
0
 10
109.362
 20
58.634
 11
109.357
 21
58.7026
  0
LINE
  8
0
 10
109.357
 20
58.7026
 11
109.35
 21
58.8055
  0
LINE
  8
0
 10
109.35
 20
58.8055
 11
109.342
 21
58.9084
  0
LINE
  8
0
 10
109.342
 20
58.9084
 11
109.337
 21
58.977
  0
LINE
  8
0
 10
109.337
 20
58.977
 11
109.331
 21
59.0456
  0
LINE
  8
0
 10
109.331
 20
59.0456
 11
109.323
 21
59.1485
  0
LINE
  8
0
 10
109.323
 20
59.1485
 11
109.317
 21
59.2171
  0
LINE
  8
0
 10
109.317
 20
59.2171
 11
109.312
 21
59.2856
  0
LINE
  8
0
 10
109.312
 20
59.2856
 11
109.303
 21
59.3885
  0
LINE
  8
0
 10
109.303
 20
59.3885
 11
109.294
 21
59.4913
  0
LINE
  8
0
 10
109.294
 20
59.4913
 11
109.288
 21
59.5598
  0
LINE
  8
0
 10
109.288
 20
59.5598
 11
109.282
 21
59.6284
  0
LINE
  8
0
 10
109.282
 20
59.6284
 11
109.273
 21
59.7312
  0
LINE
  8
0
 10
109.273
 20
59.7312
 11
109.267
 21
59.7997
  0
LINE
  8
0
 10
109.267
 20
59.7997
 11
109.26
 21
59.8682
  0
LINE
  8
0
 10
109.26
 20
59.8682
 11
109.254
 21
59.9367
  0
LINE
  8
0
 10
109.254
 20
59.9367
 11
109.247
 21
60.0052
  0
LINE
  8
0
 10
109.247
 20
60.0052
 11
109.237
 21
60.1079
  0
LINE
  8
0
 10
109.237
 20
60.1079
 11
109.227
 21
60.2106
  0
LINE
  8
0
 10
109.227
 20
60.2106
 11
109.217
 21
60.3132
  0
LINE
  8
0
 10
109.217
 20
60.3132
 11
109.21
 21
60.3817
  0
LINE
  8
0
 10
109.21
 20
60.3817
 11
109.199
 21
60.4843
  0
LINE
  8
0
 10
109.199
 20
60.4843
 11
109.192
 21
60.5527
  0
LINE
  8
0
 10
109.192
 20
60.5527
 11
109.181
 21
60.6553
  0
LINE
  8
0
 10
109.181
 20
60.6553
 11
109.173
 21
60.7238
  0
LINE
  8
0
 10
109.173
 20
60.7238
 11
109.166
 21
60.7921
  0
LINE
  8
0
 10
109.166
 20
60.7921
 11
109.154
 21
60.8947
  0
LINE
  8
0
 10
109.154
 20
60.8947
 11
109.142
 21
60.9972
  0
LINE
  8
0
 10
109.142
 20
60.9972
 11
109.131
 21
61.0997
  0
LINE
  8
0
 10
109.131
 20
61.0997
 11
109.123
 21
61.1681
  0
LINE
  8
0
 10
109.123
 20
61.1681
 11
109.11
 21
61.2706
  0
LINE
  8
0
 10
109.11
 20
61.2706
 11
109.098
 21
61.373
  0
LINE
  8
0
 10
109.098
 20
61.373
 11
109.09
 21
61.4413
  0
LINE
  8
0
 10
109.09
 20
61.4413
 11
109.077
 21
61.5437
  0
LINE
  8
0
 10
109.077
 20
61.5437
 11
109.064
 21
61.6461
  0
LINE
  8
0
 10
109.064
 20
61.6461
 11
109.051
 21
61.7485
  0
LINE
  8
0
 10
109.051
 20
61.7485
 11
109.042
 21
61.8167
  0
LINE
  8
0
 10
109.042
 20
61.8167
 11
109.033
 21
61.8849
  0
LINE
  8
0
 10
109.033
 20
61.8849
 11
109.02
 21
61.9872
  0
LINE
  8
0
 10
109.02
 20
61.9872
 11
109.006
 21
62.0895
  0
LINE
  8
0
 10
109.006
 20
62.0895
 11
108.997
 21
62.1577
  0
LINE
  8
0
 10
108.997
 20
62.1577
 11
108.987
 21
62.2259
  0
LINE
  8
0
 10
108.987
 20
62.2259
 11
108.973
 21
62.3281
  0
LINE
  8
0
 10
108.973
 20
62.3281
 11
108.963
 21
62.3962
  0
LINE
  8
0
 10
108.963
 20
62.3962
 11
108.949
 21
62.4984
  0
LINE
  8
0
 10
108.949
 20
62.4984
 11
108.934
 21
62.6005
  0
LINE
  8
0
 10
108.934
 20
62.6005
 11
108.919
 21
62.7027
  0
LINE
  8
0
 10
108.919
 20
62.7027
 11
108.909
 21
62.7707
  0
LINE
  8
0
 10
108.909
 20
62.7707
 11
108.894
 21
62.8728
  0
LINE
  8
0
 10
108.894
 20
62.8728
 11
108.879
 21
62.9748
  0
LINE
  8
0
 10
108.879
 20
62.9748
 11
108.868
 21
63.0429
  0
LINE
  8
0
 10
108.868
 20
63.0429
 11
108.853
 21
63.1449
  0
LINE
  8
0
 10
108.853
 20
63.1449
 11
108.837
 21
63.2468
  0
LINE
  8
0
 10
108.837
 20
63.2468
 11
108.821
 21
63.3488
  0
LINE
  8
0
 10
108.821
 20
63.3488
 11
108.81
 21
63.4167
  0
LINE
  8
0
 10
108.81
 20
63.4167
 11
108.793
 21
63.5186
  0
LINE
  8
0
 10
108.793
 20
63.5186
 11
108.782
 21
63.5865
  0
LINE
  8
0
 10
108.782
 20
63.5865
 11
108.765
 21
63.6883
  0
LINE
  8
0
 10
108.765
 20
63.6883
 11
108.749
 21
63.7901
  0
LINE
  8
0
 10
108.749
 20
63.7901
 11
108.743
 21
63.8241
  0
LINE
  8
0
 10
108.743
 20
63.8241
 11
108.731
 21
63.8919
  0
LINE
  8
0
 10
108.731
 20
63.8919
 11
108.714
 21
63.9936
  0
LINE
  8
0
 10
108.714
 20
63.9936
 11
108.702
 21
64.0614
  0
LINE
  8
0
 10
108.702
 20
64.0614
 11
108.685
 21
64.1631
  0
LINE
  8
0
 10
108.685
 20
64.1631
 11
108.667
 21
64.2648
  0
LINE
  8
0
 10
108.667
 20
64.2648
 11
108.649
 21
64.3664
  0
LINE
  8
0
 10
108.649
 20
64.3664
 11
108.637
 21
64.4341
  0
LINE
  8
0
 10
108.637
 20
64.4341
 11
108.625
 21
64.5018
  0
LINE
  8
0
 10
108.625
 20
64.5018
 11
108.612
 21
64.5695
  0
LINE
  8
0
 10
108.612
 20
64.5695
 11
108.594
 21
64.671
  0
LINE
  8
0
 10
108.594
 20
64.671
 11
108.581
 21
64.7387
  0
LINE
  8
0
 10
108.581
 20
64.7387
 11
108.569
 21
64.8063
  0
LINE
  8
0
 10
108.569
 20
64.8063
 11
108.549
 21
64.9077
  0
LINE
  8
0
 10
108.549
 20
64.9077
 11
108.53
 21
65.0091
  0
LINE
  8
0
 10
108.53
 20
65.0091
 11
108.517
 21
65.0767
  0
LINE
  8
0
 10
108.517
 20
65.0767
 11
108.504
 21
65.1443
  0
LINE
  8
0
 10
108.504
 20
65.1443
 11
108.491
 21
65.2118
  0
LINE
  8
0
 10
108.491
 20
65.2118
 11
108.471
 21
65.3131
  0
LINE
  8
0
 10
108.471
 20
65.3131
 11
108.451
 21
65.4143
  0
LINE
  8
0
 10
108.451
 20
65.4143
 11
108.438
 21
65.4818
  0
LINE
  8
0
 10
108.438
 20
65.4818
 11
108.418
 21
65.583
  0
LINE
  8
0
 10
108.418
 20
65.583
 11
108.404
 21
65.6504
  0
LINE
  8
0
 10
108.404
 20
65.6504
 11
108.39
 21
65.7178
  0
LINE
  8
0
 10
108.39
 20
65.7178
 11
108.376
 21
65.7852
  0
LINE
  8
0
 10
108.376
 20
65.7852
 11
108.362
 21
65.8526
  0
LINE
  8
0
 10
108.362
 20
65.8526
 11
108.348
 21
65.92
  0
LINE
  8
0
 10
108.348
 20
65.92
 11
108.327
 21
66.021
  0
LINE
  8
0
 10
108.327
 20
66.021
 11
108.313
 21
66.0883
  0
LINE
  8
0
 10
108.313
 20
66.0883
 11
108.292
 21
66.1892
  0
LINE
  8
0
 10
108.292
 20
66.1892
 11
108.27
 21
66.2901
  0
LINE
  8
0
 10
108.27
 20
66.2901
 11
108.263
 21
66.3238
  0
LINE
  8
0
 10
108.263
 20
66.3238
 11
108.241
 21
66.4246
  0
LINE
  8
0
 10
108.241
 20
66.4246
 11
108.219
 21
66.5254
  0
LINE
  8
0
 10
108.219
 20
66.5254
 11
108.204
 21
66.5926
  0
LINE
  8
0
 10
108.204
 20
66.5926
 11
108.189
 21
66.6598
  0
LINE
  8
0
 10
108.189
 20
66.6598
 11
108.166
 21
66.7605
  0
LINE
  8
0
 10
108.166
 20
66.7605
 11
108.151
 21
66.8276
  0
LINE
  8
0
 10
108.151
 20
66.8276
 11
108.136
 21
66.8947
  0
LINE
  8
0
 10
108.136
 20
66.8947
 11
108.121
 21
66.9618
  0
LINE
  8
0
 10
108.121
 20
66.9618
 11
108.098
 21
67.0623
  0
LINE
  8
0
 10
108.098
 20
67.0623
 11
108.074
 21
67.1629
  0
LINE
  8
0
 10
108.074
 20
67.1629
 11
108.059
 21
67.2299
  0
LINE
  8
0
 10
108.059
 20
67.2299
 11
108.035
 21
67.3303
  0
LINE
  8
0
 10
108.035
 20
67.3303
 11
108.011
 21
67.4308
  0
LINE
  8
0
 10
108.011
 20
67.4308
 11
107.995
 21
67.4977
  0
LINE
  8
0
 10
107.995
 20
67.4977
 11
107.971
 21
67.598
  0
LINE
  8
0
 10
107.971
 20
67.598
 11
107.955
 21
67.6649
  0
LINE
  8
0
 10
107.955
 20
67.6649
 11
107.939
 21
67.7317
  0
LINE
  8
0
 10
107.939
 20
67.7317
 11
107.922
 21
67.7986
  0
LINE
  8
0
 10
107.922
 20
67.7986
 11
107.898
 21
67.8988
  0
LINE
  8
0
 10
107.898
 20
67.8988
 11
107.873
 21
67.9989
  0
LINE
  8
0
 10
107.873
 20
67.9989
 11
107.856
 21
68.0657
  0
LINE
  8
0
 10
107.856
 20
68.0657
 11
107.839
 21
68.1324
  0
LINE
  8
0
 10
107.839
 20
68.1324
 11
107.814
 21
68.2324
  0
LINE
  8
0
 10
107.814
 20
68.2324
 11
107.788
 21
68.3324
  0
LINE
  8
0
 10
107.788
 20
68.3324
 11
107.771
 21
68.3991
  0
LINE
  8
0
 10
107.771
 20
68.3991
 11
107.754
 21
68.4657
  0
LINE
  8
0
 10
107.754
 20
68.4657
 11
107.728
 21
68.5656
  0
LINE
  8
0
 10
107.728
 20
68.5656
 11
107.711
 21
68.6321
  0
LINE
  8
0
 10
107.711
 20
68.6321
 11
107.685
 21
68.7319
  0
LINE
  8
0
 10
107.685
 20
68.7319
 11
107.658
 21
68.8317
  0
LINE
  8
0
 10
107.658
 20
68.8317
 11
107.631
 21
68.9314
  0
LINE
  8
0
 10
107.631
 20
68.9314
 11
107.614
 21
68.9978
  0
LINE
  8
0
 10
107.614
 20
68.9978
 11
107.587
 21
69.0975
  0
LINE
  8
0
 10
107.587
 20
69.0975
 11
107.56
 21
69.197
  0
LINE
  8
0
 10
107.56
 20
69.197
 11
107.541
 21
69.2634
  0
LINE
  8
0
 10
107.541
 20
69.2634
 11
107.523
 21
69.3297
  0
LINE
  8
0
 10
107.523
 20
69.3297
 11
107.495
 21
69.4292
  0
LINE
  8
0
 10
107.495
 20
69.4292
 11
107.477
 21
69.4954
  0
LINE
  8
0
 10
107.477
 20
69.4954
 11
107.458
 21
69.5617
  0
LINE
  8
0
 10
107.458
 20
69.5617
 11
107.43
 21
69.661
  0
LINE
  8
0
 10
107.43
 20
69.661
 11
107.402
 21
69.7603
  0
LINE
  8
0
 10
107.402
 20
69.7603
 11
107.383
 21
69.8264
  0
LINE
  8
0
 10
107.383
 20
69.8264
 11
107.355
 21
69.9256
  0
LINE
  8
0
 10
107.355
 20
69.9256
 11
107.336
 21
69.9917
  0
LINE
  8
0
 10
107.336
 20
69.9917
 11
107.316
 21
70.0578
  0
LINE
  8
0
 10
107.316
 20
70.0578
 11
107.288
 21
70.1568
  0
LINE
  8
0
 10
107.288
 20
70.1568
 11
107.268
 21
70.2229
  0
LINE
  8
0
 10
107.268
 20
70.2229
 11
107.239
 21
70.3218
  0
LINE
  8
0
 10
107.239
 20
70.3218
 11
107.209
 21
70.4207
  0
LINE
  8
0
 10
107.209
 20
70.4207
 11
107.19
 21
70.4866
  0
LINE
  8
0
 10
107.19
 20
70.4866
 11
107.17
 21
70.5525
  0
LINE
  8
0
 10
107.17
 20
70.5525
 11
107.15
 21
70.6184
  0
LINE
  8
0
 10
107.15
 20
70.6184
 11
107.12
 21
70.7171
  0
LINE
  8
0
 10
107.12
 20
70.7171
 11
107.1
 21
70.7829
  0
LINE
  8
0
 10
107.1
 20
70.7829
 11
107.08
 21
70.8487
  0
LINE
  8
0
 10
107.08
 20
70.8487
 11
107.049
 21
70.9473
  0
LINE
  8
0
 10
107.049
 20
70.9473
 11
107.019
 21
71.0459
  0
LINE
  8
0
 10
107.019
 20
71.0459
 11
106.988
 21
71.1444
  0
LINE
  8
0
 10
106.988
 20
71.1444
 11
106.967
 21
71.21
  0
LINE
  8
0
 10
106.967
 20
71.21
 11
106.946
 21
71.2756
  0
LINE
  8
0
 10
106.946
 20
71.2756
 11
106.926
 21
71.3412
  0
LINE
  8
0
 10
106.926
 20
71.3412
 11
106.905
 21
71.4067
  0
LINE
  8
0
 10
106.905
 20
71.4067
 11
106.873
 21
71.505
  0
LINE
  8
0
 10
106.873
 20
71.505
 11
106.852
 21
71.5705
  0
LINE
  8
0
 10
106.852
 20
71.5705
 11
106.831
 21
71.636
  0
LINE
  8
0
 10
106.831
 20
71.636
 11
106.799
 21
71.7341
  0
LINE
  8
0
 10
106.799
 20
71.7341
 11
106.767
 21
71.8322
  0
LINE
  8
0
 10
106.767
 20
71.8322
 11
106.745
 21
71.8975
  0
LINE
  8
0
 10
106.745
 20
71.8975
 11
106.713
 21
71.9955
  0
LINE
  8
0
 10
106.713
 20
71.9955
 11
106.691
 21
72.0608
  0
LINE
  8
0
 10
106.691
 20
72.0608
 11
106.659
 21
72.1587
  0
LINE
  8
0
 10
106.659
 20
72.1587
 11
106.626
 21
72.2565
  0
LINE
  8
0
 10
106.626
 20
72.2565
 11
106.593
 21
72.3542
  0
LINE
  8
0
 10
106.593
 20
72.3542
 11
106.559
 21
72.4519
  0
LINE
  8
0
 10
106.559
 20
72.4519
 11
106.537
 21
72.517
  0
LINE
  8
0
 10
106.537
 20
72.517
 11
106.515
 21
72.5821
  0
LINE
  8
0
 10
106.515
 20
72.5821
 11
106.492
 21
72.6471
  0
LINE
  8
0
 10
106.492
 20
72.6471
 11
106.458
 21
72.7446
  0
LINE
  8
0
 10
106.458
 20
72.7446
 11
106.424
 21
72.842
  0
LINE
  8
0
 10
106.424
 20
72.842
 11
106.39
 21
72.9394
  0
LINE
  8
0
 10
106.39
 20
72.9394
 11
106.356
 21
73.0367
  0
LINE
  8
0
 10
106.356
 20
73.0367
 11
106.321
 21
73.134
  0
LINE
  8
0
 10
106.321
 20
73.134
 11
106.286
 21
73.2311
  0
LINE
  8
0
 10
106.286
 20
73.2311
 11
106.252
 21
73.3283
  0
LINE
  8
0
 10
106.252
 20
73.3283
 11
106.216
 21
73.4253
  0
LINE
  8
0
 10
106.216
 20
73.4253
 11
106.181
 21
73.5223
  0
LINE
  8
0
 10
106.181
 20
73.5223
 11
106.146
 21
73.6192
  0
LINE
  8
0
 10
106.146
 20
73.6192
 11
106.11
 21
73.716
  0
LINE
  8
0
 10
106.11
 20
73.716
 11
106.074
 21
73.8128
  0
LINE
  8
0
 10
106.074
 20
73.8128
 11
106.038
 21
73.9095
  0
LINE
  8
0
 10
106.038
 20
73.9095
 11
106.002
 21
74.0062
  0
LINE
  8
0
 10
106.002
 20
74.0062
 11
105.978
 21
74.0706
  0
LINE
  8
0
 10
105.978
 20
74.0706
 11
105.953
 21
74.1349
  0
LINE
  8
0
 10
105.953
 20
74.1349
 11
105.929
 21
74.1992
  0
LINE
  8
0
 10
105.929
 20
74.1992
 11
105.892
 21
74.2957
  0
LINE
  8
0
 10
105.892
 20
74.2957
 11
105.868
 21
74.3599
  0
LINE
  8
0
 10
105.868
 20
74.3599
 11
105.831
 21
74.4563
  0
LINE
  8
0
 10
105.831
 20
74.4563
 11
105.806
 21
74.5204
  0
LINE
  8
0
 10
105.806
 20
74.5204
 11
105.768
 21
74.6166
  0
LINE
  8
0
 10
105.768
 20
74.6166
 11
105.731
 21
74.7128
  0
LINE
  8
0
 10
105.731
 20
74.7128
 11
105.693
 21
74.8088
  0
LINE
  8
0
 10
105.693
 20
74.8088
 11
105.655
 21
74.9048
  0
LINE
  8
0
 10
105.655
 20
74.9048
 11
105.617
 21
75.0007
  0
LINE
  8
0
 10
105.617
 20
75.0007
 11
105.592
 21
75.0646
  0
LINE
  8
0
 10
105.592
 20
75.0646
 11
105.566
 21
75.1285
  0
LINE
  8
0
 10
105.566
 20
75.1285
 11
105.528
 21
75.2243
  0
LINE
  8
0
 10
105.528
 20
75.2243
 11
105.489
 21
75.3199
  0
LINE
  8
0
 10
105.489
 20
75.3199
 11
105.45
 21
75.4155
  0
LINE
  8
0
 10
105.45
 20
75.4155
 11
105.411
 21
75.5111
  0
LINE
  8
0
 10
105.411
 20
75.5111
 11
105.359
 21
75.6383
  0
LINE
  8
0
 10
105.359
 20
75.6383
 11
105.319
 21
75.7337
  0
LINE
  8
0
 10
105.319
 20
75.7337
 11
105.293
 21
75.7972
  0
LINE
  8
0
 10
105.293
 20
75.7972
 11
105.253
 21
75.8925
  0
LINE
  8
0
 10
105.253
 20
75.8925
 11
105.226
 21
75.9559
  0
LINE
  8
0
 10
105.226
 20
75.9559
 11
105.186
 21
76.051
  0
LINE
  8
0
 10
105.186
 20
76.051
 11
105.16
 21
76.1144
  0
LINE
  8
0
 10
105.16
 20
76.1144
 11
105.133
 21
76.1777
  0
LINE
  8
0
 10
105.133
 20
76.1777
 11
105.092
 21
76.2726
  0
LINE
  8
0
 10
105.092
 20
76.2726
 11
105.065
 21
76.3359
  0
LINE
  8
0
 10
105.065
 20
76.3359
 11
105.024
 21
76.4307
  0
LINE
  8
0
 10
105.024
 20
76.4307
 11
104.983
 21
76.5254
  0
LINE
  8
0
 10
104.983
 20
76.5254
 11
104.956
 21
76.5885
  0
LINE
  8
0
 10
104.956
 20
76.5885
 11
104.915
 21
76.6831
  0
LINE
  8
0
 10
104.915
 20
76.6831
 11
104.887
 21
76.7461
  0
LINE
  8
0
 10
104.887
 20
76.7461
 11
104.846
 21
76.8406
  0
LINE
  8
0
 10
104.846
 20
76.8406
 11
104.818
 21
76.9035
  0
LINE
  8
0
 10
104.818
 20
76.9035
 11
104.79
 21
76.9664
  0
LINE
  8
0
 10
104.79
 20
76.9664
 11
104.762
 21
77.0293
  0
LINE
  8
0
 10
104.762
 20
77.0293
 11
104.72
 21
77.1235
  0
LINE
  8
0
 10
104.72
 20
77.1235
 11
104.678
 21
77.2177
  0
LINE
  8
0
 10
104.678
 20
77.2177
 11
104.635
 21
77.3118
  0
LINE
  8
0
 10
104.635
 20
77.3118
 11
104.593
 21
77.4057
  0
LINE
  8
0
 10
104.593
 20
77.4057
 11
104.55
 21
77.4996
  0
LINE
  8
0
 10
104.55
 20
77.4996
 11
104.507
 21
77.5935
  0
LINE
  8
0
 10
104.507
 20
77.5935
 11
104.478
 21
77.656
  0
LINE
  8
0
 10
104.478
 20
77.656
 11
104.435
 21
77.7497
  0
LINE
  8
0
 10
104.435
 20
77.7497
 11
104.391
 21
77.8433
  0
LINE
  8
0
 10
104.391
 20
77.8433
 11
104.348
 21
77.9368
  0
LINE
  8
0
 10
104.348
 20
77.9368
 11
104.304
 21
78.0303
  0
LINE
  8
0
 10
104.304
 20
78.0303
 11
104.275
 21
78.0925
  0
LINE
  8
0
 10
104.275
 20
78.0925
 11
104.231
 21
78.1858
  0
LINE
  8
0
 10
104.231
 20
78.1858
 11
104.186
 21
78.2791
  0
LINE
  8
0
 10
104.186
 20
78.2791
 11
104.157
 21
78.3412
  0
LINE
  8
0
 10
104.157
 20
78.3412
 11
104.112
 21
78.4343
  0
LINE
  8
0
 10
104.112
 20
78.4343
 11
104.082
 21
78.4963
  0
LINE
  8
0
 10
104.082
 20
78.4963
 11
104.037
 21
78.5892
  0
LINE
  8
0
 10
104.037
 20
78.5892
 11
104.007
 21
78.6511
  0
LINE
  8
0
 10
104.007
 20
78.6511
 11
103.977
 21
78.713
  0
LINE
  8
0
 10
103.977
 20
78.713
 11
103.932
 21
78.8058
  0
LINE
  8
0
 10
103.932
 20
78.8058
 11
103.902
 21
78.8676
  0
LINE
  8
0
 10
103.902
 20
78.8676
 11
103.856
 21
78.9602
  0
LINE
  8
0
 10
103.856
 20
78.9602
 11
103.826
 21
79.0219
  0
LINE
  8
0
 10
103.826
 20
79.0219
 11
103.78
 21
79.1143
  0
LINE
  8
0
 10
103.78
 20
79.1143
 11
103.749
 21
79.1759
  0
LINE
  8
0
 10
103.749
 20
79.1759
 11
103.719
 21
79.2375
  0
LINE
  8
0
 10
103.719
 20
79.2375
 11
103.672
 21
79.3297
  0
LINE
  8
0
 10
103.672
 20
79.3297
 11
103.626
 21
79.4219
  0
LINE
  8
0
 10
103.626
 20
79.4219
 11
103.579
 21
79.514
  0
LINE
  8
0
 10
103.579
 20
79.514
 11
103.548
 21
79.5753
  0
LINE
  8
0
 10
103.548
 20
79.5753
 11
103.501
 21
79.6673
  0
LINE
  8
0
 10
103.501
 20
79.6673
 11
103.454
 21
79.7591
  0
LINE
  8
0
 10
103.454
 20
79.7591
 11
103.407
 21
79.8509
  0
LINE
  8
0
 10
103.407
 20
79.8509
 11
103.391
 21
79.8814
  0
LINE
  8
0
 10
103.391
 20
79.8814
 11
103.36
 21
79.9425
  0
LINE
  8
0
 10
103.36
 20
79.9425
 11
103.312
 21
80.0341
  0
LINE
  8
0
 10
103.312
 20
80.0341
 11
103.264
 21
80.1256
  0
LINE
  8
0
 10
103.264
 20
80.1256
 11
103.216
 21
80.217
  0
LINE
  8
0
 10
103.216
 20
80.217
 11
103.184
 21
80.2779
  0
LINE
  8
0
 10
103.184
 20
80.2779
 11
103.152
 21
80.3387
  0
LINE
  8
0
 10
103.152
 20
80.3387
 11
103.12
 21
80.3996
  0
LINE
  8
0
 10
103.12
 20
80.3996
 11
103.072
 21
80.4907
  0
LINE
  8
0
 10
103.072
 20
80.4907
 11
103.023
 21
80.5817
  0
LINE
  8
0
 10
103.023
 20
80.5817
 11
102.974
 21
80.6727
  0
LINE
  8
0
 10
102.974
 20
80.6727
 11
102.925
 21
80.7635
  0
LINE
  8
0
 10
102.925
 20
80.7635
 11
102.876
 21
80.8543
  0
LINE
  8
0
 10
102.876
 20
80.8543
 11
102.827
 21
80.9449
  0
LINE
  8
0
 10
102.827
 20
80.9449
 11
102.777
 21
81.0355
  0
LINE
  8
0
 10
102.777
 20
81.0355
 11
102.728
 21
81.126
  0
LINE
  8
0
 10
102.728
 20
81.126
 11
102.678
 21
81.2164
  0
LINE
  8
0
 10
102.678
 20
81.2164
 11
102.628
 21
81.3067
  0
LINE
  8
0
 10
102.628
 20
81.3067
 11
102.595
 21
81.3668
  0
LINE
  8
0
 10
102.595
 20
81.3668
 11
102.544
 21
81.457
  0
LINE
  8
0
 10
102.544
 20
81.457
 11
102.511
 21
81.517
  0
LINE
  8
0
 10
102.511
 20
81.517
 11
102.46
 21
81.607
  0
LINE
  8
0
 10
102.46
 20
81.607
 11
102.426
 21
81.6669
  0
LINE
  8
0
 10
102.426
 20
81.6669
 11
102.376
 21
81.7567
  0
LINE
  8
0
 10
102.376
 20
81.7567
 11
102.325
 21
81.8465
  0
LINE
  8
0
 10
102.325
 20
81.8465
 11
102.291
 21
81.9062
  0
LINE
  8
0
 10
102.291
 20
81.9062
 11
102.256
 21
81.966
  0
LINE
  8
0
 10
102.256
 20
81.966
 11
102.205
 21
82.0555
  0
LINE
  8
0
 10
102.205
 20
82.0555
 11
102.153
 21
82.1449
  0
LINE
  8
0
 10
102.153
 20
82.1449
 11
102.102
 21
82.2342
  0
LINE
  8
0
 10
102.102
 20
82.2342
 11
102.05
 21
82.3234
  0
LINE
  8
0
 10
102.05
 20
82.3234
 11
101.998
 21
82.4125
  0
LINE
  8
0
 10
101.998
 20
82.4125
 11
101.946
 21
82.5015
  0
LINE
  8
0
 10
101.946
 20
82.5015
 11
101.928
 21
82.5311
  0
LINE
  8
0
 10
101.928
 20
82.5311
 11
101.893
 21
82.5904
  0
LINE
  8
0
 10
101.893
 20
82.5904
 11
101.876
 21
82.62
  0
LINE
  8
0
 10
101.876
 20
82.62
 11
101.841
 21
82.6792
  0
LINE
  8
0
 10
101.841
 20
82.6792
 11
101.788
 21
82.7679
  0
LINE
  8
0
 10
101.788
 20
82.7679
 11
101.735
 21
82.8565
  0
LINE
  8
0
 10
101.735
 20
82.8565
 11
101.682
 21
82.9451
  0
LINE
  8
0
 10
101.682
 20
82.9451
 11
101.629
 21
83.0335
  0
LINE
  8
0
 10
101.629
 20
83.0335
 11
101.575
 21
83.1218
  0
LINE
  8
0
 10
101.575
 20
83.1218
 11
101.522
 21
83.21
  0
LINE
  8
0
 10
101.522
 20
83.21
 11
101.468
 21
83.2981
  0
LINE
  8
0
 10
101.468
 20
83.2981
 11
101.414
 21
83.3861
  0
LINE
  8
0
 10
101.414
 20
83.3861
 11
101.36
 21
83.474
  0
LINE
  8
0
 10
101.36
 20
83.474
 11
101.324
 21
83.5326
  0
LINE
  8
0
 10
101.324
 20
83.5326
 11
101.27
 21
83.6203
  0
LINE
  8
0
 10
101.27
 20
83.6203
 11
101.215
 21
83.7079
  0
LINE
  8
0
 10
101.215
 20
83.7079
 11
101.179
 21
83.7663
  0
LINE
  8
0
 10
101.179
 20
83.7663
 11
101.142
 21
83.8246
  0
LINE
  8
0
 10
101.142
 20
83.8246
 11
101.087
 21
83.912
  0
LINE
  8
0
 10
101.087
 20
83.912
 11
101.032
 21
83.9993
  0
LINE
  8
0
 10
101.032
 20
83.9993
 11
100.995
 21
84.0575
  0
LINE
  8
0
 10
100.995
 20
84.0575
 11
100.959
 21
84.1156
  0
LINE
  8
0
 10
100.959
 20
84.1156
 11
100.922
 21
84.1736
  0
LINE
  8
0
 10
100.922
 20
84.1736
 11
100.866
 21
84.2606
  0
LINE
  8
0
 10
100.866
 20
84.2606
 11
100.81
 21
84.3474
  0
LINE
  8
0
 10
100.81
 20
84.3474
 11
100.773
 21
84.4053
  0
LINE
  8
0
 10
100.773
 20
84.4053
 11
100.717
 21
84.492
  0
LINE
  8
0
 10
100.717
 20
84.492
 11
100.661
 21
84.5786
  0
LINE
  8
0
 10
100.661
 20
84.5786
 11
100.605
 21
84.6651
  0
LINE
  8
0
 10
100.605
 20
84.6651
 11
100.548
 21
84.7515
  0
LINE
  8
0
 10
100.548
 20
84.7515
 11
100.51
 21
84.809
  0
LINE
  8
0
 10
100.51
 20
84.809
 11
100.473
 21
84.8665
  0
LINE
  8
0
 10
100.473
 20
84.8665
 11
100.416
 21
84.9526
  0
LINE
  8
0
 10
100.416
 20
84.9526
 11
100.397
 21
84.9813
  0
LINE
  8
0
 10
100.397
 20
84.9813
 11
100.359
 21
85.0386
  0
LINE
  8
0
 10
100.359
 20
85.0386
 11
100.302
 21
85.1245
  0
LINE
  8
0
 10
100.302
 20
85.1245
 11
100.263
 21
85.1818
  0
LINE
  8
0
 10
100.263
 20
85.1818
 11
100.206
 21
85.2675
  0
LINE
  8
0
 10
100.206
 20
85.2675
 11
100.168
 21
85.3246
  0
LINE
  8
0
 10
100.168
 20
85.3246
 11
100.11
 21
85.4102
  0
LINE
  8
0
 10
100.11
 20
85.4102
 11
100.052
 21
85.4956
  0
LINE
  8
0
 10
100.052
 20
85.4956
 11
99.9939
 21
85.5809
  0
LINE
  8
0
 10
99.9939
 20
85.5809
 11
99.9552
 21
85.6378
  0
LINE
  8
0
 10
99.9552
 20
85.6378
 11
99.9163
 21
85.6945
  0
LINE
  8
0
 10
99.9163
 20
85.6945
 11
99.8579
 21
85.7796
  0
LINE
  8
0
 10
99.8579
 20
85.7796
 11
99.7993
 21
85.8646
  0
LINE
  8
0
 10
99.7993
 20
85.8646
 11
99.7602
 21
85.9212
  0
LINE
  8
0
 10
99.7602
 20
85.9212
 11
99.7406
 21
85.9495
  0
LINE
  8
0
 10
99.7406
 20
85.9495
 11
99.7014
 21
86.006
  0
LINE
  8
0
 10
99.7014
 20
86.006
 11
99.6424
 21
86.0907
  0
LINE
  8
0
 10
99.6424
 20
86.0907
 11
99.5832
 21
86.1752
  0
LINE
  8
0
 10
99.5832
 20
86.1752
 11
99.5239
 21
86.2597
  0
LINE
  8
0
 10
99.5239
 20
86.2597
 11
99.4644
 21
86.344
  0
LINE
  8
0
 10
99.4644
 20
86.344
 11
99.4048
 21
86.4282
  0
LINE
  8
0
 10
99.4048
 20
86.4282
 11
99.345
 21
86.5124
  0
LINE
  8
0
 10
99.345
 20
86.5124
 11
99.3051
 21
86.5684
  0
LINE
  8
0
 10
99.3051
 20
86.5684
 11
99.245
 21
86.6523
  0
LINE
  8
0
 10
99.245
 20
86.6523
 11
99.2049
 21
86.7082
  0
LINE
  8
0
 10
99.2049
 20
86.7082
 11
99.1446
 21
86.7919
  0
LINE
  8
0
 10
99.1446
 20
86.7919
 11
99.0841
 21
86.8755
  0
LINE
  8
0
 10
99.0841
 20
86.8755
 11
99.0032
 21
86.9869
  0
LINE
  8
0
 10
99.0032
 20
86.9869
 11
98.9424
 21
87.0702
  0
LINE
  8
0
 10
98.9424
 20
87.0702
 11
98.861
 21
87.1812
  0
LINE
  8
0
 10
98.861
 20
87.1812
 11
98.7998
 21
87.2643
  0
LINE
  8
0
 10
98.7998
 20
87.2643
 11
98.7589
 21
87.3196
  0
LINE
  8
0
 10
98.7589
 20
87.3196
 11
98.7179
 21
87.3749
  0
LINE
  8
0
 10
98.7179
 20
87.3749
 11
98.6563
 21
87.4577
  0
LINE
  8
0
 10
98.6563
 20
87.4577
 11
98.6152
 21
87.5129
  0
LINE
  8
0
 10
98.6152
 20
87.5129
 11
98.5534
 21
87.5955
  0
LINE
  8
0
 10
98.5534
 20
87.5955
 11
98.5121
 21
87.6505
  0
LINE
  8
0
 10
98.5121
 20
87.6505
 11
98.4707
 21
87.7055
  0
LINE
  8
0
 10
98.4707
 20
87.7055
 11
98.4292
 21
87.7604
  0
LINE
  8
0
 10
98.4292
 20
87.7604
 11
98.3669
 21
87.8427
  0
LINE
  8
0
 10
98.3669
 20
87.8427
 11
98.3045
 21
87.9248
  0
LINE
  8
0
 10
98.3045
 20
87.9248
 11
98.2419
 21
88.0069
  0
LINE
  8
0
 10
98.2419
 20
88.0069
 11
98.1791
 21
88.0888
  0
LINE
  8
0
 10
98.1791
 20
88.0888
 11
98.1372
 21
88.1433
  0
LINE
  8
0
 10
98.1372
 20
88.1433
 11
98.0742
 21
88.2251
  0
LINE
  8
0
 10
98.0742
 20
88.2251
 11
98.011
 21
88.3067
  0
LINE
  8
0
 10
98.011
 20
88.3067
 11
97.9688
 21
88.361
  0
LINE
  8
0
 10
97.9688
 20
88.361
 11
97.9053
 21
88.4424
  0
LINE
  8
0
 10
97.9053
 20
88.4424
 11
97.8418
 21
88.5237
  0
LINE
  8
0
 10
97.8418
 20
88.5237
 11
97.7993
 21
88.5778
  0
LINE
  8
0
 10
97.7993
 20
88.5778
 11
97.7567
 21
88.6319
  0
LINE
  8
0
 10
97.7567
 20
88.6319
 11
97.7141
 21
88.6859
  0
LINE
  8
0
 10
97.7141
 20
88.6859
 11
97.6501
 21
88.7668
  0
LINE
  8
0
 10
97.6501
 20
88.7668
 11
97.5859
 21
88.8476
  0
LINE
  8
0
 10
97.5859
 20
88.8476
 11
97.543
 21
88.9014
  0
LINE
  8
0
 10
97.543
 20
88.9014
 11
97.4786
 21
88.982
  0
LINE
  8
0
 10
97.4786
 20
88.982
 11
97.457
 21
89.0089
  0
LINE
  8
0
 10
97.457
 20
89.0089
 11
97.3924
 21
89.0893
  0
LINE
  8
0
 10
97.3924
 20
89.0893
 11
97.3276
 21
89.1696
  0
LINE
  8
0
 10
97.3276
 20
89.1696
 11
97.2626
 21
89.2498
  0
LINE
  8
0
 10
97.2626
 20
89.2498
 11
97.1975
 21
89.3299
  0
LINE
  8
0
 10
97.1975
 20
89.3299
 11
97.154
 21
89.3832
  0
LINE
  8
0
 10
97.154
 20
89.3832
 11
97.0887
 21
89.4631
  0
LINE
  8
0
 10
97.0887
 20
89.4631
 11
97.045
 21
89.5163
  0
LINE
  8
0
 10
97.045
 20
89.5163
 11
96.9794
 21
89.5959
  0
LINE
  8
0
 10
96.9794
 20
89.5959
 11
96.9356
 21
89.649
  0
LINE
  8
0
 10
96.9356
 20
89.649
 11
96.8917
 21
89.7019
  0
LINE
  8
0
 10
96.8917
 20
89.7019
 11
96.8257
 21
89.7813
  0
LINE
  8
0
 10
96.8257
 20
89.7813
 11
96.7596
 21
89.8606
  0
LINE
  8
0
 10
96.7596
 20
89.8606
 11
96.6934
 21
89.9397
  0
LINE
  8
0
 10
96.6934
 20
89.9397
 11
96.627
 21
90.0187
  0
LINE
  8
0
 10
96.627
 20
90.0187
 11
96.5604
 21
90.0976
  0
LINE
  8
0
 10
96.5604
 20
90.0976
 11
96.516
 21
90.1501
  0
LINE
  8
0
 10
96.516
 20
90.1501
 11
96.4492
 21
90.2287
  0
LINE
  8
0
 10
96.4492
 20
90.2287
 11
96.4046
 21
90.2811
  0
LINE
  8
0
 10
96.4046
 20
90.2811
 11
96.3375
 21
90.3596
  0
LINE
  8
0
 10
96.3375
 20
90.3596
 11
96.2703
 21
90.4379
  0
LINE
  8
0
 10
96.2703
 20
90.4379
 11
96.2254
 21
90.49
  0
LINE
  8
0
 10
96.2254
 20
90.49
 11
96.158
 21
90.5681
  0
LINE
  8
0
 10
96.158
 20
90.5681
 11
96.1129
 21
90.6202
  0
LINE
  8
0
 10
96.1129
 20
90.6202
 11
96.0678
 21
90.6721
  0
LINE
  8
0
 10
96.0678
 20
90.6721
 11
96
 21
90.7499
  0
LINE
  8
0
 10
96
 20
90.7499
 11
95.9548
 21
90.8017
  0
LINE
  8
0
 10
95.9548
 20
90.8017
 11
95.8867
 21
90.8793
  0
LINE
  8
0
 10
95.8867
 20
90.8793
 11
95.864
 21
90.9052
  0
LINE
  8
0
 10
95.864
 20
90.9052
 11
95.7958
 21
90.9826
  0
LINE
  8
0
 10
95.7958
 20
90.9826
 11
95.7503
 21
91.0342
  0
LINE
  8
0
 10
95.7503
 20
91.0342
 11
95.6818
 21
91.1114
  0
LINE
  8
0
 10
95.6818
 20
91.1114
 11
95.6361
 21
91.1628
  0
LINE
  8
0
 10
95.6361
 20
91.1628
 11
95.5674
 21
91.2398
  0
LINE
  8
0
 10
95.5674
 20
91.2398
 11
95.5215
 21
91.2911
  0
LINE
  8
0
 10
95.5215
 20
91.2911
 11
95.4525
 21
91.3678
  0
LINE
  8
0
 10
95.4525
 20
91.3678
 11
95.4295
 21
91.3934
  0
LINE
  8
0
 10
95.4295
 20
91.3934
 11
95.3834
 21
91.4445
  0
LINE
  8
0
 10
95.3834
 20
91.4445
 11
95.3373
 21
91.4955
  0
LINE
  8
0
 10
95.3373
 20
91.4955
 11
95.2679
 21
91.572
  0
LINE
  8
0
 10
95.2679
 20
91.572
 11
95.1985
 21
91.6483
  0
LINE
  8
0
 10
95.1985
 20
91.6483
 11
95.1288
 21
91.7245
  0
LINE
  8
0
 10
95.1288
 20
91.7245
 11
95.0823
 21
91.7752
  0
LINE
  8
0
 10
95.0823
 20
91.7752
 11
95.0358
 21
91.8258
  0
LINE
  8
0
 10
95.0358
 20
91.8258
 11
95.0125
 21
91.8511
  0
LINE
  8
0
 10
95.0125
 20
91.8511
 11
94.9425
 21
91.927
  0
LINE
  8
0
 10
94.9425
 20
91.927
 11
94.8723
 21
92.0027
  0
LINE
  8
0
 10
94.8723
 20
92.0027
 11
94.8255
 21
92.053
  0
LINE
  8
0
 10
94.8255
 20
92.053
 11
94.7551
 21
92.1285
  0
LINE
  8
0
 10
94.7551
 20
92.1285
 11
94.6846
 21
92.2039
  0
LINE
  8
0
 10
94.6846
 20
92.2039
 11
94.6139
 21
92.2791
  0
LINE
  8
0
 10
94.6139
 20
92.2791
 11
94.5667
 21
92.3291
  0
LINE
  8
0
 10
94.5667
 20
92.3291
 11
94.4958
 21
92.4041
  0
LINE
  8
0
 10
94.4958
 20
92.4041
 11
94.4485
 21
92.454
  0
LINE
  8
0
 10
94.4485
 20
92.454
 11
94.4047
 21
92.5
  0
LINE
  8
0
 10
94.4047
 20
92.5
 11
15.0953
 21
92.5
  0
LINE
  8
0
 10
15.0953
 20
92.5
 11
15.0515
 21
92.454
  0
LINE
  8
0
 10
15.0515
 20
92.454
 11
14.9805
 21
92.3791
  0
LINE
  8
0
 10
14.9805
 20
92.3791
 11
14.9333
 21
92.3291
  0
LINE
  8
0
 10
14.9333
 20
92.3291
 11
14.8625
 21
92.254
  0
LINE
  8
0
 10
14.8625
 20
92.254
 11
14.8154
 21
92.2039
  0
LINE
  8
0
 10
14.8154
 20
92.2039
 11
14.7449
 21
92.1285
  0
LINE
  8
0
 10
14.7449
 20
92.1285
 11
14.6745
 21
92.053
  0
LINE
  8
0
 10
14.6745
 20
92.053
 11
14.6277
 21
92.0027
  0
LINE
  8
0
 10
14.6277
 20
92.0027
 11
14.5575
 21
91.927
  0
LINE
  8
0
 10
14.5575
 20
91.927
 11
14.4875
 21
91.8511
  0
LINE
  8
0
 10
14.4875
 20
91.8511
 11
14.4177
 21
91.7752
  0
LINE
  8
0
 10
14.4177
 20
91.7752
 11
14.3479
 21
91.6991
  0
LINE
  8
0
 10
14.3479
 20
91.6991
 11
14.2784
 21
91.6229
  0
LINE
  8
0
 10
14.2784
 20
91.6229
 11
14.2321
 21
91.572
  0
LINE
  8
0
 10
14.2321
 20
91.572
 11
14.1627
 21
91.4955
  0
LINE
  8
0
 10
14.1627
 20
91.4955
 11
14.1166
 21
91.4445
  0
LINE
  8
0
 10
14.1166
 20
91.4445
 11
14.0705
 21
91.3934
  0
LINE
  8
0
 10
14.0705
 20
91.3934
 11
14.0245
 21
91.3423
  0
LINE
  8
0
 10
14.0245
 20
91.3423
 11
13.9785
 21
91.2911
  0
LINE
  8
0
 10
13.9785
 20
91.2911
 11
13.9097
 21
91.2141
  0
LINE
  8
0
 10
13.9097
 20
91.2141
 11
13.8411
 21
91.1371
  0
LINE
  8
0
 10
13.8411
 20
91.1371
 11
13.7726
 21
91.0599
  0
LINE
  8
0
 10
13.7726
 20
91.0599
 11
13.7497
 21
91.0342
  0
LINE
  8
0
 10
13.7497
 20
91.0342
 11
13.7042
 21
90.9826
  0
LINE
  8
0
 10
13.7042
 20
90.9826
 11
13.636
 21
90.9052
  0
LINE
  8
0
 10
13.636
 20
90.9052
 11
13.5679
 21
90.8276
  0
LINE
  8
0
 10
13.5679
 20
90.8276
 11
13.5
 21
90.7499
  0
LINE
  8
0
 10
13.5
 20
90.7499
 11
13.4322
 21
90.6721
  0
LINE
  8
0
 10
13.4322
 20
90.6721
 11
13.3871
 21
90.6202
  0
LINE
  8
0
 10
13.3871
 20
90.6202
 11
13.3195
 21
90.5421
  0
LINE
  8
0
 10
13.3195
 20
90.5421
 11
13.2746
 21
90.49
  0
LINE
  8
0
 10
13.2746
 20
90.49
 11
13.2073
 21
90.4118
  0
LINE
  8
0
 10
13.2073
 20
90.4118
 11
13.1625
 21
90.3596
  0
LINE
  8
0
 10
13.1625
 20
90.3596
 11
13.0954
 21
90.2811
  0
LINE
  8
0
 10
13.0954
 20
90.2811
 11
13.0285
 21
90.2025
  0
LINE
  8
0
 10
13.0285
 20
90.2025
 11
12.984
 21
90.1501
  0
LINE
  8
0
 10
12.984
 20
90.1501
 11
12.9396
 21
90.0976
  0
LINE
  8
0
 10
12.9396
 20
90.0976
 11
12.873
 21
90.0187
  0
LINE
  8
0
 10
12.873
 20
90.0187
 11
12.8066
 21
89.9397
  0
LINE
  8
0
 10
12.8066
 20
89.9397
 11
12.7404
 21
89.8606
  0
LINE
  8
0
 10
12.7404
 20
89.8606
 11
12.6743
 21
89.7813
  0
LINE
  8
0
 10
12.6743
 20
89.7813
 11
12.6083
 21
89.7019
  0
LINE
  8
0
 10
12.6083
 20
89.7019
 11
12.5644
 21
89.649
  0
LINE
  8
0
 10
12.5644
 20
89.649
 11
12.5206
 21
89.5959
  0
LINE
  8
0
 10
12.5206
 20
89.5959
 11
12.455
 21
89.5163
  0
LINE
  8
0
 10
12.455
 20
89.5163
 11
12.4113
 21
89.4631
  0
LINE
  8
0
 10
12.4113
 20
89.4631
 11
12.346
 21
89.3832
  0
LINE
  8
0
 10
12.346
 20
89.3832
 11
12.3025
 21
89.3299
  0
LINE
  8
0
 10
12.3025
 20
89.3299
 11
12.2374
 21
89.2498
  0
LINE
  8
0
 10
12.2374
 20
89.2498
 11
12.1724
 21
89.1696
  0
LINE
  8
0
 10
12.1724
 20
89.1696
 11
12.1076
 21
89.0893
  0
LINE
  8
0
 10
12.1076
 20
89.0893
 11
12.043
 21
89.0089
  0
LINE
  8
0
 10
12.043
 20
89.0089
 11
11.9785
 21
88.9283
  0
LINE
  8
0
 10
11.9785
 20
88.9283
 11
11.957
 21
88.9014
  0
LINE
  8
0
 10
11.957
 20
88.9014
 11
11.9141
 21
88.8476
  0
LINE
  8
0
 10
11.9141
 20
88.8476
 11
11.8713
 21
88.7938
  0
LINE
  8
0
 10
11.8713
 20
88.7938
 11
11.8072
 21
88.7129
  0
LINE
  8
0
 10
11.8072
 20
88.7129
 11
11.7433
 21
88.6319
  0
LINE
  8
0
 10
11.7433
 20
88.6319
 11
11.7007
 21
88.5778
  0
LINE
  8
0
 10
11.7007
 20
88.5778
 11
11.6582
 21
88.5237
  0
LINE
  8
0
 10
11.6582
 20
88.5237
 11
11.5947
 21
88.4424
  0
LINE
  8
0
 10
11.5947
 20
88.4424
 11
11.5312
 21
88.361
  0
LINE
  8
0
 10
11.5312
 20
88.361
 11
11.489
 21
88.3067
  0
LINE
  8
0
 10
11.489
 20
88.3067
 11
11.4258
 21
88.2251
  0
LINE
  8
0
 10
11.4258
 20
88.2251
 11
11.3628
 21
88.1433
  0
LINE
  8
0
 10
11.3628
 20
88.1433
 11
11.3209
 21
88.0888
  0
LINE
  8
0
 10
11.3209
 20
88.0888
 11
11.279
 21
88.0342
  0
LINE
  8
0
 10
11.279
 20
88.0342
 11
11.2164
 21
87.9522
  0
LINE
  8
0
 10
11.2164
 20
87.9522
 11
11.1747
 21
87.8974
  0
LINE
  8
0
 10
11.1747
 20
87.8974
 11
11.1331
 21
87.8427
  0
LINE
  8
0
 10
11.1331
 20
87.8427
 11
11.0708
 21
87.7604
  0
LINE
  8
0
 10
11.0708
 20
87.7604
 11
11.0293
 21
87.7055
  0
LINE
  8
0
 10
11.0293
 20
87.7055
 11
10.9673
 21
87.623
  0
LINE
  8
0
 10
10.9673
 20
87.623
 11
10.9054
 21
87.5404
  0
LINE
  8
0
 10
10.9054
 20
87.5404
 11
10.8642
 21
87.4853
  0
LINE
  8
0
 10
10.8642
 20
87.4853
 11
10.8026
 21
87.4025
  0
LINE
  8
0
 10
10.8026
 20
87.4025
 11
10.7411
 21
87.3196
  0
LINE
  8
0
 10
10.7411
 20
87.3196
 11
10.7002
 21
87.2643
  0
LINE
  8
0
 10
10.7002
 20
87.2643
 11
10.6594
 21
87.2089
  0
LINE
  8
0
 10
10.6594
 20
87.2089
 11
10.5983
 21
87.1257
  0
LINE
  8
0
 10
10.5983
 20
87.1257
 11
10.5576
 21
87.0702
  0
LINE
  8
0
 10
10.5576
 20
87.0702
 11
10.4968
 21
86.9869
  0
LINE
  8
0
 10
10.4968
 20
86.9869
 11
10.4361
 21
86.9034
  0
LINE
  8
0
 10
10.4361
 20
86.9034
 11
10.3756
 21
86.8198
  0
LINE
  8
0
 10
10.3756
 20
86.8198
 11
10.3554
 21
86.7919
  0
LINE
  8
0
 10
10.3554
 20
86.7919
 11
10.2951
 21
86.7082
  0
LINE
  8
0
 10
10.2951
 20
86.7082
 11
10.235
 21
86.6243
  0
LINE
  8
0
 10
10.235
 20
86.6243
 11
10.175
 21
86.5404
  0
LINE
  8
0
 10
10.175
 20
86.5404
 11
10.1151
 21
86.4563
  0
LINE
  8
0
 10
10.1151
 20
86.4563
 11
10.0554
 21
86.3721
  0
LINE
  8
0
 10
10.0554
 20
86.3721
 11
9.99591
 21
86.2878
  0
LINE
  8
0
 10
9.99591
 20
86.2878
 11
9.93654
 21
86.2034
  0
LINE
  8
0
 10
9.93654
 20
86.2034
 11
9.87733
 21
86.1189
  0
LINE
  8
0
 10
9.87733
 20
86.1189
 11
9.81828
 21
86.0342
  0
LINE
  8
0
 10
9.81828
 20
86.0342
 11
9.79863
 21
86.006
  0
LINE
  8
0
 10
9.79863
 20
86.006
 11
9.75938
 21
85.9495
  0
LINE
  8
0
 10
9.75938
 20
85.9495
 11
9.72021
 21
85.8929
  0
LINE
  8
0
 10
9.72021
 20
85.8929
 11
9.66159
 21
85.808
  0
LINE
  8
0
 10
9.66159
 20
85.808
 11
9.60313
 21
85.7229
  0
LINE
  8
0
 10
9.60313
 20
85.7229
 11
9.54483
 21
85.6378
  0
LINE
  8
0
 10
9.54483
 20
85.6378
 11
9.48669
 21
85.5525
  0
LINE
  8
0
 10
9.48669
 20
85.5525
 11
9.44801
 21
85.4956
  0
LINE
  8
0
 10
9.44801
 20
85.4956
 11
9.39015
 21
85.4102
  0
LINE
  8
0
 10
9.39015
 20
85.4102
 11
9.33243
 21
85.3246
  0
LINE
  8
0
 10
9.33243
 20
85.3246
 11
9.27489
 21
85.2389
  0
LINE
  8
0
 10
9.27489
 20
85.2389
 11
9.2366
 21
85.1818
  0
LINE
  8
0
 10
9.2366
 20
85.1818
 11
9.19839
 21
85.1245
  0
LINE
  8
0
 10
9.19839
 20
85.1245
 11
9.14122
 21
85.0386
  0
LINE
  8
0
 10
9.14122
 20
85.0386
 11
9.1032
 21
84.9813
  0
LINE
  8
0
 10
9.1032
 20
84.9813
 11
9.0463
 21
84.8952
  0
LINE
  8
0
 10
9.0463
 20
84.8952
 11
8.98955
 21
84.809
  0
LINE
  8
0
 10
8.98955
 20
84.809
 11
8.95181
 21
84.7515
  0
LINE
  8
0
 10
8.95181
 20
84.7515
 11
8.89534
 21
84.6651
  0
LINE
  8
0
 10
8.89534
 20
84.6651
 11
8.83904
 21
84.5786
  0
LINE
  8
0
 10
8.83904
 20
84.5786
 11
8.7829
 21
84.492
  0
LINE
  8
0
 10
8.7829
 20
84.492
 11
8.72691
 21
84.4053
  0
LINE
  8
0
 10
8.72691
 20
84.4053
 11
8.68968
 21
84.3474
  0
LINE
  8
0
 10
8.68968
 20
84.3474
 11
8.63397
 21
84.2606
  0
LINE
  8
0
 10
8.63397
 20
84.2606
 11
8.57843
 21
84.1736
  0
LINE
  8
0
 10
8.57843
 20
84.1736
 11
8.54149
 21
84.1156
  0
LINE
  8
0
 10
8.54149
 20
84.1156
 11
8.50462
 21
84.0575
  0
LINE
  8
0
 10
8.50462
 20
84.0575
 11
8.46783
 21
83.9993
  0
LINE
  8
0
 10
8.46783
 20
83.9993
 11
8.41278
 21
83.912
  0
LINE
  8
0
 10
8.41278
 20
83.912
 11
8.35789
 21
83.8246
  0
LINE
  8
0
 10
8.35789
 20
83.8246
 11
8.3214
 21
83.7663
  0
LINE
  8
0
 10
8.3214
 20
83.7663
 11
8.26678
 21
83.6787
  0
LINE
  8
0
 10
8.26678
 20
83.6787
 11
8.23047
 21
83.6203
  0
LINE
  8
0
 10
8.23047
 20
83.6203
 11
8.17613
 21
83.5326
  0
LINE
  8
0
 10
8.17613
 20
83.5326
 11
8.14
 21
83.474
  0
LINE
  8
0
 10
8.14
 20
83.474
 11
8.10394
 21
83.4154
  0
LINE
  8
0
 10
8.10394
 20
83.4154
 11
8.04999
 21
83.3275
  0
LINE
  8
0
 10
8.04999
 20
83.3275
 11
8.01411
 21
83.2687
  0
LINE
  8
0
 10
8.01411
 20
83.2687
 11
7.97832
 21
83.21
  0
LINE
  8
0
 10
7.97832
 20
83.21
 11
7.92476
 21
83.1218
  0
LINE
  8
0
 10
7.92476
 20
83.1218
 11
7.87135
 21
83.0335
  0
LINE
  8
0
 10
7.87135
 20
83.0335
 11
7.81813
 21
82.9451
  0
LINE
  8
0
 10
7.81813
 20
82.9451
 11
7.76506
 21
82.8565
  0
LINE
  8
0
 10
7.76506
 20
82.8565
 11
7.71217
 21
82.7679
  0
LINE
  8
0
 10
7.71217
 20
82.7679
 11
7.65944
 21
82.6792
  0
LINE
  8
0
 10
7.65944
 20
82.6792
 11
7.62437
 21
82.62
  0
LINE
  8
0
 10
7.62437
 20
82.62
 11
7.60687
 21
82.5904
  0
LINE
  8
0
 10
7.60687
 20
82.5904
 11
7.57193
 21
82.5311
  0
LINE
  8
0
 10
7.57193
 20
82.5311
 11
7.51965
 21
82.4422
  0
LINE
  8
0
 10
7.51965
 20
82.4422
 11
7.46753
 21
82.3531
  0
LINE
  8
0
 10
7.46753
 20
82.3531
 11
7.41559
 21
82.2639
  0
LINE
  8
0
 10
7.41559
 20
82.2639
 11
7.36382
 21
82.1746
  0
LINE
  8
0
 10
7.36382
 20
82.1746
 11
7.31219
 21
82.0853
  0
LINE
  8
0
 10
7.31219
 20
82.0853
 11
7.29503
 21
82.0555
  0
LINE
  8
0
 10
7.29503
 20
82.0555
 11
7.24365
 21
81.966
  0
LINE
  8
0
 10
7.24365
 20
81.966
 11
7.19243
 21
81.8764
  0
LINE
  8
0
 10
7.19243
 20
81.8764
 11
7.14139
 21
81.7867
  0
LINE
  8
0
 10
7.14139
 20
81.7867
 11
7.0905
 21
81.6969
  0
LINE
  8
0
 10
7.0905
 20
81.6969
 11
7.07358
 21
81.6669
  0
LINE
  8
0
 10
7.07358
 20
81.6669
 11
7.03979
 21
81.607
  0
LINE
  8
0
 10
7.03979
 20
81.607
 11
6.98926
 21
81.517
  0
LINE
  8
0
 10
6.98926
 20
81.517
 11
6.93889
 21
81.4269
  0
LINE
  8
0
 10
6.93889
 20
81.4269
 11
6.9054
 21
81.3668
  0
LINE
  8
0
 10
6.9054
 20
81.3668
 11
6.85532
 21
81.2766
  0
LINE
  8
0
 10
6.85532
 20
81.2766
 11
6.82202
 21
81.2164
  0
LINE
  8
0
 10
6.82202
 20
81.2164
 11
6.77222
 21
81.126
  0
LINE
  8
0
 10
6.77222
 20
81.126
 11
6.72258
 21
81.0355
  0
LINE
  8
0
 10
6.72258
 20
81.0355
 11
6.67313
 21
80.9449
  0
LINE
  8
0
 10
6.67313
 20
80.9449
 11
6.62383
 21
80.8543
  0
LINE
  8
0
 10
6.62383
 20
80.8543
 11
6.57471
 21
80.7635
  0
LINE
  8
0
 10
6.57471
 20
80.7635
 11
6.52576
 21
80.6727
  0
LINE
  8
0
 10
6.52576
 20
80.6727
 11
6.49323
 21
80.612
  0
LINE
  8
0
 10
6.49323
 20
80.612
 11
6.44456
 21
80.521
  0
LINE
  8
0
 10
6.44456
 20
80.521
 11
6.41222
 21
80.4603
  0
LINE
  8
0
 10
6.41222
 20
80.4603
 11
6.37994
 21
80.3996
  0
LINE
  8
0
 10
6.37994
 20
80.3996
 11
6.34775
 21
80.3387
  0
LINE
  8
0
 10
6.34775
 20
80.3387
 11
6.31563
 21
80.2779
  0
LINE
  8
0
 10
6.31563
 20
80.2779
 11
6.26761
 21
80.1866
  0
LINE
  8
0
 10
6.26761
 20
80.1866
 11
6.23567
 21
80.1256
  0
LINE
  8
0
 10
6.23567
 20
80.1256
 11
6.18793
 21
80.0341
  0
LINE
  8
0
 10
6.18793
 20
80.0341
 11
6.14035
 21
79.9425
  0
LINE
  8
0
 10
6.14035
 20
79.9425
 11
6.10873
 21
79.8814
  0
LINE
  8
0
 10
6.10873
 20
79.8814
 11
6.06145
 21
79.7897
  0
LINE
  8
0
 10
6.06145
 20
79.7897
 11
6.01434
 21
79.6979
  0
LINE
  8
0
 10
6.01434
 20
79.6979
 11
5.96741
 21
79.606
  0
LINE
  8
0
 10
5.96741
 20
79.606
 11
5.9362
 21
79.5446
  0
LINE
  8
0
 10
5.9362
 20
79.5446
 11
5.88956
 21
79.4526
  0
LINE
  8
0
 10
5.88956
 20
79.4526
 11
5.84308
 21
79.3605
  0
LINE
  8
0
 10
5.84308
 20
79.3605
 11
5.79677
 21
79.2682
  0
LINE
  8
0
 10
5.79677
 20
79.2682
 11
5.78137
 21
79.2375
  0
LINE
  8
0
 10
5.78137
 20
79.2375
 11
5.75064
 21
79.1759
  0
LINE
  8
0
 10
5.75064
 20
79.1759
 11
5.71999
 21
79.1143
  0
LINE
  8
0
 10
5.71999
 20
79.1143
 11
5.67415
 21
79.0219
  0
LINE
  8
0
 10
5.67415
 20
79.0219
 11
5.64369
 21
78.9602
  0
LINE
  8
0
 10
5.64369
 20
78.9602
 11
5.59814
 21
78.8676
  0
LINE
  8
0
 10
5.59814
 20
78.8676
 11
5.56787
 21
78.8058
  0
LINE
  8
0
 10
5.56787
 20
78.8058
 11
5.52261
 21
78.713
  0
LINE
  8
0
 10
5.52261
 20
78.713
 11
5.49254
 21
78.6511
  0
LINE
  8
0
 10
5.49254
 20
78.6511
 11
5.46254
 21
78.5892
  0
LINE
  8
0
 10
5.46254
 20
78.5892
 11
5.41769
 21
78.4963
  0
LINE
  8
0
 10
5.41769
 20
78.4963
 11
5.38789
 21
78.4343
  0
LINE
  8
0
 10
5.38789
 20
78.4343
 11
5.34334
 21
78.3412
  0
LINE
  8
0
 10
5.34334
 20
78.3412
 11
5.31374
 21
78.2791
  0
LINE
  8
0
 10
5.31374
 20
78.2791
 11
5.26947
 21
78.1858
  0
LINE
  8
0
 10
5.26947
 20
78.1858
 11
5.22539
 21
78.0925
  0
LINE
  8
0
 10
5.22539
 20
78.0925
 11
5.19609
 21
78.0303
  0
LINE
  8
0
 10
5.19609
 20
78.0303
 11
5.16687
 21
77.968
  0
LINE
  8
0
 10
5.16687
 20
77.968
 11
5.1232
 21
77.8745
  0
LINE
  8
0
 10
5.1232
 20
77.8745
 11
5.09418
 21
77.8121
  0
LINE
  8
0
 10
5.09418
 20
77.8121
 11
5.06523
 21
77.7497
  0
LINE
  8
0
 10
5.06523
 20
77.7497
 11
5.02197
 21
77.656
  0
LINE
  8
0
 10
5.02197
 20
77.656
 11
4.99323
 21
77.5935
  0
LINE
  8
0
 10
4.99323
 20
77.5935
 11
4.96455
 21
77.5309
  0
LINE
  8
0
 10
4.96455
 20
77.5309
 11
4.92171
 21
77.4371
  0
LINE
  8
0
 10
4.92171
 20
77.4371
 11
4.87903
 21
77.3431
  0
LINE
  8
0
 10
4.87903
 20
77.3431
 11
4.85068
 21
77.2804
  0
LINE
  8
0
 10
4.85068
 20
77.2804
 11
4.8224
 21
77.2177
  0
LINE
  8
0
 10
4.8224
 20
77.2177
 11
4.78014
 21
77.1235
  0
LINE
  8
0
 10
4.78014
 20
77.1235
 11
4.73805
 21
77.0293
  0
LINE
  8
0
 10
4.73805
 20
77.0293
 11
4.7101
 21
76.9664
  0
LINE
  8
0
 10
4.7101
 20
76.9664
 11
4.68222
 21
76.9035
  0
LINE
  8
0
 10
4.68222
 20
76.9035
 11
4.65442
 21
76.8406
  0
LINE
  8
0
 10
4.65442
 20
76.8406
 11
4.61287
 21
76.7461
  0
LINE
  8
0
 10
4.61287
 20
76.7461
 11
4.58527
 21
76.6831
  0
LINE
  8
0
 10
4.58527
 20
76.6831
 11
4.54402
 21
76.5885
  0
LINE
  8
0
 10
4.54402
 20
76.5885
 11
4.51662
 21
76.5254
  0
LINE
  8
0
 10
4.51662
 20
76.5254
 11
4.48929
 21
76.4623
  0
LINE
  8
0
 10
4.48929
 20
76.4623
 11
4.44846
 21
76.3675
  0
LINE
  8
0
 10
4.44846
 20
76.3675
 11
4.42133
 21
76.3043
  0
LINE
  8
0
 10
4.42133
 20
76.3043
 11
4.38078
 21
76.2094
  0
LINE
  8
0
 10
4.38078
 20
76.2094
 11
4.34042
 21
76.1144
  0
LINE
  8
0
 10
4.34042
 20
76.1144
 11
4.31361
 21
76.051
  0
LINE
  8
0
 10
4.31361
 20
76.051
 11
4.27356
 21
75.9559
  0
LINE
  8
0
 10
4.27356
 20
75.9559
 11
4.24695
 21
75.8925
  0
LINE
  8
0
 10
4.24695
 20
75.8925
 11
4.20718
 21
75.7972
  0
LINE
  8
0
 10
4.20718
 20
75.7972
 11
4.18077
 21
75.7337
  0
LINE
  8
0
 10
4.18077
 20
75.7337
 11
4.14131
 21
75.6383
  0
LINE
  8
0
 10
4.14131
 20
75.6383
 11
4.08897
 21
75.5111
  0
LINE
  8
0
 10
4.08897
 20
75.5111
 11
4.04993
 21
75.4155
  0
LINE
  8
0
 10
4.04993
 20
75.4155
 11
4.01106
 21
75.3199
  0
LINE
  8
0
 10
4.01106
 20
75.3199
 11
3.97238
 21
75.2243
  0
LINE
  8
0
 10
3.97238
 20
75.2243
 11
3.93388
 21
75.1285
  0
LINE
  8
0
 10
3.93388
 20
75.1285
 11
3.90831
 21
75.0646
  0
LINE
  8
0
 10
3.90831
 20
75.0646
 11
3.88283
 21
75.0007
  0
LINE
  8
0
 10
3.88283
 20
75.0007
 11
3.84474
 21
74.9048
  0
LINE
  8
0
 10
3.84474
 20
74.9048
 11
3.80684
 21
74.8088
  0
LINE
  8
0
 10
3.80684
 20
74.8088
 11
3.76912
 21
74.7128
  0
LINE
  8
0
 10
3.76912
 20
74.7128
 11
3.73158
 21
74.6166
  0
LINE
  8
0
 10
3.73158
 20
74.6166
 11
3.69423
 21
74.5204
  0
LINE
  8
0
 10
3.69423
 20
74.5204
 11
3.66942
 21
74.4563
  0
LINE
  8
0
 10
3.66942
 20
74.4563
 11
3.63237
 21
74.3599
  0
LINE
  8
0
 10
3.63237
 20
74.3599
 11
3.5955
 21
74.2635
  0
LINE
  8
0
 10
3.5955
 20
74.2635
 11
3.57101
 21
74.1992
  0
LINE
  8
0
 10
3.57101
 20
74.1992
 11
3.54662
 21
74.1349
  0
LINE
  8
0
 10
3.54662
 20
74.1349
 11
3.52229
 21
74.0706
  0
LINE
  8
0
 10
3.52229
 20
74.0706
 11
3.49806
 21
74.0062
  0
LINE
  8
0
 10
3.49806
 20
74.0062
 11
3.46185
 21
73.9095
  0
LINE
  8
0
 10
3.46185
 20
73.9095
 11
3.42583
 21
73.8128
  0
LINE
  8
0
 10
3.42583
 20
73.8128
 11
3.38998
 21
73.716
  0
LINE
  8
0
 10
3.38998
 20
73.716
 11
3.35432
 21
73.6192
  0
LINE
  8
0
 10
3.35432
 20
73.6192
 11
3.31885
 21
73.5223
  0
LINE
  8
0
 10
3.31885
 20
73.5223
 11
3.28355
 21
73.4253
  0
LINE
  8
0
 10
3.28355
 20
73.4253
 11
3.24844
 21
73.3283
  0
LINE
  8
0
 10
3.24844
 20
73.3283
 11
3.21352
 21
73.2311
  0
LINE
  8
0
 10
3.21352
 20
73.2311
 11
3.17877
 21
73.134
  0
LINE
  8
0
 10
3.17877
 20
73.134
 11
3.14421
 21
73.0367
  0
LINE
  8
0
 10
3.14421
 20
73.0367
 11
3.10983
 21
72.9394
  0
LINE
  8
0
 10
3.10983
 20
72.9394
 11
3.07564
 21
72.842
  0
LINE
  8
0
 10
3.07564
 20
72.842
 11
3.04163
 21
72.7446
  0
LINE
  8
0
 10
3.04163
 20
72.7446
 11
3.0078
 21
72.6471
  0
LINE
  8
0
 10
3.0078
 20
72.6471
 11
2.98535
 21
72.5821
  0
LINE
  8
0
 10
2.98535
 20
72.5821
 11
2.96298
 21
72.517
  0
LINE
  8
0
 10
2.96298
 20
72.517
 11
2.9296
 21
72.4194
  0
LINE
  8
0
 10
2.9296
 20
72.4194
 11
2.90742
 21
72.3542
  0
LINE
  8
0
 10
2.90742
 20
72.3542
 11
2.87433
 21
72.2565
  0
LINE
  8
0
 10
2.87433
 20
72.2565
 11
2.85237
 21
72.1913
  0
LINE
  8
0
 10
2.85237
 20
72.1913
 11
2.8196
 21
72.0934
  0
LINE
  8
0
 10
2.8196
 20
72.0934
 11
2.79784
 21
72.0282
  0
LINE
  8
0
 10
2.79784
 20
72.0282
 11
2.76537
 21
71.9302
  0
LINE
  8
0
 10
2.76537
 20
71.9302
 11
2.74382
 21
71.8649
  0
LINE
  8
0
 10
2.74382
 20
71.8649
 11
2.71164
 21
71.7668
  0
LINE
  8
0
 10
2.71164
 20
71.7668
 11
2.70096
 21
71.7341
  0
LINE
  8
0
 10
2.70096
 20
71.7341
 11
2.66904
 21
71.636
  0
LINE
  8
0
 10
2.66904
 20
71.636
 11
2.64786
 21
71.5705
  0
LINE
  8
0
 10
2.64786
 20
71.5705
 11
2.61626
 21
71.4723
  0
LINE
  8
0
 10
2.61626
 20
71.4723
 11
2.59528
 21
71.4067
  0
LINE
  8
0
 10
2.59528
 20
71.4067
 11
2.57439
 21
71.3412
  0
LINE
  8
0
 10
2.57439
 20
71.3412
 11
2.55357
 21
71.2756
  0
LINE
  8
0
 10
2.55357
 20
71.2756
 11
2.53285
 21
71.21
  0
LINE
  8
0
 10
2.53285
 20
71.21
 11
2.51221
 21
71.1444
  0
LINE
  8
0
 10
2.51221
 20
71.1444
 11
2.4814
 21
71.0459
  0
LINE
  8
0
 10
2.4814
 20
71.0459
 11
2.45078
 21
70.9473
  0
LINE
  8
0
 10
2.45078
 20
70.9473
 11
2.42033
 21
70.8487
  0
LINE
  8
0
 10
2.42033
 20
70.8487
 11
2.40015
 21
70.7829
  0
LINE
  8
0
 10
2.40015
 20
70.7829
 11
2.37003
 21
70.6842
  0
LINE
  8
0
 10
2.37003
 20
70.6842
 11
2.35004
 21
70.6184
  0
LINE
  8
0
 10
2.35004
 20
70.6184
 11
2.32022
 21
70.5196
  0
LINE
  8
0
 10
2.32022
 20
70.5196
 11
2.29059
 21
70.4207
  0
LINE
  8
0
 10
2.29059
 20
70.4207
 11
2.26114
 21
70.3218
  0
LINE
  8
0
 10
2.26114
 20
70.3218
 11
2.23189
 21
70.2229
  0
LINE
  8
0
 10
2.23189
 20
70.2229
 11
2.21248
 21
70.1568
  0
LINE
  8
0
 10
2.21248
 20
70.1568
 11
2.18353
 21
70.0578
  0
LINE
  8
0
 10
2.18353
 20
70.0578
 11
2.15477
 21
69.9587
  0
LINE
  8
0
 10
2.15477
 20
69.9587
 11
2.12621
 21
69.8595
  0
LINE
  8
0
 10
2.12621
 20
69.8595
 11
2.09781
 21
69.7603
  0
LINE
  8
0
 10
2.09781
 20
69.7603
 11
2.06961
 21
69.661
  0
LINE
  8
0
 10
2.06961
 20
69.661
 11
2.0416
 21
69.5617
  0
LINE
  8
0
 10
2.0416
 20
69.5617
 11
2.02303
 21
69.4954
  0
LINE
  8
0
 10
2.02303
 20
69.4954
 11
1.99533
 21
69.396
  0
LINE
  8
0
 10
1.99533
 20
69.396
 11
1.97696
 21
69.3297
  0
LINE
  8
0
 10
1.97696
 20
69.3297
 11
1.94957
 21
69.2302
  0
LINE
  8
0
 10
1.94957
 20
69.2302
 11
1.92238
 21
69.1307
  0
LINE
  8
0
 10
1.92238
 20
69.1307
 11
1.90434
 21
69.0643
  0
LINE
  8
0
 10
1.90434
 20
69.0643
 11
1.87746
 21
68.9646
  0
LINE
  8
0
 10
1.87746
 20
68.9646
 11
1.85075
 21
68.8649
  0
LINE
  8
0
 10
1.85075
 20
68.8649
 11
1.82425
 21
68.7652
  0
LINE
  8
0
 10
1.82425
 20
68.7652
 11
1.80667
 21
68.6987
  0
LINE
  8
0
 10
1.80667
 20
68.6987
 11
1.78047
 21
68.5989
  0
LINE
  8
0
 10
1.78047
 20
68.5989
 11
1.75447
 21
68.499
  0
LINE
  8
0
 10
1.75447
 20
68.499
 11
1.72864
 21
68.3991
  0
LINE
  8
0
 10
1.72864
 20
68.3991
 11
1.71153
 21
68.3324
  0
LINE
  8
0
 10
1.71153
 20
68.3324
 11
1.68602
 21
68.2324
  0
LINE
  8
0
 10
1.68602
 20
68.2324
 11
1.66071
 21
68.1324
  0
LINE
  8
0
 10
1.66071
 20
68.1324
 11
1.63557
 21
68.0323
  0
LINE
  8
0
 10
1.63557
 20
68.0323
 11
1.61893
 21
67.9655
  0
LINE
  8
0
 10
1.61893
 20
67.9655
 11
1.60236
 21
67.8988
  0
LINE
  8
0
 10
1.60236
 20
67.8988
 11
1.57767
 21
67.7986
  0
LINE
  8
0
 10
1.57767
 20
67.7986
 11
1.56131
 21
67.7317
  0
LINE
  8
0
 10
1.56131
 20
67.7317
 11
1.53694
 21
67.6315
  0
LINE
  8
0
 10
1.53694
 20
67.6315
 11
1.51276
 21
67.5311
  0
LINE
  8
0
 10
1.51276
 20
67.5311
 11
1.48875
 21
67.4308
  0
LINE
  8
0
 10
1.48875
 20
67.4308
 11
1.46495
 21
67.3303
  0
LINE
  8
0
 10
1.46495
 20
67.3303
 11
1.44133
 21
67.2299
  0
LINE
  8
0
 10
1.44133
 20
67.2299
 11
1.42569
 21
67.1629
  0
LINE
  8
0
 10
1.42569
 20
67.1629
 11
1.40239
 21
67.0623
  0
LINE
  8
0
 10
1.40239
 20
67.0623
 11
1.37927
 21
66.9618
  0
LINE
  8
0
 10
1.37927
 20
66.9618
 11
1.36397
 21
66.8947
  0
LINE
  8
0
 10
1.36397
 20
66.8947
 11
1.34117
 21
66.794
  0
LINE
  8
0
 10
1.34117
 20
66.794
 11
1.31856
 21
66.6933
  0
LINE
  8
0
 10
1.31856
 20
66.6933
 11
1.31107
 21
66.6598
  0
LINE
  8
0
 10
1.31107
 20
66.6598
 11
1.28871
 21
66.559
  0
LINE
  8
0
 10
1.28871
 20
66.559
 11
1.26656
 21
66.4582
  0
LINE
  8
0
 10
1.26656
 20
66.4582
 11
1.25188
 21
66.391
  0
LINE
  8
0
 10
1.25188
 20
66.391
 11
1.23729
 21
66.3238
  0
LINE
  8
0
 10
1.23729
 20
66.3238
 11
1.21558
 21
66.2229
  0
LINE
  8
0
 10
1.21558
 20
66.2229
 11
1.19405
 21
66.1219
  0
LINE
  8
0
 10
1.19405
 20
66.1219
 11
1.1727
 21
66.021
  0
LINE
  8
0
 10
1.1727
 20
66.021
 11
1.15155
 21
65.92
  0
LINE
  8
0
 10
1.15155
 20
65.92
 11
1.13756
 21
65.8526
  0
LINE
  8
0
 10
1.13756
 20
65.8526
 11
1.12364
 21
65.7852
  0
LINE
  8
0
 10
1.12364
 20
65.7852
 11
1.10982
 21
65.7178
  0
LINE
  8
0
 10
1.10982
 20
65.7178
 11
1.09608
 21
65.6504
  0
LINE
  8
0
 10
1.09608
 20
65.6504
 11
1.08243
 21
65.583
  0
LINE
  8
0
 10
1.08243
 20
65.583
 11
1.0621
 21
65.4818
  0
LINE
  8
0
 10
1.0621
 20
65.4818
 11
1.04866
 21
65.4143
  0
LINE
  8
0
 10
1.04866
 20
65.4143
 11
1.02866
 21
65.3131
  0
LINE
  8
0
 10
1.02866
 20
65.3131
 11
1.00883
 21
65.2118
  0
LINE
  8
0
 10
1.00883
 20
65.2118
 11
0.995728
 21
65.1443
  0
LINE
  8
0
 10
0.995728
 20
65.1443
 11
0.982712
 21
65.0767
  0
LINE
  8
0
 10
0.982712
 20
65.0767
 11
0.963348
 21
64.9753
  0
LINE
  8
0
 10
0.963348
 20
64.9753
 11
0.950531
 21
64.9077
  0
LINE
  8
0
 10
0.950531
 20
64.9077
 11
0.931488
 21
64.8063
  0
LINE
  8
0
 10
0.931488
 20
64.8063
 11
0.912628
 21
64.7048
  0
LINE
  8
0
 10
0.912628
 20
64.7048
 11
0.893951
 21
64.6033
  0
LINE
  8
0
 10
0.893951
 20
64.6033
 11
0.875473
 21
64.5018
  0
LINE
  8
0
 10
0.875473
 20
64.5018
 11
0.857193
 21
64.4002
  0
LINE
  8
0
 10
0.857193
 20
64.4002
 11
0.839096
 21
64.2986
  0
LINE
  8
0
 10
0.839096
 20
64.2986
 11
0.821198
 21
64.197
  0
LINE
  8
0
 10
0.821198
 20
64.197
 11
0.803482
 21
64.0953
  0
LINE
  8
0
 10
0.803482
 20
64.0953
 11
0.791779
 21
64.0275
  0
LINE
  8
0
 10
0.791779
 20
64.0275
 11
0.780167
 21
63.9597
  0
LINE
  8
0
 10
0.780167
 20
63.9597
 11
0.768631
 21
63.8919
  0
LINE
  8
0
 10
0.768631
 20
63.8919
 11
0.757187
 21
63.8241
  0
LINE
  8
0
 10
0.757187
 20
63.8241
 11
0.740189
 21
63.7223
  0
LINE
  8
0
 10
0.740189
 20
63.7223
 11
0.723373
 21
63.6204
  0
LINE
  8
0
 10
0.723373
 20
63.6204
 11
0.706741
 21
63.5186
  0
LINE
  8
0
 10
0.706741
 20
63.5186
 11
0.690308
 21
63.4167
  0
LINE
  8
0
 10
0.690308
 20
63.4167
 11
0.679459
 21
63.3488
  0
LINE
  8
0
 10
0.679459
 20
63.3488
 11
0.663345
 21
63.2468
  0
LINE
  8
0
 10
0.663345
 20
63.2468
 11
0.65271
 21
63.1788
  0
LINE
  8
0
 10
0.65271
 20
63.1788
 11
0.636917
 21
63.0769
  0
LINE
  8
0
 10
0.636917
 20
63.0769
 11
0.631699
 21
63.0429
  0
LINE
  8
0
 10
0.631699
 20
63.0429
 11
0.616165
 21
62.9408
  0
LINE
  8
0
 10
0.616165
 20
62.9408
 11
0.605911
 21
62.8728
  0
LINE
  8
0
 10
0.605911
 20
62.8728
 11
0.590698
 21
62.7707
  0
LINE
  8
0
 10
0.590698
 20
62.7707
 11
0.575684
 21
62.6686
  0
LINE
  8
0
 10
0.575684
 20
62.6686
 11
0.565765
 21
62.6005
  0
LINE
  8
0
 10
0.565765
 20
62.6005
 11
0.551071
 21
62.4984
  0
LINE
  8
0
 10
0.551071
 20
62.4984
 11
0.53656
 21
62.3962
  0
LINE
  8
0
 10
0.53656
 20
62.3962
 11
0.526993
 21
62.3281
  0
LINE
  8
0
 10
0.526993
 20
62.3281
 11
0.512802
 21
62.2259
  0
LINE
  8
0
 10
0.512802
 20
62.2259
 11
0.503448
 21
62.1577
  0
LINE
  8
0
 10
0.503448
 20
62.1577
 11
0.494186
 21
62.0895
  0
LINE
  8
0
 10
0.494186
 20
62.0895
 11
0.480453
 21
61.9872
  0
LINE
  8
0
 10
0.480453
 20
61.9872
 11
0.466904
 21
61.8849
  0
LINE
  8
0
 10
0.466904
 20
61.8849
 11
0.457977
 21
61.8167
  0
LINE
  8
0
 10
0.457977
 20
61.8167
 11
0.449142
 21
61.7485
  0
LINE
  8
0
 10
0.449142
 20
61.7485
 11
0.43605
 21
61.6461
  0
LINE
  8
0
 10
0.43605
 20
61.6461
 11
0.423141
 21
61.5437
  0
LINE
  8
0
 10
0.423141
 20
61.5437
 11
0.410431
 21
61.4413
  0
LINE
  8
0
 10
0.410431
 20
61.4413
 11
0.397919
 21
61.3389
  0
LINE
  8
0
 10
0.397919
 20
61.3389
 11
0.389679
 21
61.2706
  0
LINE
  8
0
 10
0.389679
 20
61.2706
 11
0.377487
 21
61.1681
  0
LINE
  8
0
 10
0.377487
 20
61.1681
 11
0.369461
 21
61.0997
  0
LINE
  8
0
 10
0.369461
 20
61.0997
 11
0.35759
 21
60.9972
  0
LINE
  8
0
 10
0.35759
 20
60.9972
 11
0.345917
 21
60.8947
  0
LINE
  8
0
 10
0.345917
 20
60.8947
 11
0.334427
 21
60.7921
  0
LINE
  8
0
 10
0.334427
 20
60.7921
 11
0.326874
 21
60.7238
  0
LINE
  8
0
 10
0.326874
 20
60.7238
 11
0.319412
 21
60.6553
  0
LINE
  8
0
 10
0.319412
 20
60.6553
 11
0.30838
 21
60.5527
  0
LINE
  8
0
 10
0.30838
 20
60.5527
 11
0.301132
 21
60.4843
  0
LINE
  8
0
 10
0.301132
 20
60.4843
 11
0.290421
 21
60.3817
  0
LINE
  8
0
 10
0.290421
 20
60.3817
 11
0.283386
 21
60.3132
  0
LINE
  8
0
 10
0.283386
 20
60.3132
 11
0.272995
 21
60.2106
  0
LINE
  8
0
 10
0.272995
 20
60.2106
 11
0.266174
 21
60.1421
  0
LINE
  8
0
 10
0.266174
 20
60.1421
 11
0.259445
 21
60.0736
  0
LINE
  8
0
 10
0.259445
 20
60.0736
 11
0.252792
 21
60.0052
  0
LINE
  8
0
 10
0.252792
 20
60.0052
 11
0.246231
 21
59.9367
  0
LINE
  8
0
 10
0.246231
 20
59.9367
 11
0.236557
 21
59.8339
  0
LINE
  8
0
 10
0.236557
 20
59.8339
 11
0.227066
 21
59.7312
  0
LINE
  8
0
 10
0.227066
 20
59.7312
 11
0.217773
 21
59.6284
  0
LINE
  8
0
 10
0.217773
 20
59.6284
 11
0.211685
 21
59.5598
  0
LINE
  8
0
 10
0.211685
 20
59.5598
 11
0.205688
 21
59.4913
  0
LINE
  8
0
 10
0.205688
 20
59.4913
 11
0.196854
 21
59.3885
  0
LINE
  8
0
 10
0.196854
 20
59.3885
 11
0.188202
 21
59.2856
  0
LINE
  8
0
 10
0.188202
 20
59.2856
 11
0.182541
 21
59.2171
  0
LINE
  8
0
 10
0.182541
 20
59.2171
 11
0.176971
 21
59.1485
  0
LINE
  8
0
 10
0.176971
 20
59.1485
 11
0.168777
 21
59.0456
  0
LINE
  8
0
 10
0.168777
 20
59.0456
 11
0.163422
 21
58.977
  0
LINE
  8
0
 10
0.163422
 20
58.977
 11
0.158157
 21
58.9084
  0
LINE
  8
0
 10
0.158157
 20
58.9084
 11
0.150421
 21
58.8055
  0
LINE
  8
0
 10
0.150421
 20
58.8055
 11
0.142868
 21
58.7026
  0
LINE
  8
0
 10
0.142868
 20
58.7026
 11
0.137939
 21
58.634
  0
LINE
  8
0
 10
0.137939
 20
58.634
 11
0.133102
 21
58.5654
  0
LINE
  8
0
 10
0.133102
 20
58.5654
 11
0.126007
 21
58.4624
  0
LINE
  8
0
 10
0.126007
 20
58.4624
 11
0.11911
 21
58.3594
  0
LINE
  8
0
 10
0.11911
 20
58.3594
 11
0.112411
 21
58.2564
  0
LINE
  8
0
 10
0.112411
 20
58.2564
 11
0.105896
 21
58.1534
  0
LINE
  8
0
 10
0.105896
 20
58.1534
 11
0.101654
 21
58.0848
  0
LINE
  8
0
 10
0.101654
 20
58.0848
 11
0.0954742
 21
57.9818
  0
LINE
  8
0
 10
0.0954742
 20
57.9818
 11
0.0894775
 21
57.8787
  0
LINE
  8
0
 10
0.0894775
 20
57.8787
 11
0.0855865
 21
57.81
  0
LINE
  8
0
 10
0.0855865
 20
57.81
 11
0.0817871
 21
57.7413
  0
LINE
  8
0
 10
0.0817871
 20
57.7413
 11
0.078064
 21
57.6726
  0
LINE
  8
0
 10
0.078064
 20
57.6726
 11
0.0726624
 21
57.5696
  0
LINE
  8
0
 10
0.0726624
 20
57.5696
 11
0.0691528
 21
57.5009
  0
LINE
  8
0
 10
0.0691528
 20
57.5009
 11
0.0640717
 21
57.3978
  0
LINE
  8
0
 10
0.0640717
 20
57.3978
 11
0.0591736
 21
57.2947
  0
LINE
  8
0
 10
0.0591736
 20
57.2947
 11
0.0544739
 21
57.1916
  0
LINE
  8
0
 10
0.0544739
 20
57.1916
 11
0.0499725
 21
57.0885
  0
LINE
  8
0
 10
0.0499725
 20
57.0885
 11
0.0456543
 21
56.9854
  0
LINE
  8
0
 10
0.0456543
 20
56.9854
 11
0.0428925
 21
56.9167
  0
LINE
  8
0
 10
0.0428925
 20
56.9167
 11
0.0389099
 21
56.8135
  0
LINE
  8
0
 10
0.0389099
 20
56.8135
 11
0.0351105
 21
56.7104
  0
LINE
  8
0
 10
0.0351105
 20
56.7104
 11
0.0315247
 21
56.6073
  0
LINE
  8
0
 10
0.0315247
 20
56.6073
 11
0.0292206
 21
56.5385
  0
LINE
  8
0
 10
0.0292206
 20
56.5385
 11
0.0259552
 21
56.4353
  0
LINE
  8
0
 10
0.0259552
 20
56.4353
 11
0.0228729
 21
56.3322
  0
LINE
  8
0
 10
0.0228729
 20
56.3322
 11
0.019989
 21
56.229
  0
LINE
  8
0
 10
0.019989
 20
56.229
 11
0.0181732
 21
56.1602
  0
LINE
  8
0
 10
0.0181732
 20
56.1602
 11
0.0156097
 21
56.0571
  0
LINE
  8
0
 10
0.0156097
 20
56.0571
 11
0.0140076
 21
55.9883
  0
LINE
  8
0
 10
0.0140076
 20
55.9883
 11
0.0124969
 21
55.9195
  0
LINE
  8
0
 10
0.0124969
 20
55.9195
 11
0.0103912
 21
55.8163
  0
LINE
  8
0
 10
0.0103912
 20
55.8163
 11
0.00909424
 21
55.7475
  0
LINE
  8
0
 10
0.00909424
 20
55.7475
 11
0.00730896
 21
55.6444
  0
LINE
  8
0
 10
0.00730896
 20
55.6444
 11
0.00622559
 21
55.5756
  0
LINE
  8
0
 10
0.00622559
 20
55.5756
 11
0.00523376
 21
55.5068
  0
LINE
  8
0
 10
0.00523376
 20
55.5068
 11
0.00390625
 21
55.4036
  0
LINE
  8
0
 10
0.00390625
 20
55.4036
 11
0.00312805
 21
55.3348
  0
LINE
  8
0
 10
0.00312805
 20
55.3348
 11
0.00212097
 21
55.2316
  0
LINE
  8
0
 10
0.00212097
 20
55.2316
 11
0.0015564
 21
55.1628
  0
LINE
  8
0
 10
0.0015564
 20
55.1628
 11
0.00108337
 21
55.094
  0
LINE
  8
0
 10
0.00108337
 20
55.094
 11
0.000534058
 21
54.9908
  0
LINE
  8
0
 10
0.000534058
 20
54.9908
 11
0.000274658
 21
54.922
  0
LINE
  8
0
 10
0.000274658
 20
54.922
 11
4.57764e-05
 21
54.8188
  0
LINE
  8
0
 10
4.57764e-05
 20
54.8188
 11
0
 21
54.75
  0
LINE
  8
0
 10
0
 20
54.75
 11
4.57764e-05
 21
54.6812
  0
LINE
  8
0
 10
4.57764e-05
 20
54.6812
 11
0.000274658
 21
54.578
  0
LINE
  8
0
 10
0.000274658
 20
54.578
 11
0.000534058
 21
54.5092
  0
LINE
  8
0
 10
0.000534058
 20
54.5092
 11
0.00108337
 21
54.406
  0
LINE
  8
0
 10
0.00108337
 20
54.406
 11
0.0015564
 21
54.3372
  0
LINE
  8
0
 10
0.0015564
 20
54.3372
 11
0.00212097
 21
54.2684
  0
LINE
  8
0
 10
0.00212097
 20
54.2684
 11
0.00312805
 21
54.1652
  0
LINE
  8
0
 10
0.00312805
 20
54.1652
 11
0.00390625
 21
54.0964
  0
LINE
  8
0
 10
0.00390625
 20
54.0964
 11
0.00523376
 21
53.9932
  0
LINE
  8
0
 10
0.00523376
 20
53.9932
 11
0.00622559
 21
53.9244
  0
LINE
  8
0
 10
0.00622559
 20
53.9244
 11
0.00730896
 21
53.8556
  0
LINE
  8
0
 10
0.00730896
 20
53.8556
 11
0.00909424
 21
53.7525
  0
LINE
  8
0
 10
0.00909424
 20
53.7525
 11
0.0103912
 21
53.6837
  0
LINE
  8
0
 10
0.0103912
 20
53.6837
 11
0.0124969
 21
53.5805
  0
LINE
  8
0
 10
0.0124969
 20
53.5805
 11
0.0140076
 21
53.5117
  0
LINE
  8
0
 10
0.0140076
 20
53.5117
 11
0.0156097
 21
53.4429
  0
LINE
  8
0
 10
0.0156097
 20
53.4429
 11
0.0181732
 21
53.3398
  0
LINE
  8
0
 10
0.0181732
 20
53.3398
 11
0.019989
 21
53.271
  0
LINE
  8
0
 10
0.019989
 20
53.271
 11
0.0228729
 21
53.1678
  0
LINE
  8
0
 10
0.0228729
 20
53.1678
 11
0.0249023
 21
53.099
  0
LINE
  8
0
 10
0.0249023
 20
53.099
 11
0.0270233
 21
53.0303
  0
LINE
  8
0
 10
0.0270233
 20
53.0303
 11
0.0292206
 21
52.9615
  0
LINE
  8
0
 10
0.0292206
 20
52.9615
 11
0.0326996
 21
52.8584
  0
LINE
  8
0
 10
0.0326996
 20
52.8584
 11
0.0351105
 21
52.7896
  0
LINE
  8
0
 10
0.0351105
 20
52.7896
 11
0.0389099
 21
52.6865
  0
LINE
  8
0
 10
0.0389099
 20
52.6865
 11
0.0428925
 21
52.5833
  0
LINE
  8
0
 10
0.0428925
 20
52.5833
 11
0.0456543
 21
52.5146
  0
LINE
  8
0
 10
0.0456543
 20
52.5146
 11
0.0485077
 21
52.4459
  0
LINE
  8
0
 10
0.0485077
 20
52.4459
 11
0.052948
 21
52.3428
  0
LINE
  8
0
 10
0.052948
 20
52.3428
 11
0.0575867
 21
52.2397
  0
LINE
  8
0
 10
0.0575867
 20
52.2397
 11
0.0624237
 21
52.1366
  0
LINE
  8
0
 10
0.0624237
 20
52.1366
 11
0.0674438
 21
52.0335
  0
LINE
  8
0
 10
0.0674438
 20
52.0335
 11
0.0708923
 21
51.9648
  0
LINE
  8
0
 10
0.0708923
 20
51.9648
 11
0.0762482
 21
51.8617
  0
LINE
  8
0
 10
0.0762482
 20
51.8617
 11
0.078064
 21
51.8274
  0
LINE
  8
0
 10
0.078064
 20
51.8274
 11
0.0836792
 21
51.7243
  0
LINE
  8
0
 10
0.0836792
 20
51.7243
 11
0.0894775
 21
51.6213
  0
LINE
  8
0
 10
0.0894775
 20
51.6213
 11
0.0954742
 21
51.5182
  0
LINE
  8
0
 10
0.0954742
 20
51.5182
 11
0.101654
 21
51.4152
  0
LINE
  8
0
 10
0.101654
 20
51.4152
 11
0.108047
 21
51.3122
  0
LINE
  8
0
 10
0.108047
 20
51.3122
 11
0.114624
 21
51.2092
  0
LINE
  8
0
 10
0.114624
 20
51.2092
 11
0.11911
 21
51.1406
  0
LINE
  8
0
 10
0.11911
 20
51.1406
 11
0.126007
 21
51.0376
  0
LINE
  8
0
 10
0.126007
 20
51.0376
 11
0.133102
 21
50.9346
  0
LINE
  8
0
 10
0.133102
 20
50.9346
 11
0.137939
 21
50.866
  0
LINE
  8
0
 10
0.137939
 20
50.866
 11
0.142868
 21
50.7974
  0
LINE
  8
0
 10
0.142868
 20
50.7974
 11
0.150421
 21
50.6945
  0
LINE
  8
0
 10
0.150421
 20
50.6945
 11
0.158157
 21
50.5916
  0
LINE
  8
0
 10
0.158157
 20
50.5916
 11
0.163422
 21
50.523
  0
LINE
  8
0
 10
0.163422
 20
50.523
 11
0.168777
 21
50.4544
  0
LINE
  8
0
 10
0.168777
 20
50.4544
 11
0.176971
 21
50.3515
  0
LINE
  8
0
 10
0.176971
 20
50.3515
 11
0.182541
 21
50.2829
  0
LINE
  8
0
 10
0.182541
 20
50.2829
 11
0.188202
 21
50.2144
  0
LINE
  8
0
 10
0.188202
 20
50.2144
 11
0.196854
 21
50.1115
  0
LINE
  8
0
 10
0.196854
 20
50.1115
 11
0.205688
 21
50.0087
  0
LINE
  8
0
 10
0.205688
 20
50.0087
 11
0.211685
 21
49.9402
  0
LINE
  8
0
 10
0.211685
 20
49.9402
 11
0.217773
 21
49.8716
  0
LINE
  8
0
 10
0.217773
 20
49.8716
 11
0.227066
 21
49.7688
  0
LINE
  8
0
 10
0.227066
 20
49.7688
 11
0.233368
 21
49.7003
  0
LINE
  8
0
 10
0.233368
 20
49.7003
 11
0.239761
 21
49.6318
  0
LINE
  8
0
 10
0.239761
 20
49.6318
 11
0.246231
 21
49.5633
  0
LINE
  8
0
 10
0.246231
 20
49.5633
 11
0.252792
 21
49.4948
  0
LINE
  8
0
 10
0.252792
 20
49.4948
 11
0.262802
 21
49.3921
  0
LINE
  8
0
 10
0.262802
 20
49.3921
 11
0.272995
 21
49.2894
  0
LINE
  8
0
 10
0.272995
 20
49.2894
 11
0.283386
 21
49.1868
  0
LINE
  8
0
 10
0.283386
 20
49.1868
 11
0.290421
 21
49.1183
  0
LINE
  8
0
 10
0.290421
 20
49.1183
 11
0.301132
 21
49.0157
  0
LINE
  8
0
 10
0.301132
 20
49.0157
 11
0.30838
 21
48.9473
  0
LINE
  8
0
 10
0.30838
 20
48.9473
 11
0.319412
 21
48.8447
  0
LINE
  8
0
 10
0.319412
 20
48.8447
 11
0.326874
 21
48.7762
  0
LINE
  8
0
 10
0.326874
 20
48.7762
 11
0.334427
 21
48.7079
  0
LINE
  8
0
 10
0.334427
 20
48.7079
 11
0.345917
 21
48.6053
  0
LINE
  8
0
 10
0.345917
 20
48.6053
 11
0.35759
 21
48.5028
  0
LINE
  8
0
 10
0.35759
 20
48.5028
 11
0.369461
 21
48.4003
  0
LINE
  8
0
 10
0.369461
 20
48.4003
 11
0.377487
 21
48.3319
  0
LINE
  8
0
 10
0.377487
 20
48.3319
 11
0.389679
 21
48.2294
  0
LINE
  8
0
 10
0.389679
 20
48.2294
 11
0.402069
 21
48.127
  0
LINE
  8
0
 10
0.402069
 20
48.127
 11
0.410431
 21
48.0587
  0
LINE
  8
0
 10
0.410431
 20
48.0587
 11
0.423141
 21
47.9563
  0
LINE
  8
0
 10
0.423141
 20
47.9563
 11
0.43605
 21
47.8539
  0
LINE
  8
0
 10
0.43605
 20
47.8539
 11
0.449142
 21
47.7515
  0
LINE
  8
0
 10
0.449142
 20
47.7515
 11
0.457977
 21
47.6833
  0
LINE
  8
0
 10
0.457977
 20
47.6833
 11
0.466904
 21
47.6151
  0
LINE
  8
0
 10
0.466904
 20
47.6151
 11
0.480453
 21
47.5128
  0
LINE
  8
0
 10
0.480453
 20
47.5128
 11
0.494186
 21
47.4105
  0
LINE
  8
0
 10
0.494186
 20
47.4105
 11
0.503448
 21
47.3423
  0
LINE
  8
0
 10
0.503448
 20
47.3423
 11
0.512802
 21
47.2741
  0
LINE
  8
0
 10
0.512802
 20
47.2741
 11
0.526993
 21
47.1719
  0
LINE
  8
0
 10
0.526993
 20
47.1719
 11
0.53656
 21
47.1038
  0
LINE
  8
0
 10
0.53656
 20
47.1038
 11
0.551071
 21
47.0016
  0
LINE
  8
0
 10
0.551071
 20
47.0016
 11
0.565765
 21
46.8995
  0
LINE
  8
0
 10
0.565765
 20
46.8995
 11
0.580673
 21
46.7973
  0
LINE
  8
0
 10
0.580673
 20
46.7973
 11
0.590698
 21
46.7293
  0
LINE
  8
0
 10
0.590698
 20
46.7293
 11
0.605911
 21
46.6272
  0
LINE
  8
0
 10
0.605911
 20
46.6272
 11
0.621323
 21
46.5252
  0
LINE
  8
0
 10
0.621323
 20
46.5252
 11
0.631699
 21
46.4571
  0
LINE
  8
0
 10
0.631699
 20
46.4571
 11
0.64743
 21
46.3551
  0
LINE
  8
0
 10
0.64743
 20
46.3551
 11
0.663345
 21
46.2532
  0
LINE
  8
0
 10
0.663345
 20
46.2532
 11
0.679459
 21
46.1512
  0
LINE
  8
0
 10
0.679459
 20
46.1512
 11
0.690308
 21
46.0833
  0
LINE
  8
0
 10
0.690308
 20
46.0833
 11
0.706741
 21
45.9814
  0
LINE
  8
0
 10
0.706741
 20
45.9814
 11
0.717804
 21
45.9135
  0
LINE
  8
0
 10
0.717804
 20
45.9135
 11
0.734558
 21
45.8117
  0
LINE
  8
0
 10
0.734558
 20
45.8117
 11
0.751495
 21
45.7099
  0
LINE
  8
0
 10
0.751495
 20
45.7099
 11
0.757187
 21
45.6759
  0
LINE
  8
0
 10
0.757187
 20
45.6759
 11
0.768631
 21
45.6081
  0
LINE
  8
0
 10
0.768631
 20
45.6081
 11
0.785965
 21
45.5064
  0
LINE
  8
0
 10
0.785965
 20
45.5064
 11
0.797623
 21
45.4386
  0
LINE
  8
0
 10
0.797623
 20
45.4386
 11
0.815277
 21
45.3369
  0
LINE
  8
0
 10
0.815277
 20
45.3369
 11
0.833115
 21
45.2352
  0
LINE
  8
0
 10
0.833115
 20
45.2352
 11
0.851135
 21
45.1336
  0
LINE
  8
0
 10
0.851135
 20
45.1336
 11
0.863266
 21
45.0659
  0
LINE
  8
0
 10
0.863266
 20
45.0659
 11
0.875473
 21
44.9982
  0
LINE
  8
0
 10
0.875473
 20
44.9982
 11
0.887772
 21
44.9305
  0
LINE
  8
0
 10
0.887772
 20
44.9305
 11
0.906387
 21
44.829
  0
LINE
  8
0
 10
0.906387
 20
44.829
 11
0.9189
 21
44.7613
  0
LINE
  8
0
 10
0.9189
 20
44.7613
 11
0.931488
 21
44.6937
  0
LINE
  8
0
 10
0.931488
 20
44.6937
 11
0.950531
 21
44.5923
  0
LINE
  8
0
 10
0.950531
 20
44.5923
 11
0.969788
 21
44.4909
  0
LINE
  8
0
 10
0.969788
 20
44.4909
 11
0.982712
 21
44.4233
  0
LINE
  8
0
 10
0.982712
 20
44.4233
 11
0.995728
 21
44.3557
  0
LINE
  8
0
 10
0.995728
 20
44.3557
 11
1.00883
 21
44.2882
  0
LINE
  8
0
 10
1.00883
 20
44.2882
 11
1.02866
 21
44.1869
  0
LINE
  8
0
 10
1.02866
 20
44.1869
 11
1.04866
 21
44.0857
  0
LINE
  8
0
 10
1.04866
 20
44.0857
 11
1.0621
 21
44.0182
  0
LINE
  8
0
 10
1.0621
 20
44.0182
 11
1.08243
 21
43.917
  0
LINE
  8
0
 10
1.08243
 20
43.917
 11
1.09608
 21
43.8496
  0
LINE
  8
0
 10
1.09608
 20
43.8496
 11
1.10982
 21
43.7822
  0
LINE
  8
0
 10
1.10982
 20
43.7822
 11
1.12364
 21
43.7148
  0
LINE
  8
0
 10
1.12364
 20
43.7148
 11
1.13756
 21
43.6474
  0
LINE
  8
0
 10
1.13756
 20
43.6474
 11
1.15155
 21
43.58
  0
LINE
  8
0
 10
1.15155
 20
43.58
 11
1.1727
 21
43.479
  0
LINE
  8
0
 10
1.1727
 20
43.479
 11
1.1869
 21
43.4117
  0
LINE
  8
0
 10
1.1869
 20
43.4117
 11
1.20837
 21
43.3108
  0
LINE
  8
0
 10
1.20837
 20
43.3108
 11
1.23003
 21
43.2099
  0
LINE
  8
0
 10
1.23003
 20
43.2099
 11
1.23729
 21
43.1762
  0
LINE
  8
0
 10
1.23729
 20
43.1762
 11
1.2592
 21
43.0754
  0
LINE
  8
0
 10
1.2592
 20
43.0754
 11
1.28131
 21
42.9746
  0
LINE
  8
0
 10
1.28131
 20
42.9746
 11
1.29614
 21
42.9074
  0
LINE
  8
0
 10
1.29614
 20
42.9074
 11
1.31107
 21
42.8402
  0
LINE
  8
0
 10
1.31107
 20
42.8402
 11
1.33362
 21
42.7395
  0
LINE
  8
0
 10
1.33362
 20
42.7395
 11
1.34875
 21
42.6724
  0
LINE
  8
0
 10
1.34875
 20
42.6724
 11
1.36397
 21
42.6053
  0
LINE
  8
0
 10
1.36397
 20
42.6053
 11
1.37927
 21
42.5382
  0
LINE
  8
0
 10
1.37927
 20
42.5382
 11
1.40239
 21
42.4377
  0
LINE
  8
0
 10
1.40239
 20
42.4377
 11
1.42569
 21
42.3371
  0
LINE
  8
0
 10
1.42569
 20
42.3371
 11
1.44133
 21
42.2701
  0
LINE
  8
0
 10
1.44133
 20
42.2701
 11
1.46495
 21
42.1697
  0
LINE
  8
0
 10
1.46495
 20
42.1697
 11
1.48875
 21
42.0692
  0
LINE
  8
0
 10
1.48875
 20
42.0692
 11
1.50473
 21
42.0023
  0
LINE
  8
0
 10
1.50473
 20
42.0023
 11
1.52885
 21
41.902
  0
LINE
  8
0
 10
1.52885
 20
41.902
 11
1.54504
 21
41.8351
  0
LINE
  8
0
 10
1.54504
 20
41.8351
 11
1.56131
 21
41.7683
  0
LINE
  8
0
 10
1.56131
 20
41.7683
 11
1.57767
 21
41.7014
  0
LINE
  8
0
 10
1.57767
 20
41.7014
 11
1.60236
 21
41.6012
  0
LINE
  8
0
 10
1.60236
 20
41.6012
 11
1.62724
 21
41.5011
  0
LINE
  8
0
 10
1.62724
 20
41.5011
 11
1.64394
 21
41.4343
  0
LINE
  8
0
 10
1.64394
 20
41.4343
 11
1.66071
 21
41.3676
  0
LINE
  8
0
 10
1.66071
 20
41.3676
 11
1.68602
 21
41.2676
  0
LINE
  8
0
 10
1.68602
 20
41.2676
 11
1.71153
 21
41.1676
  0
LINE
  8
0
 10
1.71153
 20
41.1676
 11
1.72864
 21
41.1009
  0
LINE
  8
0
 10
1.72864
 20
41.1009
 11
1.74583
 21
41.0343
  0
LINE
  8
0
 10
1.74583
 20
41.0343
 11
1.77179
 21
40.9344
  0
LINE
  8
0
 10
1.77179
 20
40.9344
 11
1.78918
 21
40.8679
  0
LINE
  8
0
 10
1.78918
 20
40.8679
 11
1.81544
 21
40.7681
  0
LINE
  8
0
 10
1.81544
 20
40.7681
 11
1.8419
 21
40.6683
  0
LINE
  8
0
 10
1.8419
 20
40.6683
 11
1.86853
 21
40.5686
  0
LINE
  8
0
 10
1.86853
 20
40.5686
 11
1.8864
 21
40.5022
  0
LINE
  8
0
 10
1.8864
 20
40.5022
 11
1.91335
 21
40.4025
  0
LINE
  8
0
 10
1.91335
 20
40.4025
 11
1.94049
 21
40.303
  0
LINE
  8
0
 10
1.94049
 20
40.303
 11
1.95868
 21
40.2366
  0
LINE
  8
0
 10
1.95868
 20
40.2366
 11
1.97696
 21
40.1703
  0
LINE
  8
0
 10
1.97696
 20
40.1703
 11
2.00455
 21
40.0708
  0
LINE
  8
0
 10
2.00455
 20
40.0708
 11
2.02303
 21
40.0046
  0
LINE
  8
0
 10
2.02303
 20
40.0046
 11
2.0416
 21
39.9383
  0
LINE
  8
0
 10
2.0416
 20
39.9383
 11
2.06961
 21
39.839
  0
LINE
  8
0
 10
2.06961
 20
39.839
 11
2.09781
 21
39.7397
  0
LINE
  8
0
 10
2.09781
 20
39.7397
 11
2.11671
 21
39.6736
  0
LINE
  8
0
 10
2.11671
 20
39.6736
 11
2.14523
 21
39.5744
  0
LINE
  8
0
 10
2.14523
 20
39.5744
 11
2.16434
 21
39.5083
  0
LINE
  8
0
 10
2.16434
 20
39.5083
 11
2.18353
 21
39.4422
  0
LINE
  8
0
 10
2.18353
 20
39.4422
 11
2.21248
 21
39.3432
  0
LINE
  8
0
 10
2.21248
 20
39.3432
 11
2.23189
 21
39.2771
  0
LINE
  8
0
 10
2.23189
 20
39.2771
 11
2.26114
 21
39.1782
  0
LINE
  8
0
 10
2.26114
 20
39.1782
 11
2.29059
 21
39.0793
  0
LINE
  8
0
 10
2.29059
 20
39.0793
 11
2.31032
 21
39.0134
  0
LINE
  8
0
 10
2.31032
 20
39.0134
 11
2.33014
 21
38.9475
  0
LINE
  8
0
 10
2.33014
 20
38.9475
 11
2.35004
 21
38.8816
  0
LINE
  8
0
 10
2.35004
 20
38.8816
 11
2.38005
 21
38.7829
  0
LINE
  8
0
 10
2.38005
 20
38.7829
 11
2.40015
 21
38.7171
  0
LINE
  8
0
 10
2.40015
 20
38.7171
 11
2.42033
 21
38.6513
  0
LINE
  8
0
 10
2.42033
 20
38.6513
 11
2.45078
 21
38.5527
  0
LINE
  8
0
 10
2.45078
 20
38.5527
 11
2.4814
 21
38.4541
  0
LINE
  8
0
 10
2.4814
 20
38.4541
 11
2.51221
 21
38.3556
  0
LINE
  8
0
 10
2.51221
 20
38.3556
 11
2.53285
 21
38.29
  0
LINE
  8
0
 10
2.53285
 20
38.29
 11
2.55357
 21
38.2244
  0
LINE
  8
0
 10
2.55357
 20
38.2244
 11
2.57439
 21
38.1588
  0
LINE
  8
0
 10
2.57439
 20
38.1588
 11
2.59528
 21
38.0933
  0
LINE
  8
0
 10
2.59528
 20
38.0933
 11
2.62677
 21
37.995
  0
LINE
  8
0
 10
2.62677
 20
37.995
 11
2.64786
 21
37.9295
  0
LINE
  8
0
 10
2.64786
 20
37.9295
 11
2.66904
 21
37.864
  0
LINE
  8
0
 10
2.66904
 20
37.864
 11
2.70096
 21
37.7659
  0
LINE
  8
0
 10
2.70096
 20
37.7659
 11
2.73308
 21
37.6678
  0
LINE
  8
0
 10
2.73308
 20
37.6678
 11
2.75458
 21
37.6025
  0
LINE
  8
0
 10
2.75458
 20
37.6025
 11
2.78699
 21
37.5045
  0
LINE
  8
0
 10
2.78699
 20
37.5045
 11
2.8087
 21
37.4392
  0
LINE
  8
0
 10
2.8087
 20
37.4392
 11
2.84143
 21
37.3413
  0
LINE
  8
0
 10
2.84143
 20
37.3413
 11
2.87433
 21
37.2435
  0
LINE
  8
0
 10
2.87433
 20
37.2435
 11
2.90742
 21
37.1458
  0
LINE
  8
0
 10
2.90742
 20
37.1458
 11
2.9407
 21
37.0481
  0
LINE
  8
0
 10
2.9407
 20
37.0481
 11
2.96298
 21
36.983
  0
LINE
  8
0
 10
2.96298
 20
36.983
 11
2.98535
 21
36.9179
  0
LINE
  8
0
 10
2.98535
 20
36.9179
 11
3.0078
 21
36.8529
  0
LINE
  8
0
 10
3.0078
 20
36.8529
 11
3.04163
 21
36.7554
  0
LINE
  8
0
 10
3.04163
 20
36.7554
 11
3.07564
 21
36.658
  0
LINE
  8
0
 10
3.07564
 20
36.658
 11
3.10983
 21
36.5606
  0
LINE
  8
0
 10
3.10983
 20
36.5606
 11
3.14421
 21
36.4633
  0
LINE
  8
0
 10
3.14421
 20
36.4633
 11
3.17877
 21
36.366
  0
LINE
  8
0
 10
3.17877
 20
36.366
 11
3.21352
 21
36.2689
  0
LINE
  8
0
 10
3.21352
 20
36.2689
 11
3.24844
 21
36.1717
  0
LINE
  8
0
 10
3.24844
 20
36.1717
 11
3.28355
 21
36.0747
  0
LINE
  8
0
 10
3.28355
 20
36.0747
 11
3.31885
 21
35.9777
  0
LINE
  8
0
 10
3.31885
 20
35.9777
 11
3.35432
 21
35.8808
  0
LINE
  8
0
 10
3.35432
 20
35.8808
 11
3.38998
 21
35.784
  0
LINE
  8
0
 10
3.38998
 20
35.784
 11
3.42583
 21
35.6872
  0
LINE
  8
0
 10
3.42583
 20
35.6872
 11
3.46185
 21
35.5905
  0
LINE
  8
0
 10
3.46185
 20
35.5905
 11
3.49806
 21
35.4938
  0
LINE
  8
0
 10
3.49806
 20
35.4938
 11
3.52229
 21
35.4294
  0
LINE
  8
0
 10
3.52229
 20
35.4294
 11
3.54662
 21
35.3651
  0
LINE
  8
0
 10
3.54662
 20
35.3651
 11
3.57101
 21
35.3008
  0
LINE
  8
0
 10
3.57101
 20
35.3008
 11
3.60777
 21
35.2043
  0
LINE
  8
0
 10
3.60777
 20
35.2043
 11
3.63237
 21
35.1401
  0
LINE
  8
0
 10
3.63237
 20
35.1401
 11
3.66942
 21
35.0437
  0
LINE
  8
0
 10
3.66942
 20
35.0437
 11
3.69423
 21
34.9796
  0
LINE
  8
0
 10
3.69423
 20
34.9796
 11
3.73158
 21
34.8834
  0
LINE
  8
0
 10
3.73158
 20
34.8834
 11
3.76912
 21
34.7872
  0
LINE
  8
0
 10
3.76912
 20
34.7872
 11
3.80684
 21
34.6912
  0
LINE
  8
0
 10
3.80684
 20
34.6912
 11
3.84474
 21
34.5952
  0
LINE
  8
0
 10
3.84474
 20
34.5952
 11
3.88283
 21
34.4993
  0
LINE
  8
0
 10
3.88283
 20
34.4993
 11
3.90831
 21
34.4354
  0
LINE
  8
0
 10
3.90831
 20
34.4354
 11
3.93388
 21
34.3715
  0
LINE
  8
0
 10
3.93388
 20
34.3715
 11
3.97238
 21
34.2757
  0
LINE
  8
0
 10
3.97238
 20
34.2757
 11
4.01106
 21
34.1801
  0
LINE
  8
0
 10
4.01106
 20
34.1801
 11
4.04993
 21
34.0845
  0
LINE
  8
0
 10
4.04993
 20
34.0845
 11
4.08897
 21
33.9889
  0
LINE
  8
0
 10
4.08897
 20
33.9889
 11
4.14131
 21
33.8617
  0
LINE
  8
0
 10
4.14131
 20
33.8617
 11
4.18077
 21
33.7663
  0
LINE
  8
0
 10
4.18077
 20
33.7663
 11
4.20718
 21
33.7028
  0
LINE
  8
0
 10
4.20718
 20
33.7028
 11
4.24695
 21
33.6075
  0
LINE
  8
0
 10
4.24695
 20
33.6075
 11
4.27356
 21
33.5441
  0
LINE
  8
0
 10
4.27356
 20
33.5441
 11
4.31361
 21
33.449
  0
LINE
  8
0
 10
4.31361
 20
33.449
 11
4.34042
 21
33.3856
  0
LINE
  8
0
 10
4.34042
 20
33.3856
 11
4.36731
 21
33.3223
  0
LINE
  8
0
 10
4.36731
 20
33.3223
 11
4.40779
 21
33.2274
  0
LINE
  8
0
 10
4.40779
 20
33.2274
 11
4.43488
 21
33.1641
  0
LINE
  8
0
 10
4.43488
 20
33.1641
 11
4.47566
 21
33.0693
  0
LINE
  8
0
 10
4.47566
 20
33.0693
 11
4.51662
 21
32.9746
  0
LINE
  8
0
 10
4.51662
 20
32.9746
 11
4.54402
 21
32.9115
  0
LINE
  8
0
 10
4.54402
 20
32.9115
 11
4.58527
 21
32.8169
  0
LINE
  8
0
 10
4.58527
 20
32.8169
 11
4.61287
 21
32.7539
  0
LINE
  8
0
 10
4.61287
 20
32.7539
 11
4.65442
 21
32.6594
  0
LINE
  8
0
 10
4.65442
 20
32.6594
 11
4.68222
 21
32.5965
  0
LINE
  8
0
 10
4.68222
 20
32.5965
 11
4.7101
 21
32.5336
  0
LINE
  8
0
 10
4.7101
 20
32.5336
 11
4.73805
 21
32.4707
  0
LINE
  8
0
 10
4.73805
 20
32.4707
 11
4.78014
 21
32.3765
  0
LINE
  8
0
 10
4.78014
 20
32.3765
 11
4.8224
 21
32.2823
  0
LINE
  8
0
 10
4.8224
 20
32.2823
 11
4.86484
 21
32.1882
  0
LINE
  8
0
 10
4.86484
 20
32.1882
 11
4.90746
 21
32.0943
  0
LINE
  8
0
 10
4.90746
 20
32.0943
 11
4.95026
 21
32.0004
  0
LINE
  8
0
 10
4.95026
 20
32.0004
 11
4.99323
 21
31.9065
  0
LINE
  8
0
 10
4.99323
 20
31.9065
 11
5.02197
 21
31.844
  0
LINE
  8
0
 10
5.02197
 20
31.844
 11
5.06523
 21
31.7503
  0
LINE
  8
0
 10
5.06523
 20
31.7503
 11
5.10867
 21
31.6567
  0
LINE
  8
0
 10
5.10867
 20
31.6567
 11
5.1523
 21
31.5632
  0
LINE
  8
0
 10
5.1523
 20
31.5632
 11
5.19609
 21
31.4697
  0
LINE
  8
0
 10
5.19609
 20
31.4697
 11
5.22539
 21
31.4075
  0
LINE
  8
0
 10
5.22539
 20
31.4075
 11
5.26947
 21
31.3142
  0
LINE
  8
0
 10
5.26947
 20
31.3142
 11
5.31374
 21
31.2209
  0
LINE
  8
0
 10
5.31374
 20
31.2209
 11
5.34334
 21
31.1588
  0
LINE
  8
0
 10
5.34334
 20
31.1588
 11
5.38789
 21
31.0657
  0
LINE
  8
0
 10
5.38789
 20
31.0657
 11
5.41769
 21
31.0037
  0
LINE
  8
0
 10
5.41769
 20
31.0037
 11
5.46254
 21
30.9108
  0
LINE
  8
0
 10
5.46254
 20
30.9108
 11
5.49254
 21
30.8489
  0
LINE
  8
0
 10
5.49254
 20
30.8489
 11
5.52261
 21
30.787
  0
LINE
  8
0
 10
5.52261
 20
30.787
 11
5.56787
 21
30.6942
  0
LINE
  8
0
 10
5.56787
 20
30.6942
 11
5.59814
 21
30.6324
  0
LINE
  8
0
 10
5.59814
 20
30.6324
 11
5.64369
 21
30.5398
  0
LINE
  8
0
 10
5.64369
 20
30.5398
 11
5.67415
 21
30.4781
  0
LINE
  8
0
 10
5.67415
 20
30.4781
 11
5.71999
 21
30.3857
  0
LINE
  8
0
 10
5.71999
 20
30.3857
 11
5.75064
 21
30.3241
  0
LINE
  8
0
 10
5.75064
 20
30.3241
 11
5.78137
 21
30.2625
  0
LINE
  8
0
 10
5.78137
 20
30.2625
 11
5.82762
 21
30.1703
  0
LINE
  8
0
 10
5.82762
 20
30.1703
 11
5.87404
 21
30.0781
  0
LINE
  8
0
 10
5.87404
 20
30.0781
 11
5.92064
 21
29.986
  0
LINE
  8
0
 10
5.92064
 20
29.986
 11
5.9518
 21
29.9247
  0
LINE
  8
0
 10
5.9518
 20
29.9247
 11
5.99867
 21
29.8327
  0
LINE
  8
0
 10
5.99867
 20
29.8327
 11
6.04573
 21
29.7409
  0
LINE
  8
0
 10
6.04573
 20
29.7409
 11
6.09296
 21
29.6491
  0
LINE
  8
0
 10
6.09296
 20
29.6491
 11
6.10873
 21
29.6186
  0
LINE
  8
0
 10
6.10873
 20
29.6186
 11
6.14035
 21
29.5575
  0
LINE
  8
0
 10
6.14035
 20
29.5575
 11
6.18793
 21
29.4659
  0
LINE
  8
0
 10
6.18793
 20
29.4659
 11
6.23567
 21
29.3744
  0
LINE
  8
0
 10
6.23567
 20
29.3744
 11
6.2836
 21
29.283
  0
LINE
  8
0
 10
6.2836
 20
29.283
 11
6.31563
 21
29.2221
  0
LINE
  8
0
 10
6.31563
 20
29.2221
 11
6.34775
 21
29.1613
  0
LINE
  8
0
 10
6.34775
 20
29.1613
 11
6.37994
 21
29.1004
  0
LINE
  8
0
 10
6.37994
 20
29.1004
 11
6.42838
 21
29.0093
  0
LINE
  8
0
 10
6.42838
 20
29.0093
 11
6.47699
 21
28.9183
  0
LINE
  8
0
 10
6.47699
 20
28.9183
 11
6.52576
 21
28.8273
  0
LINE
  8
0
 10
6.52576
 20
28.8273
 11
6.57471
 21
28.7365
  0
LINE
  8
0
 10
6.57471
 20
28.7365
 11
6.62383
 21
28.6457
  0
LINE
  8
0
 10
6.62383
 20
28.6457
 11
6.67313
 21
28.5551
  0
LINE
  8
0
 10
6.67313
 20
28.5551
 11
6.72258
 21
28.4645
  0
LINE
  8
0
 10
6.72258
 20
28.4645
 11
6.77222
 21
28.374
  0
LINE
  8
0
 10
6.77222
 20
28.374
 11
6.82202
 21
28.2836
  0
LINE
  8
0
 10
6.82202
 20
28.2836
 11
6.87199
 21
28.1933
  0
LINE
  8
0
 10
6.87199
 20
28.1933
 11
6.9054
 21
28.1332
  0
LINE
  8
0
 10
6.9054
 20
28.1332
 11
6.95566
 21
28.043
  0
LINE
  8
0
 10
6.95566
 20
28.043
 11
6.98926
 21
27.983
  0
LINE
  8
0
 10
6.98926
 20
27.983
 11
7.03979
 21
27.893
  0
LINE
  8
0
 10
7.03979
 20
27.893
 11
7.07358
 21
27.8331
  0
LINE
  8
0
 10
7.07358
 20
27.8331
 11
7.1244
 21
27.7433
  0
LINE
  8
0
 10
7.1244
 20
27.7433
 11
7.1754
 21
27.6535
  0
LINE
  8
0
 10
7.1754
 20
27.6535
 11
7.20949
 21
27.5938
  0
LINE
  8
0
 10
7.20949
 20
27.5938
 11
7.24365
 21
27.534
  0
LINE
  8
0
 10
7.24365
 20
27.534
 11
7.29503
 21
27.4445
  0
LINE
  8
0
 10
7.29503
 20
27.4445
 11
7.34659
 21
27.3551
  0
LINE
  8
0
 10
7.34659
 20
27.3551
 11
7.39832
 21
27.2658
  0
LINE
  8
0
 10
7.39832
 20
27.2658
 11
7.4502
 21
27.1766
  0
LINE
  8
0
 10
7.4502
 20
27.1766
 11
7.50226
 21
27.0875
  0
LINE
  8
0
 10
7.50226
 20
27.0875
 11
7.55449
 21
26.9985
  0
LINE
  8
0
 10
7.55449
 20
26.9985
 11
7.57193
 21
26.9689
  0
LINE
  8
0
 10
7.57193
 20
26.9689
 11
7.60687
 21
26.9096
  0
LINE
  8
0
 10
7.60687
 20
26.9096
 11
7.62437
 21
26.88
  0
LINE
  8
0
 10
7.62437
 20
26.88
 11
7.65944
 21
26.8208
  0
LINE
  8
0
 10
7.65944
 20
26.8208
 11
7.71217
 21
26.7321
  0
LINE
  8
0
 10
7.71217
 20
26.7321
 11
7.76506
 21
26.6435
  0
LINE
  8
0
 10
7.76506
 20
26.6435
 11
7.81813
 21
26.5549
  0
LINE
  8
0
 10
7.81813
 20
26.5549
 11
7.87135
 21
26.4665
  0
LINE
  8
0
 10
7.87135
 20
26.4665
 11
7.92476
 21
26.3782
  0
LINE
  8
0
 10
7.92476
 20
26.3782
 11
7.97832
 21
26.29
  0
LINE
  8
0
 10
7.97832
 20
26.29
 11
8.03204
 21
26.2019
  0
LINE
  8
0
 10
8.03204
 20
26.2019
 11
8.08594
 21
26.1139
  0
LINE
  8
0
 10
8.08594
 20
26.1139
 11
8.14
 21
26.026
  0
LINE
  8
0
 10
8.14
 20
26.026
 11
8.17613
 21
25.9674
  0
LINE
  8
0
 10
8.17613
 20
25.9674
 11
8.23047
 21
25.8797
  0
LINE
  8
0
 10
8.23047
 20
25.8797
 11
8.28497
 21
25.7921
  0
LINE
  8
0
 10
8.28497
 20
25.7921
 11
8.3214
 21
25.7337
  0
LINE
  8
0
 10
8.3214
 20
25.7337
 11
8.35789
 21
25.6754
  0
LINE
  8
0
 10
8.35789
 20
25.6754
 11
8.41278
 21
25.588
  0
LINE
  8
0
 10
8.41278
 20
25.588
 11
8.46783
 21
25.5007
  0
LINE
  8
0
 10
8.46783
 20
25.5007
 11
8.50462
 21
25.4425
  0
LINE
  8
0
 10
8.50462
 20
25.4425
 11
8.54149
 21
25.3844
  0
LINE
  8
0
 10
8.54149
 20
25.3844
 11
8.57843
 21
25.3264
  0
LINE
  8
0
 10
8.57843
 20
25.3264
 11
8.63397
 21
25.2394
  0
LINE
  8
0
 10
8.63397
 20
25.2394
 11
8.68968
 21
25.1526
  0
LINE
  8
0
 10
8.68968
 20
25.1526
 11
8.72691
 21
25.0947
  0
LINE
  8
0
 10
8.72691
 20
25.0947
 11
8.7829
 21
25.008
  0
LINE
  8
0
 10
8.7829
 20
25.008
 11
8.83904
 21
24.9214
  0
LINE
  8
0
 10
8.83904
 20
24.9214
 11
8.89534
 21
24.8349
  0
LINE
  8
0
 10
8.89534
 20
24.8349
 11
8.95181
 21
24.7485
  0
LINE
  8
0
 10
8.95181
 20
24.7485
 11
8.98955
 21
24.691
  0
LINE
  8
0
 10
8.98955
 20
24.691
 11
9.02736
 21
24.6335
  0
LINE
  8
0
 10
9.02736
 20
24.6335
 11
9.08421
 21
24.5474
  0
LINE
  8
0
 10
9.08421
 20
24.5474
 11
9.1032
 21
24.5187
  0
LINE
  8
0
 10
9.1032
 20
24.5187
 11
9.14122
 21
24.4614
  0
LINE
  8
0
 10
9.14122
 20
24.4614
 11
9.19839
 21
24.3755
  0
LINE
  8
0
 10
9.19839
 20
24.3755
 11
9.2366
 21
24.3182
  0
LINE
  8
0
 10
9.2366
 20
24.3182
 11
9.29405
 21
24.2325
  0
LINE
  8
0
 10
9.29405
 20
24.2325
 11
9.33243
 21
24.1754
  0
LINE
  8
0
 10
9.33243
 20
24.1754
 11
9.39015
 21
24.0898
  0
LINE
  8
0
 10
9.39015
 20
24.0898
 11
9.44801
 21
24.0044
  0
LINE
  8
0
 10
9.44801
 20
24.0044
 11
9.50606
 21
23.9191
  0
LINE
  8
0
 10
9.50606
 20
23.9191
 11
9.54483
 21
23.8622
  0
LINE
  8
0
 10
9.54483
 20
23.8622
 11
9.58368
 21
23.8055
  0
LINE
  8
0
 10
9.58368
 20
23.8055
 11
9.64209
 21
23.7204
  0
LINE
  8
0
 10
9.64209
 20
23.7204
 11
9.70067
 21
23.6354
  0
LINE
  8
0
 10
9.70067
 20
23.6354
 11
9.73979
 21
23.5788
  0
LINE
  8
0
 10
9.73979
 20
23.5788
 11
9.75938
 21
23.5505
  0
LINE
  8
0
 10
9.75938
 20
23.5505
 11
9.79863
 21
23.494
  0
LINE
  8
0
 10
9.79863
 20
23.494
 11
9.85764
 21
23.4093
  0
LINE
  8
0
 10
9.85764
 20
23.4093
 11
9.91678
 21
23.3248
  0
LINE
  8
0
 10
9.91678
 20
23.3248
 11
9.9761
 21
23.2403
  0
LINE
  8
0
 10
9.9761
 20
23.2403
 11
10.0356
 21
23.156
  0
LINE
  8
0
 10
10.0356
 20
23.156
 11
10.0952
 21
23.0718
  0
LINE
  8
0
 10
10.0952
 20
23.0718
 11
10.155
 21
22.9876
  0
LINE
  8
0
 10
10.155
 20
22.9876
 11
10.1949
 21
22.9316
  0
LINE
  8
0
 10
10.1949
 20
22.9316
 11
10.255
 21
22.8477
  0
LINE
  8
0
 10
10.255
 20
22.8477
 11
10.2951
 21
22.7918
  0
LINE
  8
0
 10
10.2951
 20
22.7918
 11
10.3554
 21
22.7081
  0
LINE
  8
0
 10
10.3554
 20
22.7081
 11
10.4159
 21
22.6245
  0
LINE
  8
0
 10
10.4159
 20
22.6245
 11
10.4968
 21
22.5131
  0
LINE
  8
0
 10
10.4968
 20
22.5131
 11
10.5576
 21
22.4298
  0
LINE
  8
0
 10
10.5576
 20
22.4298
 11
10.639
 21
22.3188
  0
LINE
  8
0
 10
10.639
 20
22.3188
 11
10.7002
 21
22.2357
  0
LINE
  8
0
 10
10.7002
 20
22.2357
 11
10.7411
 21
22.1804
  0
LINE
  8
0
 10
10.7411
 20
22.1804
 11
10.7821
 21
22.1251
  0
LINE
  8
0
 10
10.7821
 20
22.1251
 11
10.8437
 21
22.0423
  0
LINE
  8
0
 10
10.8437
 20
22.0423
 11
10.8848
 21
21.9871
  0
LINE
  8
0
 10
10.8848
 20
21.9871
 11
10.9466
 21
21.9045
  0
LINE
  8
0
 10
10.9466
 20
21.9045
 11
10.9879
 21
21.8495
  0
LINE
  8
0
 10
10.9879
 20
21.8495
 11
11.0293
 21
21.7945
  0
LINE
  8
0
 10
11.0293
 20
21.7945
 11
11.0708
 21
21.7396
  0
LINE
  8
0
 10
11.0708
 20
21.7396
 11
11.1331
 21
21.6573
  0
LINE
  8
0
 10
11.1331
 20
21.6573
 11
11.1955
 21
21.5752
  0
LINE
  8
0
 10
11.1955
 20
21.5752
 11
11.2581
 21
21.4931
  0
LINE
  8
0
 10
11.2581
 20
21.4931
 11
11.3209
 21
21.4112
  0
LINE
  8
0
 10
11.3209
 20
21.4112
 11
11.3628
 21
21.3567
  0
LINE
  8
0
 10
11.3628
 20
21.3567
 11
11.4258
 21
21.2749
  0
LINE
  8
0
 10
11.4258
 20
21.2749
 11
11.489
 21
21.1933
  0
LINE
  8
0
 10
11.489
 20
21.1933
 11
11.5312
 21
21.139
  0
LINE
  8
0
 10
11.5312
 20
21.139
 11
11.5947
 21
21.0576
  0
LINE
  8
0
 10
11.5947
 20
21.0576
 11
11.6582
 21
20.9763
  0
LINE
  8
0
 10
11.6582
 20
20.9763
 11
11.7007
 21
20.9222
  0
LINE
  8
0
 10
11.7007
 20
20.9222
 11
11.7433
 21
20.8681
  0
LINE
  8
0
 10
11.7433
 20
20.8681
 11
11.7859
 21
20.8141
  0
LINE
  8
0
 10
11.7859
 20
20.8141
 11
11.8499
 21
20.7332
  0
LINE
  8
0
 10
11.8499
 20
20.7332
 11
11.9141
 21
20.6524
  0
LINE
  8
0
 10
11.9141
 20
20.6524
 11
11.957
 21
20.5986
  0
LINE
  8
0
 10
11.957
 20
20.5986
 11
12.0214
 21
20.518
  0
LINE
  8
0
 10
12.0214
 20
20.518
 11
12.043
 21
20.4911
  0
LINE
  8
0
 10
12.043
 20
20.4911
 11
12.1076
 21
20.4107
  0
LINE
  8
0
 10
12.1076
 20
20.4107
 11
12.1724
 21
20.3304
  0
LINE
  8
0
 10
12.1724
 20
20.3304
 11
12.2374
 21
20.2502
  0
LINE
  8
0
 10
12.2374
 20
20.2502
 11
12.3025
 21
20.1701
  0
LINE
  8
0
 10
12.3025
 20
20.1701
 11
12.346
 21
20.1168
  0
LINE
  8
0
 10
12.346
 20
20.1168
 11
12.4113
 21
20.0369
  0
LINE
  8
0
 10
12.4113
 20
20.0369
 11
12.455
 21
19.9837
  0
LINE
  8
0
 10
12.455
 20
19.9837
 11
12.5206
 21
19.9041
  0
LINE
  8
0
 10
12.5206
 20
19.9041
 11
12.5644
 21
19.851
  0
LINE
  8
0
 10
12.5644
 20
19.851
 11
12.6083
 21
19.7981
  0
LINE
  8
0
 10
12.6083
 20
19.7981
 11
12.6743
 21
19.7187
  0
LINE
  8
0
 10
12.6743
 20
19.7187
 11
12.7404
 21
19.6394
  0
LINE
  8
0
 10
12.7404
 20
19.6394
 11
12.8066
 21
19.5603
  0
LINE
  8
0
 10
12.8066
 20
19.5603
 11
12.873
 21
19.4813
  0
LINE
  8
0
 10
12.873
 20
19.4813
 11
12.9396
 21
19.4024
  0
LINE
  8
0
 10
12.9396
 20
19.4024
 11
12.984
 21
19.3499
  0
LINE
  8
0
 10
12.984
 20
19.3499
 11
13.0508
 21
19.2713
  0
LINE
  8
0
 10
13.0508
 20
19.2713
 11
13.0954
 21
19.2189
  0
LINE
  8
0
 10
13.0954
 20
19.2189
 11
13.1625
 21
19.1404
  0
LINE
  8
0
 10
13.1625
 20
19.1404
 11
13.2297
 21
19.0621
  0
LINE
  8
0
 10
13.2297
 20
19.0621
 11
13.2746
 21
19.01
  0
LINE
  8
0
 10
13.2746
 20
19.01
 11
13.342
 21
18.9319
  0
LINE
  8
0
 10
13.342
 20
18.9319
 11
13.3871
 21
18.8798
  0
LINE
  8
0
 10
13.3871
 20
18.8798
 11
13.4322
 21
18.8279
  0
LINE
  8
0
 10
13.4322
 20
18.8279
 11
13.5
 21
18.7501
  0
LINE
  8
0
 10
13.5
 20
18.7501
 11
13.5452
 21
18.6983
  0
LINE
  8
0
 10
13.5452
 20
18.6983
 11
13.6133
 21
18.6207
  0
LINE
  8
0
 10
13.6133
 20
18.6207
 11
13.636
 21
18.5948
  0
LINE
  8
0
 10
13.636
 20
18.5948
 11
13.7042
 21
18.5174
  0
LINE
  8
0
 10
13.7042
 20
18.5174
 11
13.7497
 21
18.4658
  0
LINE
  8
0
 10
13.7497
 20
18.4658
 11
13.8182
 21
18.3886
  0
LINE
  8
0
 10
13.8182
 20
18.3886
 11
13.8639
 21
18.3372
  0
LINE
  8
0
 10
13.8639
 20
18.3372
 11
13.9326
 21
18.2602
  0
LINE
  8
0
 10
13.9326
 20
18.2602
 11
13.9785
 21
18.2089
  0
LINE
  8
0
 10
13.9785
 20
18.2089
 11
14.0475
 21
18.1322
  0
LINE
  8
0
 10
14.0475
 20
18.1322
 11
14.0705
 21
18.1066
  0
LINE
  8
0
 10
14.0705
 20
18.1066
 11
14.1166
 21
18.0555
  0
LINE
  8
0
 10
14.1166
 20
18.0555
 11
14.1627
 21
18.0045
  0
LINE
  8
0
 10
14.1627
 20
18.0045
 11
14.2321
 21
17.928
  0
LINE
  8
0
 10
14.2321
 20
17.928
 11
14.3015
 21
17.8517
  0
LINE
  8
0
 10
14.3015
 20
17.8517
 11
14.3712
 21
17.7755
  0
LINE
  8
0
 10
14.3712
 20
17.7755
 11
14.4177
 21
17.7248
  0
LINE
  8
0
 10
14.4177
 20
17.7248
 11
14.4642
 21
17.6742
  0
LINE
  8
0
 10
14.4642
 20
17.6742
 11
14.4875
 21
17.6489
  0
LINE
  8
0
 10
14.4875
 20
17.6489
 11
14.5575
 21
17.573
  0
LINE
  8
0
 10
14.5575
 20
17.573
 11
14.6277
 21
17.4973
  0
LINE
  8
0
 10
14.6277
 20
17.4973
 11
14.6745
 21
17.447
  0
LINE
  8
0
 10
14.6745
 20
17.447
 11
14.7449
 21
17.3715
  0
LINE
  8
0
 10
14.7449
 20
17.3715
 11
14.8154
 21
17.2961
  0
LINE
  8
0
 10
14.8154
 20
17.2961
 11
14.8861
 21
17.2209
  0
LINE
  8
0
 10
14.8861
 20
17.2209
 11
14.9333
 21
17.1709
  0
LINE
  8
0
 10
14.9333
 20
17.1709
 11
15.0042
 21
17.0959
  0
LINE
  8
0
 10
15.0042
 20
17.0959
 11
15.0515
 21
17.046
  0
LINE
  8
0
 10
15.0515
 20
17.046
 11
15.1227
 21
16.9712
  0
LINE
  8
0
 10
15.1227
 20
16.9712
 11
15.1702
 21
16.9214
  0
LINE
  8
0
 10
15.1702
 20
16.9214
 11
15.2178
 21
16.8717
  0
LINE
  8
0
 10
15.2178
 20
16.8717
 11
15.2892
 21
16.7973
  0
LINE
  8
0
 10
15.2892
 20
16.7973
 11
15.3608
 21
16.723
  0
LINE
  8
0
 10
15.3608
 20
16.723
 11
15.4326
 21
16.6488
  0
LINE
  8
0
 10
15.4326
 20
16.6488
 11
15.4805
 21
16.5994
  0
LINE
  8
0
 10
15.4805
 20
16.5994
 11
15.5285
 21
16.5501
  0
LINE
  8
0
 10
15.5285
 20
16.5501
 11
15.5765
 21
16.5008
  0
LINE
  8
0
 10
15.5765
 20
16.5008
 11
15.6246
 21
16.4516
  0
LINE
  8
0
 10
15.6246
 20
16.4516
 11
15.6728
 21
16.4025
  0
LINE
  8
0
 10
15.6728
 20
16.4025
 11
15.721
 21
16.3534
  0
LINE
  8
0
 10
15.721
 20
16.3534
 11
15.7934
 21
16.2799
  0
LINE
  8
0
 10
15.7934
 20
16.2799
 11
15.8418
 21
16.231
  0
LINE
  8
0
 10
15.8418
 20
16.231
 11
15.9145
 21
16.1577
  0
LINE
  8
0
 10
15.9145
 20
16.1577
 11
15.9873
 21
16.0846
  0
LINE
  8
0
 10
15.9873
 20
16.0846
 11
16.0359
 21
16.0359
  0
LINE
  8
0
 10
16.0359
 20
16.0359
 11
16.1089
 21
15.963
  0
LINE
  8
0
 10
16.1089
 20
15.963
 11
16.1577
 21
15.9145
  0
LINE
  8
0
 10
16.1577
 20
15.9145
 11
16.231
 21
15.8418
  0
LINE
  8
0
 10
16.231
 20
15.8418
 11
16.2799
 21
15.7934
  0
LINE
  8
0
 10
16.2799
 20
15.7934
 11
16.3534
 21
15.721
  0
LINE
  8
0
 10
16.3534
 20
15.721
 11
16.4025
 21
15.6728
  0
LINE
  8
0
 10
16.4025
 20
15.6728
 11
16.4516
 21
15.6246
  0
LINE
  8
0
 10
16.4516
 20
15.6246
 11
16.5008
 21
15.5765
  0
LINE
  8
0
 10
16.5008
 20
15.5765
 11
16.5747
 21
15.5045
  0
LINE
  8
0
 10
16.5747
 20
15.5045
 11
16.6488
 21
15.4326
  0
LINE
  8
0
 10
16.6488
 20
15.4326
 11
16.723
 21
15.3608
  0
LINE
  8
0
 10
16.723
 20
15.3608
 11
16.7973
 21
15.2892
  0
LINE
  8
0
 10
16.7973
 20
15.2892
 11
16.8717
 21
15.2178
  0
LINE
  8
0
 10
16.8717
 20
15.2178
 11
16.9463
 21
15.1464
  0
LINE
  8
0
 10
16.9463
 20
15.1464
 11
17.046
 21
15.0515
  0
LINE
  8
0
 10
17.046
 20
15.0515
 11
17.1209
 21
14.9805
  0
LINE
  8
0
 10
17.1209
 20
14.9805
 11
17.1709
 21
14.9333
  0
LINE
  8
0
 10
17.1709
 20
14.9333
 11
17.246
 21
14.8625
  0
LINE
  8
0
 10
17.246
 20
14.8625
 11
17.2961
 21
14.8154
  0
LINE
  8
0
 10
17.2961
 20
14.8154
 11
17.3715
 21
14.7449
  0
LINE
  8
0
 10
17.3715
 20
14.7449
 11
17.447
 21
14.6745
  0
LINE
  8
0
 10
17.447
 20
14.6745
 11
17.4973
 21
14.6277
  0
LINE
  8
0
 10
17.4973
 20
14.6277
 11
17.573
 21
14.5575
  0
LINE
  8
0
 10
17.573
 20
14.5575
 11
17.6489
 21
14.4875
  0
LINE
  8
0
 10
17.6489
 20
14.4875
 11
17.7248
 21
14.4177
  0
LINE
  8
0
 10
17.7248
 20
14.4177
 11
17.8009
 21
14.3479
  0
LINE
  8
0
 10
17.8009
 20
14.3479
 11
17.8771
 21
14.2784
  0
LINE
  8
0
 10
17.8771
 20
14.2784
 11
17.928
 21
14.2321
  0
LINE
  8
0
 10
17.928
 20
14.2321
 11
18.0045
 21
14.1627
  0
LINE
  8
0
 10
18.0045
 20
14.1627
 11
18.0555
 21
14.1166
  0
LINE
  8
0
 10
18.0555
 20
14.1166
 11
18.1066
 21
14.0705
  0
LINE
  8
0
 10
18.1066
 20
14.0705
 11
18.1577
 21
14.0245
  0
LINE
  8
0
 10
18.1577
 20
14.0245
 11
18.2089
 21
13.9785
  0
LINE
  8
0
 10
18.2089
 20
13.9785
 11
18.2859
 21
13.9097
  0
LINE
  8
0
 10
18.2859
 20
13.9097
 11
18.3629
 21
13.8411
  0
LINE
  8
0
 10
18.3629
 20
13.8411
 11
18.4401
 21
13.7726
  0
LINE
  8
0
 10
18.4401
 20
13.7726
 11
18.4658
 21
13.7497
  0
LINE
  8
0
 10
18.4658
 20
13.7497
 11
18.5174
 21
13.7042
  0
LINE
  8
0
 10
18.5174
 20
13.7042
 11
18.5948
 21
13.636
  0
LINE
  8
0
 10
18.5948
 20
13.636
 11
18.6724
 21
13.5679
  0
LINE
  8
0
 10
18.6724
 20
13.5679
 11
18.7501
 21
13.5
  0
LINE
  8
0
 10
18.7501
 20
13.5
 11
18.8279
 21
13.4322
  0
LINE
  8
0
 10
18.8279
 20
13.4322
 11
18.8798
 21
13.3871
  0
LINE
  8
0
 10
18.8798
 20
13.3871
 11
18.9579
 21
13.3195
  0
LINE
  8
0
 10
18.9579
 20
13.3195
 11
19.01
 21
13.2746
  0
LINE
  8
0
 10
19.01
 20
13.2746
 11
19.0882
 21
13.2073
  0
LINE
  8
0
 10
19.0882
 20
13.2073
 11
19.1404
 21
13.1625
  0
LINE
  8
0
 10
19.1404
 20
13.1625
 11
19.2189
 21
13.0954
  0
LINE
  8
0
 10
19.2189
 20
13.0954
 11
19.2975
 21
13.0285
  0
LINE
  8
0
 10
19.2975
 20
13.0285
 11
19.3499
 21
12.984
  0
LINE
  8
0
 10
19.3499
 20
12.984
 11
19.4024
 21
12.9396
  0
LINE
  8
0
 10
19.4024
 20
12.9396
 11
19.4813
 21
12.873
  0
LINE
  8
0
 10
19.4813
 20
12.873
 11
19.5603
 21
12.8066
  0
LINE
  8
0
 10
19.5603
 20
12.8066
 11
19.6394
 21
12.7404
  0
LINE
  8
0
 10
19.6394
 20
12.7404
 11
19.7187
 21
12.6743
  0
LINE
  8
0
 10
19.7187
 20
12.6743
 11
19.7981
 21
12.6083
  0
LINE
  8
0
 10
19.7981
 20
12.6083
 11
19.851
 21
12.5644
  0
LINE
  8
0
 10
19.851
 20
12.5644
 11
19.9041
 21
12.5206
  0
LINE
  8
0
 10
19.9041
 20
12.5206
 11
19.9837
 21
12.455
  0
LINE
  8
0
 10
19.9837
 20
12.455
 11
20.0369
 21
12.4113
  0
LINE
  8
0
 10
20.0369
 20
12.4113
 11
20.1168
 21
12.346
  0
LINE
  8
0
 10
20.1168
 20
12.346
 11
20.1701
 21
12.3025
  0
LINE
  8
0
 10
20.1701
 20
12.3025
 11
20.2502
 21
12.2374
  0
LINE
  8
0
 10
20.2502
 20
12.2374
 11
20.3304
 21
12.1724
  0
LINE
  8
0
 10
20.3304
 20
12.1724
 11
20.4107
 21
12.1076
  0
LINE
  8
0
 10
20.4107
 20
12.1076
 11
20.4911
 21
12.043
  0
LINE
  8
0
 10
20.4911
 20
12.043
 11
20.5717
 21
11.9785
  0
LINE
  8
0
 10
20.5717
 20
11.9785
 11
20.5986
 21
11.957
  0
LINE
  8
0
 10
20.5986
 20
11.957
 11
20.6524
 21
11.9141
  0
LINE
  8
0
 10
20.6524
 20
11.9141
 11
20.7062
 21
11.8713
  0
LINE
  8
0
 10
20.7062
 20
11.8713
 11
20.7871
 21
11.8072
  0
LINE
  8
0
 10
20.7871
 20
11.8072
 11
20.8681
 21
11.7433
  0
LINE
  8
0
 10
20.8681
 20
11.7433
 11
20.9222
 21
11.7007
  0
LINE
  8
0
 10
20.9222
 20
11.7007
 11
20.9763
 21
11.6582
  0
LINE
  8
0
 10
20.9763
 20
11.6582
 11
21.0576
 21
11.5947
  0
LINE
  8
0
 10
21.0576
 20
11.5947
 11
21.139
 21
11.5312
  0
LINE
  8
0
 10
21.139
 20
11.5312
 11
21.1933
 21
11.489
  0
LINE
  8
0
 10
21.1933
 20
11.489
 11
21.2749
 21
11.4258
  0
LINE
  8
0
 10
21.2749
 20
11.4258
 11
21.3567
 21
11.3628
  0
LINE
  8
0
 10
21.3567
 20
11.3628
 11
21.4112
 21
11.3209
  0
LINE
  8
0
 10
21.4112
 20
11.3209
 11
21.4658
 21
11.279
  0
LINE
  8
0
 10
21.4658
 20
11.279
 11
21.5478
 21
11.2164
  0
LINE
  8
0
 10
21.5478
 20
11.2164
 11
21.6026
 21
11.1747
  0
LINE
  8
0
 10
21.6026
 20
11.1747
 11
21.6573
 21
11.1331
  0
LINE
  8
0
 10
21.6573
 20
11.1331
 11
21.7396
 21
11.0708
  0
LINE
  8
0
 10
21.7396
 20
11.0708
 11
21.7945
 21
11.0293
  0
LINE
  8
0
 10
21.7945
 20
11.0293
 11
21.877
 21
10.9673
  0
LINE
  8
0
 10
21.877
 20
10.9673
 11
21.9596
 21
10.9054
  0
LINE
  8
0
 10
21.9596
 20
10.9054
 11
22.0147
 21
10.8642
  0
LINE
  8
0
 10
22.0147
 20
10.8642
 11
22.0975
 21
10.8026
  0
LINE
  8
0
 10
22.0975
 20
10.8026
 11
22.1804
 21
10.7411
  0
LINE
  8
0
 10
22.1804
 20
10.7411
 11
22.2357
 21
10.7002
  0
LINE
  8
0
 10
22.2357
 20
10.7002
 11
22.2911
 21
10.6594
  0
LINE
  8
0
 10
22.2911
 20
10.6594
 11
22.3743
 21
10.5983
  0
LINE
  8
0
 10
22.3743
 20
10.5983
 11
22.4298
 21
10.5576
  0
LINE
  8
0
 10
22.4298
 20
10.5576
 11
22.5131
 21
10.4968
  0
LINE
  8
0
 10
22.5131
 20
10.4968
 11
22.5966
 21
10.4361
  0
LINE
  8
0
 10
22.5966
 20
10.4361
 11
22.6802
 21
10.3756
  0
LINE
  8
0
 10
22.6802
 20
10.3756
 11
22.7081
 21
10.3554
  0
LINE
  8
0
 10
22.7081
 20
10.3554
 11
22.7918
 21
10.2951
  0
LINE
  8
0
 10
22.7918
 20
10.2951
 11
22.8757
 21
10.235
  0
LINE
  8
0
 10
22.8757
 20
10.235
 11
22.9596
 21
10.175
  0
LINE
  8
0
 10
22.9596
 20
10.175
 11
23.0437
 21
10.1151
  0
LINE
  8
0
 10
23.0437
 20
10.1151
 11
23.1279
 21
10.0554
  0
LINE
  8
0
 10
23.1279
 20
10.0554
 11
23.2122
 21
9.99591
  0
LINE
  8
0
 10
23.2122
 20
9.99591
 11
23.2966
 21
9.93654
  0
LINE
  8
0
 10
23.2966
 20
9.93654
 11
23.3811
 21
9.87733
  0
LINE
  8
0
 10
23.3811
 20
9.87733
 11
23.4658
 21
9.81828
  0
LINE
  8
0
 10
23.4658
 20
9.81828
 11
23.494
 21
9.79863
  0
LINE
  8
0
 10
23.494
 20
9.79863
 11
23.5505
 21
9.75938
  0
LINE
  8
0
 10
23.5505
 20
9.75938
 11
23.6071
 21
9.72021
  0
LINE
  8
0
 10
23.6071
 20
9.72021
 11
23.692
 21
9.66159
  0
LINE
  8
0
 10
23.692
 20
9.66159
 11
23.7771
 21
9.60313
  0
LINE
  8
0
 10
23.7771
 20
9.60313
 11
23.8622
 21
9.54483
  0
LINE
  8
0
 10
23.8622
 20
9.54483
 11
23.9475
 21
9.48669
  0
LINE
  8
0
 10
23.9475
 20
9.48669
 11
24.0044
 21
9.44801
  0
LINE
  8
0
 10
24.0044
 20
9.44801
 11
24.0898
 21
9.39015
  0
LINE
  8
0
 10
24.0898
 20
9.39015
 11
24.1754
 21
9.33243
  0
LINE
  8
0
 10
24.1754
 20
9.33243
 11
24.2611
 21
9.27489
  0
LINE
  8
0
 10
24.2611
 20
9.27489
 11
24.3182
 21
9.2366
  0
LINE
  8
0
 10
24.3182
 20
9.2366
 11
24.3755
 21
9.19839
  0
LINE
  8
0
 10
24.3755
 20
9.19839
 11
24.4614
 21
9.14122
  0
LINE
  8
0
 10
24.4614
 20
9.14122
 11
24.5187
 21
9.1032
  0
LINE
  8
0
 10
24.5187
 20
9.1032
 11
24.6048
 21
9.0463
  0
LINE
  8
0
 10
24.6048
 20
9.0463
 11
24.691
 21
8.98955
  0
LINE
  8
0
 10
24.691
 20
8.98955
 11
24.7485
 21
8.95181
  0
LINE
  8
0
 10
24.7485
 20
8.95181
 11
24.8349
 21
8.89534
  0
LINE
  8
0
 10
24.8349
 20
8.89534
 11
24.9214
 21
8.83904
  0
LINE
  8
0
 10
24.9214
 20
8.83904
 11
25.008
 21
8.7829
  0
LINE
  8
0
 10
25.008
 20
8.7829
 11
25.0947
 21
8.72691
  0
LINE
  8
0
 10
25.0947
 20
8.72691
 11
25.1526
 21
8.68968
  0
LINE
  8
0
 10
25.1526
 20
8.68968
 11
25.2394
 21
8.63397
  0
LINE
  8
0
 10
25.2394
 20
8.63397
 11
25.3264
 21
8.57843
  0
LINE
  8
0
 10
25.3264
 20
8.57843
 11
25.3844
 21
8.54149
  0
LINE
  8
0
 10
25.3844
 20
8.54149
 11
25.4425
 21
8.50462
  0
LINE
  8
0
 10
25.4425
 20
8.50462
 11
25.5007
 21
8.46783
  0
LINE
  8
0
 10
25.5007
 20
8.46783
 11
25.588
 21
8.41278
  0
LINE
  8
0
 10
25.588
 20
8.41278
 11
25.6754
 21
8.35789
  0
LINE
  8
0
 10
25.6754
 20
8.35789
 11
25.7337
 21
8.3214
  0
LINE
  8
0
 10
25.7337
 20
8.3214
 11
25.8213
 21
8.26678
  0
LINE
  8
0
 10
25.8213
 20
8.26678
 11
25.8797
 21
8.23047
  0
LINE
  8
0
 10
25.8797
 20
8.23047
 11
25.9674
 21
8.17613
  0
LINE
  8
0
 10
25.9674
 20
8.17613
 11
26.026
 21
8.14
  0
LINE
  8
0
 10
26.026
 20
8.14
 11
26.0846
 21
8.10394
  0
LINE
  8
0
 10
26.0846
 20
8.10394
 11
26.1725
 21
8.04999
  0
LINE
  8
0
 10
26.1725
 20
8.04999
 11
26.2313
 21
8.01411
  0
LINE
  8
0
 10
26.2313
 20
8.01411
 11
26.29
 21
7.97832
  0
LINE
  8
0
 10
26.29
 20
7.97832
 11
26.3782
 21
7.92476
  0
LINE
  8
0
 10
26.3782
 20
7.92476
 11
26.4665
 21
7.87135
  0
LINE
  8
0
 10
26.4665
 20
7.87135
 11
26.5549
 21
7.81813
  0
LINE
  8
0
 10
26.5549
 20
7.81813
 11
26.6435
 21
7.76506
  0
LINE
  8
0
 10
26.6435
 20
7.76506
 11
26.7321
 21
7.71217
  0
LINE
  8
0
 10
26.7321
 20
7.71217
 11
26.8208
 21
7.65944
  0
LINE
  8
0
 10
26.8208
 20
7.65944
 11
26.88
 21
7.62437
  0
LINE
  8
0
 10
26.88
 20
7.62437
 11
26.9096
 21
7.60687
  0
LINE
  8
0
 10
26.9096
 20
7.60687
 11
26.9689
 21
7.57193
  0
LINE
  8
0
 10
26.9689
 20
7.57193
 11
27.0578
 21
7.51965
  0
LINE
  8
0
 10
27.0578
 20
7.51965
 11
27.1469
 21
7.46753
  0
LINE
  8
0
 10
27.1469
 20
7.46753
 11
27.2361
 21
7.41559
  0
LINE
  8
0
 10
27.2361
 20
7.41559
 11
27.3254
 21
7.36382
  0
LINE
  8
0
 10
27.3254
 20
7.36382
 11
27.4147
 21
7.31219
  0
LINE
  8
0
 10
27.4147
 20
7.31219
 11
27.4445
 21
7.29503
  0
LINE
  8
0
 10
27.4445
 20
7.29503
 11
27.534
 21
7.24365
  0
LINE
  8
0
 10
27.534
 20
7.24365
 11
27.6236
 21
7.19243
  0
LINE
  8
0
 10
27.6236
 20
7.19243
 11
27.7133
 21
7.14139
  0
LINE
  8
0
 10
27.7133
 20
7.14139
 11
27.8031
 21
7.0905
  0
LINE
  8
0
 10
27.8031
 20
7.0905
 11
27.8331
 21
7.07358
  0
LINE
  8
0
 10
27.8331
 20
7.07358
 11
27.893
 21
7.03979
  0
LINE
  8
0
 10
27.893
 20
7.03979
 11
27.983
 21
6.98926
  0
LINE
  8
0
 10
27.983
 20
6.98926
 11
28.0731
 21
6.93889
  0
LINE
  8
0
 10
28.0731
 20
6.93889
 11
28.1332
 21
6.9054
  0
LINE
  8
0
 10
28.1332
 20
6.9054
 11
28.2234
 21
6.85532
  0
LINE
  8
0
 10
28.2234
 20
6.85532
 11
28.2836
 21
6.82202
  0
LINE
  8
0
 10
28.2836
 20
6.82202
 11
28.374
 21
6.77222
  0
LINE
  8
0
 10
28.374
 20
6.77222
 11
28.4645
 21
6.72258
  0
LINE
  8
0
 10
28.4645
 20
6.72258
 11
28.5551
 21
6.67313
  0
LINE
  8
0
 10
28.5551
 20
6.67313
 11
28.6457
 21
6.62383
  0
LINE
  8
0
 10
28.6457
 20
6.62383
 11
28.7365
 21
6.57471
  0
LINE
  8
0
 10
28.7365
 20
6.57471
 11
28.8273
 21
6.52576
  0
LINE
  8
0
 10
28.8273
 20
6.52576
 11
28.888
 21
6.49323
  0
LINE
  8
0
 10
28.888
 20
6.49323
 11
28.979
 21
6.44456
  0
LINE
  8
0
 10
28.979
 20
6.44456
 11
29.0397
 21
6.41222
  0
LINE
  8
0
 10
29.0397
 20
6.41222
 11
29.1004
 21
6.37994
  0
LINE
  8
0
 10
29.1004
 20
6.37994
 11
29.1613
 21
6.34775
  0
LINE
  8
0
 10
29.1613
 20
6.34775
 11
29.2221
 21
6.31563
  0
LINE
  8
0
 10
29.2221
 20
6.31563
 11
29.3134
 21
6.26761
  0
LINE
  8
0
 10
29.3134
 20
6.26761
 11
29.3744
 21
6.23567
  0
LINE
  8
0
 10
29.3744
 20
6.23567
 11
29.4659
 21
6.18793
  0
LINE
  8
0
 10
29.4659
 20
6.18793
 11
29.5575
 21
6.14035
  0
LINE
  8
0
 10
29.5575
 20
6.14035
 11
29.6186
 21
6.10873
  0
LINE
  8
0
 10
29.6186
 20
6.10873
 11
29.7103
 21
6.06145
  0
LINE
  8
0
 10
29.7103
 20
6.06145
 11
29.8021
 21
6.01434
  0
LINE
  8
0
 10
29.8021
 20
6.01434
 11
29.894
 21
5.96741
  0
LINE
  8
0
 10
29.894
 20
5.96741
 11
29.9554
 21
5.9362
  0
LINE
  8
0
 10
29.9554
 20
5.9362
 11
30.0474
 21
5.88956
  0
LINE
  8
0
 10
30.0474
 20
5.88956
 11
30.1395
 21
5.84308
  0
LINE
  8
0
 10
30.1395
 20
5.84308
 11
30.2318
 21
5.79677
  0
LINE
  8
0
 10
30.2318
 20
5.79677
 11
30.2625
 21
5.78137
  0
LINE
  8
0
 10
30.2625
 20
5.78137
 11
30.3241
 21
5.75064
  0
LINE
  8
0
 10
30.3241
 20
5.75064
 11
30.3857
 21
5.71999
  0
LINE
  8
0
 10
30.3857
 20
5.71999
 11
30.4781
 21
5.67415
  0
LINE
  8
0
 10
30.4781
 20
5.67415
 11
30.5398
 21
5.64369
  0
LINE
  8
0
 10
30.5398
 20
5.64369
 11
30.6324
 21
5.59814
  0
LINE
  8
0
 10
30.6324
 20
5.59814
 11
30.6942
 21
5.56787
  0
LINE
  8
0
 10
30.6942
 20
5.56787
 11
30.787
 21
5.52261
  0
LINE
  8
0
 10
30.787
 20
5.52261
 11
30.8489
 21
5.49254
  0
LINE
  8
0
 10
30.8489
 20
5.49254
 11
30.9108
 21
5.46254
  0
LINE
  8
0
 10
30.9108
 20
5.46254
 11
31.0037
 21
5.41769
  0
LINE
  8
0
 10
31.0037
 20
5.41769
 11
31.0657
 21
5.38789
  0
LINE
  8
0
 10
31.0657
 20
5.38789
 11
31.1588
 21
5.34334
  0
LINE
  8
0
 10
31.1588
 20
5.34334
 11
31.2209
 21
5.31374
  0
LINE
  8
0
 10
31.2209
 20
5.31374
 11
31.3142
 21
5.26947
  0
LINE
  8
0
 10
31.3142
 20
5.26947
 11
31.4075
 21
5.22539
  0
LINE
  8
0
 10
31.4075
 20
5.22539
 11
31.4697
 21
5.19609
  0
LINE
  8
0
 10
31.4697
 20
5.19609
 11
31.532
 21
5.16687
  0
LINE
  8
0
 10
31.532
 20
5.16687
 11
31.6255
 21
5.1232
  0
LINE
  8
0
 10
31.6255
 20
5.1232
 11
31.6879
 21
5.09418
  0
LINE
  8
0
 10
31.6879
 20
5.09418
 11
31.7503
 21
5.06523
  0
LINE
  8
0
 10
31.7503
 20
5.06523
 11
31.844
 21
5.02197
  0
LINE
  8
0
 10
31.844
 20
5.02197
 11
31.9065
 21
4.99323
  0
LINE
  8
0
 10
31.9065
 20
4.99323
 11
31.9691
 21
4.96455
  0
LINE
  8
0
 10
31.9691
 20
4.96455
 11
32.0629
 21
4.92171
  0
LINE
  8
0
 10
32.0629
 20
4.92171
 11
32.1569
 21
4.87903
  0
LINE
  8
0
 10
32.1569
 20
4.87903
 11
32.2196
 21
4.85068
  0
LINE
  8
0
 10
32.2196
 20
4.85068
 11
32.2823
 21
4.8224
  0
LINE
  8
0
 10
32.2823
 20
4.8224
 11
32.3765
 21
4.78014
  0
LINE
  8
0
 10
32.3765
 20
4.78014
 11
32.4707
 21
4.73805
  0
LINE
  8
0
 10
32.4707
 20
4.73805
 11
32.5336
 21
4.7101
  0
LINE
  8
0
 10
32.5336
 20
4.7101
 11
32.5965
 21
4.68222
  0
LINE
  8
0
 10
32.5965
 20
4.68222
 11
32.6594
 21
4.65442
  0
LINE
  8
0
 10
32.6594
 20
4.65442
 11
32.7539
 21
4.61287
  0
LINE
  8
0
 10
32.7539
 20
4.61287
 11
32.8169
 21
4.58527
  0
LINE
  8
0
 10
32.8169
 20
4.58527
 11
32.9115
 21
4.54402
  0
LINE
  8
0
 10
32.9115
 20
4.54402
 11
32.9746
 21
4.51662
  0
LINE
  8
0
 10
32.9746
 20
4.51662
 11
33.0377
 21
4.48929
  0
LINE
  8
0
 10
33.0377
 20
4.48929
 11
33.1325
 21
4.44846
  0
LINE
  8
0
 10
33.1325
 20
4.44846
 11
33.1957
 21
4.42133
  0
LINE
  8
0
 10
33.1957
 20
4.42133
 11
33.2906
 21
4.38078
  0
LINE
  8
0
 10
33.2906
 20
4.38078
 11
33.3856
 21
4.34042
  0
LINE
  8
0
 10
33.3856
 20
4.34042
 11
33.449
 21
4.31361
  0
LINE
  8
0
 10
33.449
 20
4.31361
 11
33.5441
 21
4.27356
  0
LINE
  8
0
 10
33.5441
 20
4.27356
 11
33.6075
 21
4.24695
  0
LINE
  8
0
 10
33.6075
 20
4.24695
 11
33.7028
 21
4.20718
  0
LINE
  8
0
 10
33.7028
 20
4.20718
 11
33.7663
 21
4.18077
  0
LINE
  8
0
 10
33.7663
 20
4.18077
 11
33.8617
 21
4.14131
  0
LINE
  8
0
 10
33.8617
 20
4.14131
 11
33.9889
 21
4.08897
  0
LINE
  8
0
 10
33.9889
 20
4.08897
 11
34.0845
 21
4.04993
  0
LINE
  8
0
 10
34.0845
 20
4.04993
 11
34.1801
 21
4.01106
  0
LINE
  8
0
 10
34.1801
 20
4.01106
 11
34.2757
 21
3.97238
  0
LINE
  8
0
 10
34.2757
 20
3.97238
 11
34.3715
 21
3.93388
  0
LINE
  8
0
 10
34.3715
 20
3.93388
 11
34.4354
 21
3.90831
  0
LINE
  8
0
 10
34.4354
 20
3.90831
 11
34.4993
 21
3.88283
  0
LINE
  8
0
 10
34.4993
 20
3.88283
 11
34.5952
 21
3.84474
  0
LINE
  8
0
 10
34.5952
 20
3.84474
 11
34.6912
 21
3.80684
  0
LINE
  8
0
 10
34.6912
 20
3.80684
 11
34.7872
 21
3.76912
  0
LINE
  8
0
 10
34.7872
 20
3.76912
 11
34.8834
 21
3.73158
  0
LINE
  8
0
 10
34.8834
 20
3.73158
 11
34.9796
 21
3.69423
  0
LINE
  8
0
 10
34.9796
 20
3.69423
 11
35.0437
 21
3.66942
  0
LINE
  8
0
 10
35.0437
 20
3.66942
 11
35.1401
 21
3.63237
  0
LINE
  8
0
 10
35.1401
 20
3.63237
 11
35.2365
 21
3.5955
  0
LINE
  8
0
 10
35.2365
 20
3.5955
 11
35.3008
 21
3.57101
  0
LINE
  8
0
 10
35.3008
 20
3.57101
 11
35.3651
 21
3.54662
  0
LINE
  8
0
 10
35.3651
 20
3.54662
 11
35.4294
 21
3.52229
  0
LINE
  8
0
 10
35.4294
 20
3.52229
 11
35.4938
 21
3.49806
  0
LINE
  8
0
 10
35.4938
 20
3.49806
 11
35.5905
 21
3.46185
  0
LINE
  8
0
 10
35.5905
 20
3.46185
 11
35.6872
 21
3.42583
  0
LINE
  8
0
 10
35.6872
 20
3.42583
 11
35.784
 21
3.38998
  0
LINE
  8
0
 10
35.784
 20
3.38998
 11
35.8808
 21
3.35432
  0
LINE
  8
0
 10
35.8808
 20
3.35432
 11
35.9777
 21
3.31885
  0
LINE
  8
0
 10
35.9777
 20
3.31885
 11
36.0747
 21
3.28355
  0
LINE
  8
0
 10
36.0747
 20
3.28355
 11
36.1717
 21
3.24844
  0
LINE
  8
0
 10
36.1717
 20
3.24844
 11
36.2689
 21
3.21352
  0
LINE
  8
0
 10
36.2689
 20
3.21352
 11
36.366
 21
3.17877
  0
LINE
  8
0
 10
36.366
 20
3.17877
 11
36.4633
 21
3.14421
  0
LINE
  8
0
 10
36.4633
 20
3.14421
 11
36.5606
 21
3.10983
  0
LINE
  8
0
 10
36.5606
 20
3.10983
 11
36.658
 21
3.07564
  0
LINE
  8
0
 10
36.658
 20
3.07564
 11
36.7554
 21
3.04163
  0
LINE
  8
0
 10
36.7554
 20
3.04163
 11
36.8529
 21
3.0078
  0
LINE
  8
0
 10
36.8529
 20
3.0078
 11
36.9179
 21
2.98535
  0
LINE
  8
0
 10
36.9179
 20
2.98535
 11
36.983
 21
2.96298
  0
LINE
  8
0
 10
36.983
 20
2.96298
 11
37.0806
 21
2.9296
  0
LINE
  8
0
 10
37.0806
 20
2.9296
 11
37.1458
 21
2.90742
  0
LINE
  8
0
 10
37.1458
 20
2.90742
 11
37.2435
 21
2.87433
  0
LINE
  8
0
 10
37.2435
 20
2.87433
 11
37.3087
 21
2.85237
  0
LINE
  8
0
 10
37.3087
 20
2.85237
 11
37.4066
 21
2.8196
  0
LINE
  8
0
 10
37.4066
 20
2.8196
 11
37.4718
 21
2.79784
  0
LINE
  8
0
 10
37.4718
 20
2.79784
 11
37.5698
 21
2.76537
  0
LINE
  8
0
 10
37.5698
 20
2.76537
 11
37.6351
 21
2.74382
  0
LINE
  8
0
 10
37.6351
 20
2.74382
 11
37.7332
 21
2.71164
  0
LINE
  8
0
 10
37.7332
 20
2.71164
 11
37.7659
 21
2.70096
  0
LINE
  8
0
 10
37.7659
 20
2.70096
 11
37.864
 21
2.66904
  0
LINE
  8
0
 10
37.864
 20
2.66904
 11
37.9295
 21
2.64786
  0
LINE
  8
0
 10
37.9295
 20
2.64786
 11
38.0277
 21
2.61626
  0
LINE
  8
0
 10
38.0277
 20
2.61626
 11
38.0933
 21
2.59528
  0
LINE
  8
0
 10
38.0933
 20
2.59528
 11
38.1588
 21
2.57439
  0
LINE
  8
0
 10
38.1588
 20
2.57439
 11
38.2244
 21
2.55357
  0
LINE
  8
0
 10
38.2244
 20
2.55357
 11
38.29
 21
2.53285
  0
LINE
  8
0
 10
38.29
 20
2.53285
 11
38.3556
 21
2.51221
  0
LINE
  8
0
 10
38.3556
 20
2.51221
 11
38.4541
 21
2.4814
  0
LINE
  8
0
 10
38.4541
 20
2.4814
 11
38.5527
 21
2.45078
  0
LINE
  8
0
 10
38.5527
 20
2.45078
 11
38.6513
 21
2.42033
  0
LINE
  8
0
 10
38.6513
 20
2.42033
 11
38.7171
 21
2.40015
  0
LINE
  8
0
 10
38.7171
 20
2.40015
 11
38.8158
 21
2.37003
  0
LINE
  8
0
 10
38.8158
 20
2.37003
 11
38.8816
 21
2.35004
  0
LINE
  8
0
 10
38.8816
 20
2.35004
 11
38.9804
 21
2.32022
  0
LINE
  8
0
 10
38.9804
 20
2.32022
 11
39.0793
 21
2.29059
  0
LINE
  8
0
 10
39.0793
 20
2.29059
 11
39.1782
 21
2.26114
  0
LINE
  8
0
 10
39.1782
 20
2.26114
 11
39.2771
 21
2.23189
  0
LINE
  8
0
 10
39.2771
 20
2.23189
 11
39.3432
 21
2.21248
  0
LINE
  8
0
 10
39.3432
 20
2.21248
 11
39.4422
 21
2.18353
  0
LINE
  8
0
 10
39.4422
 20
2.18353
 11
39.5413
 21
2.15477
  0
LINE
  8
0
 10
39.5413
 20
2.15477
 11
39.6405
 21
2.12621
  0
LINE
  8
0
 10
39.6405
 20
2.12621
 11
39.7397
 21
2.09781
  0
LINE
  8
0
 10
39.7397
 20
2.09781
 11
39.839
 21
2.06961
  0
LINE
  8
0
 10
39.839
 20
2.06961
 11
39.9383
 21
2.0416
  0
LINE
  8
0
 10
39.9383
 20
2.0416
 11
40.0046
 21
2.02303
  0
LINE
  8
0
 10
40.0046
 20
2.02303
 11
40.104
 21
1.99533
  0
LINE
  8
0
 10
40.104
 20
1.99533
 11
40.1703
 21
1.97696
  0
LINE
  8
0
 10
40.1703
 20
1.97696
 11
40.2698
 21
1.94957
  0
LINE
  8
0
 10
40.2698
 20
1.94957
 11
40.3693
 21
1.92238
  0
LINE
  8
0
 10
40.3693
 20
1.92238
 11
40.4357
 21
1.90434
  0
LINE
  8
0
 10
40.4357
 20
1.90434
 11
40.5354
 21
1.87746
  0
LINE
  8
0
 10
40.5354
 20
1.87746
 11
40.6351
 21
1.85075
  0
LINE
  8
0
 10
40.6351
 20
1.85075
 11
40.7348
 21
1.82425
  0
LINE
  8
0
 10
40.7348
 20
1.82425
 11
40.8013
 21
1.80667
  0
LINE
  8
0
 10
40.8013
 20
1.80667
 11
40.9011
 21
1.78047
  0
LINE
  8
0
 10
40.9011
 20
1.78047
 11
41.001
 21
1.75447
  0
LINE
  8
0
 10
41.001
 20
1.75447
 11
41.1009
 21
1.72864
  0
LINE
  8
0
 10
41.1009
 20
1.72864
 11
41.1676
 21
1.71153
  0
LINE
  8
0
 10
41.1676
 20
1.71153
 11
41.2676
 21
1.68602
  0
LINE
  8
0
 10
41.2676
 20
1.68602
 11
41.3676
 21
1.66071
  0
LINE
  8
0
 10
41.3676
 20
1.66071
 11
41.4677
 21
1.63557
  0
LINE
  8
0
 10
41.4677
 20
1.63557
 11
41.5345
 21
1.61893
  0
LINE
  8
0
 10
41.5345
 20
1.61893
 11
41.6012
 21
1.60236
  0
LINE
  8
0
 10
41.6012
 20
1.60236
 11
41.7014
 21
1.57767
  0
LINE
  8
0
 10
41.7014
 20
1.57767
 11
41.7683
 21
1.56131
  0
LINE
  8
0
 10
41.7683
 20
1.56131
 11
41.8685
 21
1.53694
  0
LINE
  8
0
 10
41.8685
 20
1.53694
 11
41.9689
 21
1.51276
  0
LINE
  8
0
 10
41.9689
 20
1.51276
 11
42.0692
 21
1.48875
  0
LINE
  8
0
 10
42.0692
 20
1.48875
 11
42.1697
 21
1.46495
  0
LINE
  8
0
 10
42.1697
 20
1.46495
 11
42.2701
 21
1.44133
  0
LINE
  8
0
 10
42.2701
 20
1.44133
 11
42.3371
 21
1.42569
  0
LINE
  8
0
 10
42.3371
 20
1.42569
 11
42.4377
 21
1.40239
  0
LINE
  8
0
 10
42.4377
 20
1.40239
 11
42.5382
 21
1.37927
  0
LINE
  8
0
 10
42.5382
 20
1.37927
 11
42.6053
 21
1.36397
  0
LINE
  8
0
 10
42.6053
 20
1.36397
 11
42.706
 21
1.34117
  0
LINE
  8
0
 10
42.706
 20
1.34117
 11
42.8067
 21
1.31856
  0
LINE
  8
0
 10
42.8067
 20
1.31856
 11
42.8402
 21
1.31107
  0
LINE
  8
0
 10
42.8402
 20
1.31107
 11
42.941
 21
1.28871
  0
LINE
  8
0
 10
42.941
 20
1.28871
 11
43.0418
 21
1.26656
  0
LINE
  8
0
 10
43.0418
 20
1.26656
 11
43.109
 21
1.25188
  0
LINE
  8
0
 10
43.109
 20
1.25188
 11
43.1762
 21
1.23729
  0
LINE
  8
0
 10
43.1762
 20
1.23729
 11
43.2771
 21
1.21558
  0
LINE
  8
0
 10
43.2771
 20
1.21558
 11
43.3781
 21
1.19405
  0
LINE
  8
0
 10
43.3781
 20
1.19405
 11
43.479
 21
1.1727
  0
LINE
  8
0
 10
43.479
 20
1.1727
 11
43.58
 21
1.15155
  0
LINE
  8
0
 10
43.58
 20
1.15155
 11
43.6474
 21
1.13756
  0
LINE
  8
0
 10
43.6474
 20
1.13756
 11
43.7148
 21
1.12364
  0
LINE
  8
0
 10
43.7148
 20
1.12364
 11
43.7822
 21
1.10982
  0
LINE
  8
0
 10
43.7822
 20
1.10982
 11
43.8496
 21
1.09608
  0
LINE
  8
0
 10
43.8496
 20
1.09608
 11
43.917
 21
1.08243
  0
LINE
  8
0
 10
43.917
 20
1.08243
 11
44.0182
 21
1.0621
  0
LINE
  8
0
 10
44.0182
 20
1.0621
 11
44.0857
 21
1.04866
  0
LINE
  8
0
 10
44.0857
 20
1.04866
 11
44.1869
 21
1.02866
  0
LINE
  8
0
 10
44.1869
 20
1.02866
 11
44.2882
 21
1.00883
  0
LINE
  8
0
 10
44.2882
 20
1.00883
 11
44.3557
 21
0.995728
  0
LINE
  8
0
 10
44.3557
 20
0.995728
 11
44.4233
 21
0.982712
  0
LINE
  8
0
 10
44.4233
 20
0.982712
 11
44.5247
 21
0.963348
  0
LINE
  8
0
 10
44.5247
 20
0.963348
 11
44.5923
 21
0.950531
  0
LINE
  8
0
 10
44.5923
 20
0.950531
 11
44.6937
 21
0.931488
  0
LINE
  8
0
 10
44.6937
 20
0.931488
 11
44.7952
 21
0.912628
  0
LINE
  8
0
 10
44.7952
 20
0.912628
 11
44.8967
 21
0.893951
  0
LINE
  8
0
 10
44.8967
 20
0.893951
 11
44.9982
 21
0.875473
  0
LINE
  8
0
 10
44.9982
 20
0.875473
 11
45.0998
 21
0.857193
  0
LINE
  8
0
 10
45.0998
 20
0.857193
 11
45.2014
 21
0.839096
  0
LINE
  8
0
 10
45.2014
 20
0.839096
 11
45.303
 21
0.821198
  0
LINE
  8
0
 10
45.303
 20
0.821198
 11
45.4047
 21
0.803482
  0
LINE
  8
0
 10
45.4047
 20
0.803482
 11
45.4725
 21
0.791779
  0
LINE
  8
0
 10
45.4725
 20
0.791779
 11
45.5403
 21
0.780167
  0
LINE
  8
0
 10
45.5403
 20
0.780167
 11
45.6081
 21
0.768631
  0
LINE
  8
0
 10
45.6081
 20
0.768631
 11
45.6759
 21
0.757187
  0
LINE
  8
0
 10
45.6759
 20
0.757187
 11
45.7777
 21
0.740189
  0
LINE
  8
0
 10
45.7777
 20
0.740189
 11
45.8796
 21
0.723373
  0
LINE
  8
0
 10
45.8796
 20
0.723373
 11
45.9814
 21
0.706741
  0
LINE
  8
0
 10
45.9814
 20
0.706741
 11
46.0833
 21
0.690308
  0
LINE
  8
0
 10
46.0833
 20
0.690308
 11
46.1512
 21
0.679459
  0
LINE
  8
0
 10
46.1512
 20
0.679459
 11
46.2532
 21
0.663345
  0
LINE
  8
0
 10
46.2532
 20
0.663345
 11
46.3212
 21
0.65271
  0
LINE
  8
0
 10
46.3212
 20
0.65271
 11
46.4231
 21
0.636917
  0
LINE
  8
0
 10
46.4231
 20
0.636917
 11
46.4571
 21
0.631699
  0
LINE
  8
0
 10
46.4571
 20
0.631699
 11
46.5592
 21
0.616165
  0
LINE
  8
0
 10
46.5592
 20
0.616165
 11
46.6272
 21
0.605911
  0
LINE
  8
0
 10
46.6272
 20
0.605911
 11
46.7293
 21
0.590698
  0
LINE
  8
0
 10
46.7293
 20
0.590698
 11
46.8314
 21
0.575684
  0
LINE
  8
0
 10
46.8314
 20
0.575684
 11
46.8995
 21
0.565765
  0
LINE
  8
0
 10
46.8995
 20
0.565765
 11
47.0016
 21
0.551071
  0
LINE
  8
0
 10
47.0016
 20
0.551071
 11
47.1038
 21
0.53656
  0
LINE
  8
0
 10
47.1038
 20
0.53656
 11
47.1719
 21
0.526993
  0
LINE
  8
0
 10
47.1719
 20
0.526993
 11
47.2741
 21
0.512802
  0
LINE
  8
0
 10
47.2741
 20
0.512802
 11
47.3423
 21
0.503448
  0
LINE
  8
0
 10
47.3423
 20
0.503448
 11
47.4105
 21
0.494186
  0
LINE
  8
0
 10
47.4105
 20
0.494186
 11
47.5128
 21
0.480453
  0
LINE
  8
0
 10
47.5128
 20
0.480453
 11
47.6151
 21
0.466904
  0
LINE
  8
0
 10
47.6151
 20
0.466904
 11
47.6833
 21
0.457977
  0
LINE
  8
0
 10
47.6833
 20
0.457977
 11
47.7515
 21
0.449142
  0
LINE
  8
0
 10
47.7515
 20
0.449142
 11
47.8539
 21
0.43605
  0
LINE
  8
0
 10
47.8539
 20
0.43605
 11
47.9563
 21
0.423141
  0
LINE
  8
0
 10
47.9563
 20
0.423141
 11
48.0587
 21
0.410431
  0
LINE
  8
0
 10
48.0587
 20
0.410431
 11
48.1611
 21
0.397919
  0
LINE
  8
0
 10
48.1611
 20
0.397919
 11
48.2294
 21
0.389679
  0
LINE
  8
0
 10
48.2294
 20
0.389679
 11
48.3319
 21
0.377487
  0
LINE
  8
0
 10
48.3319
 20
0.377487
 11
48.4003
 21
0.369461
  0
LINE
  8
0
 10
48.4003
 20
0.369461
 11
48.5028
 21
0.35759
  0
LINE
  8
0
 10
48.5028
 20
0.35759
 11
48.6053
 21
0.345917
  0
LINE
  8
0
 10
48.6053
 20
0.345917
 11
48.7079
 21
0.334427
  0
LINE
  8
0
 10
48.7079
 20
0.334427
 11
48.7762
 21
0.326874
  0
LINE
  8
0
 10
48.7762
 20
0.326874
 11
48.8447
 21
0.319412
  0
LINE
  8
0
 10
48.8447
 20
0.319412
 11
48.9473
 21
0.30838
  0
LINE
  8
0
 10
48.9473
 20
0.30838
 11
49.0157
 21
0.301132
  0
LINE
  8
0
 10
49.0157
 20
0.301132
 11
49.1183
 21
0.290421
  0
LINE
  8
0
 10
49.1183
 20
0.290421
 11
49.1868
 21
0.283386
  0
LINE
  8
0
 10
49.1868
 20
0.283386
 11
49.2894
 21
0.272995
  0
LINE
  8
0
 10
49.2894
 20
0.272995
 11
49.3579
 21
0.266174
  0
LINE
  8
0
 10
49.3579
 20
0.266174
 11
49.4264
 21
0.259445
  0
LINE
  8
0
 10
49.4264
 20
0.259445
 11
49.4948
 21
0.252792
  0
LINE
  8
0
 10
49.4948
 20
0.252792
 11
49.5633
 21
0.246231
  0
LINE
  8
0
 10
49.5633
 20
0.246231
 11
49.6661
 21
0.236557
  0
LINE
  8
0
 10
49.6661
 20
0.236557
 11
49.7688
 21
0.227066
  0
LINE
  8
0
 10
49.7688
 20
0.227066
 11
49.8716
 21
0.217773
  0
LINE
  8
0
 10
49.8716
 20
0.217773
 11
49.9402
 21
0.211685
  0
LINE
  8
0
 10
49.9402
 20
0.211685
 11
50.0087
 21
0.205688
  0
LINE
  8
0
 10
50.0087
 20
0.205688
 11
50.1115
 21
0.196854
  0
LINE
  8
0
 10
50.1115
 20
0.196854
 11
50.2144
 21
0.188202
  0
LINE
  8
0
 10
50.2144
 20
0.188202
 11
50.2829
 21
0.182541
  0
LINE
  8
0
 10
50.2829
 20
0.182541
 11
50.3515
 21
0.176971
  0
LINE
  8
0
 10
50.3515
 20
0.176971
 11
50.4544
 21
0.168777
  0
LINE
  8
0
 10
50.4544
 20
0.168777
 11
50.523
 21
0.163422
  0
LINE
  8
0
 10
50.523
 20
0.163422
 11
50.5916
 21
0.158157
  0
LINE
  8
0
 10
50.5916
 20
0.158157
 11
50.6945
 21
0.150421
  0
LINE
  8
0
 10
50.6945
 20
0.150421
 11
50.7974
 21
0.142868
  0
LINE
  8
0
 10
50.7974
 20
0.142868
 11
50.866
 21
0.137939
  0
LINE
  8
0
 10
50.866
 20
0.137939
 11
50.9346
 21
0.133102
  0
LINE
  8
0
 10
50.9346
 20
0.133102
 11
51.0376
 21
0.126007
  0
LINE
  8
0
 10
51.0376
 20
0.126007
 11
51.1406
 21
0.11911
  0
LINE
  8
0
 10
51.1406
 20
0.11911
 11
51.2436
 21
0.112411
  0
LINE
  8
0
 10
51.2436
 20
0.112411
 11
51.3466
 21
0.105896
  0
LINE
  8
0
 10
51.3466
 20
0.105896
 11
51.4152
 21
0.101654
  0
LINE
  8
0
 10
51.4152
 20
0.101654
 11
51.5182
 21
0.0954742
  0
LINE
  8
0
 10
51.5182
 20
0.0954742
 11
51.6213
 21
0.0894775
  0
LINE
  8
0
 10
51.6213
 20
0.0894775
 11
51.69
 21
0.0855865
  0
LINE
  8
0
 10
51.69
 20
0.0855865
 11
51.7587
 21
0.0817871
  0
LINE
  8
0
 10
51.7587
 20
0.0817871
 11
51.8274
 21
0.078064
  0
LINE
  8
0
 10
51.8274
 20
0.078064
 11
51.9304
 21
0.0726624
  0
LINE
  8
0
 10
51.9304
 20
0.0726624
 11
51.9991
 21
0.0691528
  0
LINE
  8
0
 10
51.9991
 20
0.0691528
 11
52.1022
 21
0.0640717
  0
LINE
  8
0
 10
52.1022
 20
0.0640717
 11
52.2053
 21
0.0591736
  0
LINE
  8
0
 10
52.2053
 20
0.0591736
 11
52.3084
 21
0.0544739
  0
LINE
  8
0
 10
52.3084
 20
0.0544739
 11
52.4115
 21
0.0499725
  0
LINE
  8
0
 10
52.4115
 20
0.0499725
 11
52.5146
 21
0.0456543
  0
LINE
  8
0
 10
52.5146
 20
0.0456543
 11
52.5833
 21
0.0428925
  0
LINE
  8
0
 10
52.5833
 20
0.0428925
 11
52.6865
 21
0.0389099
  0
LINE
  8
0
 10
52.6865
 20
0.0389099
 11
52.7896
 21
0.0351105
  0
LINE
  8
0
 10
52.7896
 20
0.0351105
 11
52.8927
 21
0.0315247
  0
LINE
  8
0
 10
52.8927
 20
0.0315247
 11
52.9615
 21
0.0292206
  0
LINE
  8
0
 10
52.9615
 20
0.0292206
 11
53.0647
 21
0.0259552
  0
LINE
  8
0
 10
53.0647
 20
0.0259552
 11
53.1678
 21
0.0228729
  0
LINE
  8
0
 10
53.1678
 20
0.0228729
 11
53.271
 21
0.019989
  0
LINE
  8
0
 10
53.271
 20
0.019989
 11
53.3398
 21
0.0181732
  0
LINE
  8
0
 10
53.3398
 20
0.0181732
 11
53.4429
 21
0.0156097
  0
LINE
  8
0
 10
53.4429
 20
0.0156097
 11
53.5117
 21
0.0140076
  0
LINE
  8
0
 10
53.5117
 20
0.0140076
 11
53.5805
 21
0.0124969
  0
LINE
  8
0
 10
53.5805
 20
0.0124969
 11
53.6837
 21
0.0103912
  0
LINE
  8
0
 10
53.6837
 20
0.0103912
 11
53.7525
 21
0.00909424
  0
LINE
  8
0
 10
53.7525
 20
0.00909424
 11
53.8556
 21
0.00730896
  0
LINE
  8
0
 10
53.8556
 20
0.00730896
 11
53.9244
 21
0.00622559
  0
LINE
  8
0
 10
53.9244
 20
0.00622559
 11
53.9932
 21
0.00523376
  0
LINE
  8
0
 10
53.9932
 20
0.00523376
 11
54.0964
 21
0.00390625
  0
LINE
  8
0
 10
54.0964
 20
0.00390625
 11
54.1652
 21
0.00312805
  0
LINE
  8
0
 10
54.1652
 20
0.00312805
 11
54.2684
 21
0.00212097
  0
LINE
  8
0
 10
54.2684
 20
0.00212097
 11
54.3372
 21
0.0015564
  0
LINE
  8
0
 10
54.3372
 20
0.0015564
 11
54.406
 21
0.00108337
  0
LINE
  8
0
 10
54.406
 20
0.00108337
 11
54.5092
 21
0.000534058
  0
LINE
  8
0
 10
54.5092
 20
0.000534058
 11
54.578
 21
0.000274658
  0
LINE
  8
0
 10
54.578
 20
0.000274658
 11
54.6812
 21
4.57764e-05
  0
LINE
  8
0
 10
54.6812
 20
4.57764e-05
 11
54.75
 21
0
  0
LINE
  8
0
 10
54.75
 20
0
 11
54.8188
 21
4.57764e-05
  0
LINE
  8
0
 10
24.75
 20
39.5
 11
24.75
 21
83.5
  0
LINE
  8
0
 10
24.75
 20
83.5
 11
84.75
 21
83.5
  0
LINE
  8
0
 10
84.75
 20
83.5
 11
84.75
 21
39.5
  0
LINE
  8
0
 10
84.75
 20
39.5
 11
24.75
 21
39.5
  0
ENDSEC
  0
SECTION
  2
OBJECTS
  0
DICTIONARY
  0
ENDSEC
  0
EOF
